<mxfile host="Electron" agent="Mozilla/5.0 (X11; Linux x86_64) AppleWebKit/537.36 (KHTML, like Gecko) draw.io/26.1.1 Chrome/132.0.6834.210 Electron/34.3.3 Safari/537.36" version="26.1.1">
  <diagram name="Page-1" id="B_Ly3OrZYMhUPzVHJB1N">
    <mxGraphModel dx="-450" dy="-1307" grid="1" gridSize="10" guides="1" tooltips="1" connect="1" arrows="1" fold="1" page="1" pageScale="1" pageWidth="850" pageHeight="1100" math="0" shadow="0">
      <root>
        <mxCell id="0" />
        <mxCell id="1" parent="0" />
        <mxCell id="l-bfp-85eKoJ4v_uVIgV-13" value="" style="shape=image;verticalLabelPosition=bottom;labelBackgroundColor=default;verticalAlign=top;aspect=fixed;imageAspect=0;image=data:image/png,iVBORw0KGgoAAAANSUhEUgAABv8AAAPjCAYAAACTQRL0AAAACXBIWXMAAA7EAAAOxAGVKw4bAAAgAElEQVR4nOzde3SdVZ0//vc5J7cmbXqBQm3lZrnZClbUgSLeUKGMoEvkNvP16+UnOg4jMA7I4K3IyPADwQWIIIMI6Iy/EWZwuCjSGcRLldBRsQgKSLlDKb2kbdIkJ8lJ8vujEgjpnbZpT1+vtbrI8zz72fuzT5vVrrzZexcGBgYGAgAAAAAAAGz3iiNdAAAAAAAAALB5CP8AAAAAAACgSgj/AAAAAAAAoEoI/wAAAAAAAKBKCP8AAAAAAACgSgj/AAAAAAAAoEoI/wAAAAAAAKBKCP8AAAAAAACgSgj/AAAAAAAAoEoI/wAAAAAAAKBKCP8AAAAAAACgSgj/AAAAAAAAoEoI/wAAAAAAAKBKCP8AAAAAAACgSgj/AAAAAAAAoEoI/wAAAAAAAKBKCP8AAAAAAACgSgj/AAAAAAAAoEoI/wAAAAAAAKBKCP8AAAAAAACgSgj/AAAAAAAAoEoI/wAAAAAAAKBKCP8AAAAAAACgSgj/AAAAAAAAoEoI/wAAAAAAAKBKCP8AAAAAAACgSgj/AAAAAAAAoEoI/wAAAAAAAKBKCP8AAAAAAACgSgj/AAAAAAAAoEoI/wAAAAAAAKBKCP8AAAAAAACgSgj/AAAAAAAAoEoI/wAAAAAAAKBKCP8AAAAAAACgSgj/AAAAAAAAoEoI/wAAAAAAAKBKCP8AAAAAAACgSgj/AAAAAAAAoEoI/wAAAAAAAKBKCP8AAAAAAACgSgj/AAAAAAAAoEoI/wAAAAAAAKBKCP8AAAAAAACgSgj/AAAAAAAAoEoI/wAAAAAAAKBK1Ix0AQAAAABs244++ui0t7env79/pEthMysUClm4cGFaWloyceLEkS4HANgMhH8AAAAArNMTTzyRO++8MzU1fpRUjQ499NC0trYK/wCgSvgXGwAAAADrVFtbm5133ln4V6VGjRqV1tbWkS4DANhMnPkHAAAAAAAAVUL4BwAAAAAAAFVC+AcAAAAAAABVQvgHAAAAAAAAVUL4BwAAAECS5PTTT88dd9yxzjbLly/PQw89lEceeSSdnZ0b1f/SpUtTqVTy3HPPDXvW2dmZtra2YfcXL16cSqWyUeMAAOzIhH8AAAAAJEnmzZuXo446KoceemjmzJmzxjbf+c53ctlll+WWW27JiSeemF//+tcb3P+ll16aRYsW5XOf+9ywZ3fffXduvfXWYffPP//8LFq0aMMnAQCwg6sZ6QIAAAAA2La0tLRk1qxZmTlzZs4555xhz0888cS84x3vyIEHHpi5c+dm4cKFaWlpybJly/K1r30t3/jGN/Lggw/mk5/8ZG655ZYsX748p5122pA+ent78+Uvfzm9vb058sgj11vT+eefn56enixcuDCXXnppGhsbN9t8AQCqifAPAIAdXm1tbaZPnz7SZQDAiHvkkUeGXLe0tOSMM84Ytu3mRRddlO9973vp7OzMxRdfnAcffDAf+9jHcumll+Y3v/lNfvWrX+W//uu/8vvf/z4nn3xy5s6dm5tuumlIH//xH/+RxsbGvOtd78rs2bNz1llnrbO2u+++O//1X/+Va6+9NnfffXfe/e53b55JAwBUGeEfAAA7vOnTp2f+/PkjXQYAjLhDDjkk8+bNS7L678fZs2fn+OOPz0EHHTSk3Wc/+9m84x3vGLw+88wzc/jhh2fMmDHp7+/PxIkTU1dXlx//+Mepra3N5MmT09/fP6SPFStWpFgsZunSpfngBz+43trGjRuX2traNDU1OQMQAGAdnPkHAAAAwKBp06bl+9//fn7/+9/nhBNOSKFQWO87nZ2dWbJkSR5//PGsXLly8H65XE5nZ2fuv//+tLW1DXnnAx/4QH7729/mnnvuGbbiEACATVcYGBgYGOkiAABgJM2YMcPKPwDI6m0+Dz744BSLQ/9/8Te84Q359a9/nZqaNW8i1d/fn66urjQ1NQ171tbWlubm5jW+NzAwkFWrVmXMmDGD/fT09Aw+LxaLqaur29TpsIFe//rX56qrrsrMmTNHuhQAYDOw7ScAAAAASbLJ4U+xWFxj8JdkrcFfkhQKhcHgL0keffTRzJkzZ/B63Lhx+dCHPrRJNQEA7KiEfwAAAABsE/bZZ5/ss88+I10GAMB2zZl/AAAAAAAAUCWEfwAAAAAAAFAlhH8AAAAAAABQJYR/AAAAAAAAUCWEfwAAAAAAAFAlhH8AAAAAAABQJYR/AAAAAAAAUCWEfwAAAAAAAFAlhH8AAAAAAABQJWpGugAAAAAAtn0DAwMZGBjYoLYPPPDHLFz43BauiLWpq6vL299+WAqFwkiXAgCMAOEfAAAAAOu0oaHfC+64466MH79rJkzYaQtVxLrMmTMnb3jDgRk7duxIlwIAjADhHwAAAABJktNPPz1HHXVUZs2aNezZCyv/li9fnueffz6lUilTpkxJY2PjsLalUiEHH3xoXvWqKUPut7YuTXPzuCxbtiS77vqqIc+6ujpTqVQyZkzz4L2enp60ta3IzjvvkiTp7i6no6NjSKi4tj6ff/65YWNsqPr6pLiVDsvp7k76+zdvn/fd95uNWqkJAFQX4R8AAAAASZJ58+bl61//embOnJlzzjknRx555OCzF8Kk73znO/nTn/6U17zmNfnFL36RL33pS3nTm940rK/+/v50dCxLsVhIoVCf2tqGfPObl+QjH/mbXHjhObn88utSLnekr6+SJPnlL3+WJUsW57jj/k8aGl4MFE8//eR873u3Jkm++92r89rXHpDDDnvn4POrrrosH/3o32Tu3Lty4okfHrz/5S+flW9+81836XN45JE/ZtWqldlll13S1dWZ/v6BNDY2plLpS6XSm6SQQiEpl8sZM2ZMOjs7kxQyYcL4rFy5Mo2Njenv709//0A6OjoyalRDGhubsmzZkowZ05zOztVBZ1LIfvsdtEk1rssLv1fCPwDYMQn/AAAAABiipaUls2bNGgwBX+6EE07I29/+9hx44IGZO3duFi5cmHvuuSfLli3LRRddlJ/85L9z11135aMf/X/yP//z46xYsTIf+9gpqVQqWbZsSXp6evLss0/nG9/4fzN27Ji85z1HZqedRqdSWZWkd3Ccurq67LXX3vnjH+dnr732yt13/zwzZ74t55zz2axYsTyf/OSpSZJVq5bl2Wcfz6pVS3LRReenpqYh5XLXJs9/jz2mDbu3alV7Ro8es953x40bfq+npzt1dfUZP373Yc/6+japRACAtRL+AQDACKitrc306dNHugwAGOKRRx4Zct3S0pIzzjgjvb29Q1aSXXzxxfne976Xrq6uXHjhhXnooYfykY98JJdddll+85vf5PHHH8u//dttaW1dmo9+9NO55565ufPOO1JbW5eJE3dNXV1dfvWrn2fChJ1yzDFH59xzZ+eMM85aY03HHntSfvSjm/JXf3VSZs48OCtWtOZDH/p47rlnbm677Qfp7e1OU1N9nnhiQX7+8//OkUcekde+9k35zGc+tcmfw5oWzDU1jVnj/Q1RW1u/ye9uKiv/AGDHJfwDAIARMH369MyfP3+kywCAIQ455JDMmzcvyeq/q2bPnp3jjz8+b3jDG4ZsJfkP//APefvb3z743llnnZV3vvOdGTNmTPr6+tLU1JTa2tr85Cc/Tk1NbSZNmpz+Px9s191dTk9PT5577pmUy+UsXbo0H/jABwf7KpfL6el5saZdd31VHntsQW644d/zd393Wi644KtpbByTXXedlHK5M+Vy92Db9vb27LXXa9LV1ZW6uvosX966zvmWy13ZaaeJqaurG3K/rW1pamtr09+fNDWN3eTPcyRtTPgnJASA6iL8AwAAAGDQtGnTBkO/YrE4eP/lYdJLv+7s7MySJUvy+OOPZ+XKlYPPV61qT6FQSGvrsvT0dGfMmOb09PSktrY2H/zg/8nZZ5+SUinp7u7Orrvums7OzhQKxYwZ0zzY95gxzXnDG/4i9913b5L6FArF9Pf35bHHFqSnpzvNzc1Ztaor3d09eetb35WvfOVLmTRpt3R3lzNu3Ph1zrVSGZNVq9rT1fXiPJ955qlMm7ZHxo0bm+eea91ugzEr/wBgxyX8AwAAACBJcskll+Tggw8eEvq93Kmnnjrs3g033JCurq40NTUlSZ55ZnEqlUq+/OUvZWCgP0uWdKSurjFJsmzZklx++XVJku9+95Z0dKwaPEuvv78/vb096e4uJ0kKhWLq6uryiU/8/eBYs2dfmPb2tiEBYZJcddX3kyRXXvn/pbe3J3V19eud7/oCsp6envT2rhxyr7e3JzvtNHG9fQMAjBThHwAAAABJkpkzZ6712bqCskKhkMbGxiHPa2pq0tlZTG9vX3baaVIKhcIa30sq6e9vS5L84Q8P5n//9zeDz8eOHZfjjvs/aW9fnKamhiRJe3slY8dOWGudhUJhg4K/JOnrq6SpafSQbT+nTTsgbW3L09GxInV1ozNqVNOQd9raVr68m22WlX8AsGMS/gEAAACwXht3htzq/zY0NKahYXg/Lw3QHn/8kbz97QcnSaZOnZo99th/SPtHHnkwU6bslAkTVp+9t2jRkykUSuutoa6uLg0Nozao3pdrbl73dqEv1dvbnb6+1ecOVip9GT16w9/dkmz7CQA7LuEfAAAAAFvN2LHjhlzvtdfUrFixOgzs6+tPc/PYIc+bm8emrW3RYJtRoxqHtVmTtraVmxz+rUul0jskvHz00YfzzneuDi9bW7efVYEAQPUS/gEAAACwXhu3kmzDV5w1N+80+PXLz/F7sc2kwa/Hj/DCugkTdh5yPXXqPq+4z46OFamvH3rOYmdnT5qbd17LG+v2wu+VlX8AsGMS/gEAAACwXhu77edIh0+9vT1ZuXLFOtt0d5dTKpVSU1O7yeM88shD2W23Q5O8OO+NVSgkO+00dDVjT8+yV/T5jfTnDwCMHOEfAAAAAFXn5Sv01qRcrkupVEptbd0mjzN58pTBryuVSsrljdv6s6+vL4sXP51XvWrbOCsQANj+Cf8AAAAAWK8tte3ntqi9fXEaGhrS2dmVsWN3HfJs+fJlKZVe/JHaqlWrBr+uqalJc/OYjR5v1KjN/yO6jVupuX3/fgEAQwn/AAAAAFivjd1GslKppFJZnpqamixfXk6ptHp1XbFYzOjRqwOyzs6Vqa0tDHmvtzdpbHzx7L9yuTP9/d2D1z09vRk7dmIKhUIqlUq6ujrWOH59fUPq6urXWWNnZ2e6u7vT1NQ0eO+ZZ57K9Ol7ZuzYsVm6tC9tbSuHvfPSswnb29vWOcaGKBbr8swzy4fcq6lZd+3rY9tPANhxCf8AAAAA2OxqamrS3V1MT89AmpvHD66WW7FiedraVmbVqvYk3Zk2bZ8h7z3//NBz+rq7y9ljjxe38Fy1alW6u/tTKpXS2dmW3Xdf8/aezz67bEj419a2NA0Nq2sol/vT3DwhjY2NGTNmzJBtP6dNOyBtbQszMJC0t6/K+PG7Deu7ufnF8/n23fe1Wb58dUDY0dGZMWM2fuVfXV1D6uoaNvo9AIA1Ef4BAAAAsF6bspKsqWnssHvjxq0+2665eWx6eoavmiuXy+nufnGcBQseHhL+JUlb28qUSqU8+ujDaw3/urq60tdXTJKsWNGaUaOK2X33vZIkf/rT00lWpqenO+PGTRj27pgxk5Mk48evP8gbPfrFVYCbEvxtKVb+AcCOS/gHAAAAwHpt3BlyL77zcu3tbenrq6S9vS3FYiW77DJuyPP6+vrU178YqE2duu+wPsaMaU6pVMprXjP82QsaGhrS1NQ82L5SaR98NmrUqCGh3caEZNtDqPZCjdt6nQDAliH8AwAAAGCdNiVEWn3m34rU1JSyYkV3isXaJMmSJc9n6tR9M27chLS3t2bRomUve6+Q+pccd1coFAa31UySzs6O1NevXu1XKtVm8eKh24S+qPSyfkt5+unWJEldXeNGzwcAYHsh/AMAAABgvTZuJdlASqVSyuWBFAqVjB7dnJqaumGtxowZvuXmS4O/JGluHj/kurFx9ODXTU1r32aztnbodUPDjhX4WfkHADuu4kgXAAAAAMC24fTTT88dd9yxxmcv3UqytbU1999/f8rl8pD7Lw2cCoVCenr6Ulc3eljw9/zzzw3rv7+/P4sXL9r8k9pBren3ZW2/AIDqIvwDAAAAIEkyb968HHXUUTn00EMzZ86cNba57777Mnv27Nx77735yEc+kra2trX299vfzktHR/uw+//8z18cdq+9vS0XXDB704sHACCJbT8BAAAAeJmWlpbMmjUrM2fOzDnnnJPkxZVkCxYsyF577ZXjjjsuM2fOTG9vb+bOnZs5c+akvr4+Z511Vu6668784he/yMEHH5YZM96UO+64Nb/5zT1ZvnxZzjjjS0PGKpc709fXnc7Olent7c3998/PLbfcmO7ucv7iLw7NMcccl3K5I319PX+uo5jRo8du0fn39HSlWCymv78/dXWjtuhYW4pVfQCw4xL+AQAAMGJqa2szffr0kS4D+LNHHnlkyHVLS0vOOOOM9Pb2DoZJH/jAB3LDDTfk1FNPTZJcfPHFueSSS3L22Wdn7ty5ufnmm/PEE4/lX//11nzve9emq6srTU2jc9JJH8nVV38999//uyQvBlPt7cuz7767Z8WKmtTUJK2tSzNu3Pj83d+dmU9+8q9y9NEfTHv7iuy77+5JkueeW7pFQ61Vq9ozZkxD6urqUi53DxtrewnVtpc6AYDNT/gHAADAiJk+fXrmz58/0mUAf3bIIYdk3rx5SVZ/f86ePTvHH398ZsyYMRgmfe9738tf/uVf5oQTTsiPfvSjzJkzJ729vVm2bFl23333TJ06NaNHj05tbe1gv//+79flLW95Z0aPHpNSqZSenu6sWNGaJGlrWznYrr+/P52dHWlqGvPn+4W0ta0c0qanpyfd3S9eb24rV65IQ8POSZLu7u6Uy6uGPC8WS1ts7M1N+AcAOybhHwAAAACDpk2bNhj6FYvFYc/f+MY35tOf/nR23333LF68OOeff34WLlyYlpaWPPbYY5k9e/i5fZ2dnVm2bEmeeurxHHTQX6Surj7jxk1IkjQ01GfRouVpa1uZgYFCGhubMmrUqDQ3j01tbe2f/1vKokXLkyTFYl2amrbctp/NzWPT21tOpZKUSrUZN27MFhtrWyEkBIDqIvwDAAAAIElyySWX5OCDD15j6PfCyr/99tsv//Zv/5aOjo40NTUlSU477bR0dXWltrY2NTU1Oe64v0qSnH32uUmSb3/7xpTLXWlsXN3+ve/9QHp7e9Lf359CoZSBgVImTJicyy67bsiYV1zxnSTJqFGjB+/V1W3+eb9cbW1DktXh3/bohd8roR4A7JiEfwAAAAAkSWbOnLnWZy8PkxobG4dcNzQ0DLarra3J9ddfNXhvTf74x9+nXC4PXu+559RMmLDTKymfPyuXO1MqlYR/ALCDEv4BAAAAsFn99V8fn56enpEuY4dVU1NK3dZYIgkAbJOEfwAAAACs18ZsI1kqFTNq1NpX/bHlWfUHADsu4R8AAAAA6+UMOQCA7cPw05sBAAAAAACA7ZKVfwAAAACsl5V/AADbB+EfAAAAAOsl/AMA2D7Y9hMAAAAAdmBCXQCoLlb+AQAAALBeVv4BAGwfhH8AAAAArJfwDwBg+2DbTwAAAADWSegHALD9sPIPAAAAgPWy8g8AYPsg/AMAAABgvYR/AADbB9t+AgAAAJAkOf3003PHHXes8dkL4d/AwECWL1+eP/7xj+nu7h5y/+W/li1blt7e3mH3n3/++WH3Fi1alL6+vsHr5557blibxYsXD+uzra0tnZ2d66zDr3X/AgCqi/APAAAAgCTJvHnzctRRR+XQQw/NnDlz1tjmgQceyD//8z/nvvvuy6c+9am0t7evtb/f/e53WbVq1bD7F1544bB7t956a+bOnZskqVQqOffcc4c8r1Qqueiii4b1+aMf/Sj33XffBs0PAGBHYNtPAAAAAIZoaWnJrFmzMnPmzJxzzjlJXlz599hjj2XPPffM+973vrz5zW9Ob29vWlpa8pOf/CR1dXX5+7//+1x99dVZsGBBDjjggBx44IH57//+79x7771Zvnx5vvjFL65xxdmxxx6br371q3nb296Wn/70p3nPe96Tq6++OkuWLEl9fX1OP/30JElra2t6e3vzs5/9LPfcc08WLFiQj3/841awAQD8mfAPAACAHVJtbW2mT58+0mXANuWRRx4Zct3S0pIzzjgjPT09g4Hd0UcfnR/84Ac566yzkiTnnXderrjiinzmM5/J3XffnR/+8If5zW9+k3/5l3/J17/+9XR1daWxsTHHHXdcrr322sFVei8P68aPH59KpZKurq78z//8T2bPnp3f/e53mTlzZr70pS/l1FNPTZI88cQT6erqyk033ZTLLrssV199te0rAQBeQvgHAADADmn69OmZP3/+SJcB25RDDjkk8+bNS7L6e2T27Nk5/vjj8/rXv36wzY033pgjjjgixx57bObMmZO77rorlUoly5cvz2677Za99torEyZMSG1t7ZB3Zs6cmaampnWGdO9973vzgx/8IM3Nzenu7s53v/vdvO9978vo0aPT398/pG2xuPo0mwkTJmzOjwAAYLsn/AMAAABg0LRp0wZDvxcCthcMDAxkxowZOfPMM/PqV786S5YsyezZs/Pcc8/lf//3f/PEE08Mrgh8YTXewMBAurq60tramqeffjptbW2Dz1/urW99a/7yL/8yl156aSqVSsrlcp566qmsWLEibW1tQ/qcNm1avva1r+W+++7L3/7t31r5BwDwZ4UB/zICAGAHN2PGjK2++mckxoRt0Uh+L/g+hOFaWlpy8MEHDwv9DjzwwNx0000plUqD9zo7O9PY2Dh43dXVlbq6uiFtXtDf359yuTykfW9v75DVfLW1tcPG7e3tzcDAQOrq6tZYb3d3d+rr6zdukgxz9NFH59vf/nZmzpw50qUAAJuBlX8AAAAAJMlGhT8vDfKSZNSoUWttWywWh7W//fbbs3LlysHrt771rdlrr72GtHnp1qFrIvgDABhO+AcAAADAer2w3ebm8r73vW+NYwAA8MoI/wAAAABYr80d/gEAsGUU198EAAAAAAAA2B5Y+QcAAADAeln5BwCwfRD+AQAAALBOjz/+eC6++OIUCoWRLoUt4MEHH0xzc/NIlwEAbCbCPwAAAADW6cYbb8xTTz2VFStWjHQpbAFXXXVVdt5555EuAwDYTIR/AAAAAKzTEUcckUqlkr6+vpEuhS2gVCqlpsaPCQGgWvhbHQAAAIB1KpVKKZVKI10GAAAboDjSBQAAAAAAAACbh/APAAAAgKrU2dmZCy+8MP39/UmSBQsW5N57713nO7fffnsWL148eH399dcnSa688sqce+65ufzyy/OHP/xhsP8bb7xxyxQPALCJhH8AAAAAVKXOzs5861vfypVXXplkaPj36KOP5he/+EXK5fKQd9YW/t1www35m7/5mxx++OG59NJL8/3vf1/4BwBsk4R/AAAAAFSt97znPfnlL3+ZZ599dvDeHXfckcsuuyxtbW058cQTh72zYMGCPPDAA3nggQfS09OTJCkUCpk0aVKmT5+eb37zm/nWt7611eYAALAxhH8AAAAAVK2BgYFccMEFOfvsswfv3XLLLfnMZz6To48+OqNHj86yZcuGvPPLX/4yd9xxR+644450dnYO67OmpiYdHR1bvHYAgE1RM9IFAAAAAMCWtOeee+b1r399fvjDH2bGjBlpaGgYDPXK5XLq6+uHtP/oRz+a173udUmSH/7wh8P6+/nPf579999/yxcOALAJhH8AAAAAVL2///u/zyGHHJIZM2bkE5/4RM4777zsvffe2W+//TJ69Oj1vt/R0ZFPfepT6e3tTblczte//vUMDAzkt7/9bU4++eQkyQknnJAjjjhiS08FAGCdCgMDAwMjXQQAAIykGTNmZP78+VU/JmyLRvJ7wfch7NgGBgbS3d2dhoaGkS4FAGCzcuYfAAAAADucQqEg+AMAqpLwDwAAAAAAAKqE8A8AAAAAAACqhPAPAAAAAAAAqoTwDwAAAAAAAKqE8A8AAAAAAACqhPAPAAAAAAAAqoTwDwAAAAAAAKqE8A8AAAAAAACqhPAPAAAAAAAAqoTwDwAAAAAAAKqE8A8AAAAAAACqhPAPAAAAAAAAqoTwDwAAAAAAAKqE8A8AAAAAAACqhPAPAAAAAAAAqoTwDwAAAAAAAKqE8A8AAAAAAACqhPAPAAAAAAAAqoTwDwAAAAAAAKqE8A8AAAAAAACqhPAPAAAAAAAAqoTwDwAAAAAAAKqE8A8AAAAAAACqhPAPAAAAAAAAqoTwDwAAAAAAAKqE8A8AAAAAAACqhPAPAAAAAAAAqoTwDwAAAAAAAKqE8A8AAAAAAACqhPAPAAAAAAAAqoTwDwAAAAAAAKqE8A8AAAAAAACqhPAPAAAAAAAAqoTwDwAAAAAAAKqE8A8AAAAAAACqhPAPAAAAAAAAqoTwDwAAAAAAAKqE8A8AAAAAAACqhPAPAAAAAAAAqoTwDwAAAAAAAKqE8A8AAAAAAACqhPAPAAAAAAAAqoTwDwAAAAAAAKqE8A8AAAAAAACqhPAPAAAAAAAAqoTwDwAAAAAAAKqE8A8AAAAAAACqhPAPAAAAAAAAqoTwDwAAAAAAAKqE8A8AAAAAAACqhPAPAAAAAAAAqoTwDwAAAAAAAKqE8A8AAAAAAACqhPAPAAAAAAAAqoTwDwAAAAAAAKqE8A8AAAAAAACqhPAPAAAAAAAAqoTwDwAAAAAAAKqE8A8AAAAAAACqhPAPAAAAAAAAqoTwDwAAAAAAAKqE8A8AAAAAAACqhPAPAAAAAAAAqoTwDwAAAAAAAKqE8A8AAAAAAACqhPAPAAAAAAAAqoTwDwAAAAAAAKpEzUgXAAAAAMDmdd555wsfS6cAACAASURBVGXRokUpl8sjXQo7mEKhkP7+/lxwwQWZOHHiSJcDADsk4R8AAABAlbniiivyrW99KzU1fvTD1vfBD34wZ511lvAPAEaIfwECAAAAVJlJkyZl1qxZwj9GxN57753W1taRLgMAdljO/AMAAAAAAIAqIfwDAAAAAACAKiH8AwAAAAAAgCoh/AMAAAAAAIAqIfwDAAAAAACAKiH8AwAAAAAAgCoh/AMAAAAAAIAqUTPSBQAAAAC83OLFi9PT07NVx5wyZUoKhcJWHRMAADY34R8AAACwzdl7771z2GGHbbUw7vbbb8/zzz+fXXbZZauMBwAAW4rwDwAAANjm7LPPPrn11ltTU7N1fnRx0EEHZfny5cI/AAC2e8I/AAAAYJvT39+/Vcfr6+tLa2vr4HVPpT9PLuvMorbutHX1pre3kmJ/f5pqCxnfWJepU8ZlbFP9Vq0RAAA2hPAPAAAA4CWeWtaZx5d0ZNexDTlwSnOa6kupKRXT1z+QjnJvnm/tyN2/fzo7j6nPG6e9OsWicwIBANh2CP8AAAAA/qyrpy+rypUcus9OqS0VhzwrFQtpbqxLc2Ndpk4el/kPL8zytq7sNK5xhKoFAIDhhH8AAAAAfzaqrpRpU5oHr/sHkvZybzq7K2moLaZ5VF1KxUKKxUIOeu2UEawUAADWTPgHAAAA8DIDA8kTSzvy6JKO1JSKqS8V0tVZTnt7V/aY2JQD9t41pWJx/R0BAMBWJvwDAAAAeJlV3ZV09vTlrfvunPqaF0O+nkpfHljwfJ5ftiqTJzavowcAABgZwj8AAACAlxnTUJPpU4aHe3U1pRy0/+QRqAgAADaM8A8AANgg999/f9785jdnYGAgo0aNGulyGGGVSiWdnZ255JJLcvrpp490ObBFLe/oyRNLOzJpdF1etVPTSJcDAADrJPwDAAA2SF9fX7q7u5MkRx111AhXw0ibP39+nnzyybS2to50KbBFlXv7cs9jrWnr7MnDHR054o17ZMLYxpEuCwAA1kr4BwAAbJTLL788n/70p0e6DEbY/Pnz84Y3vCGdnZ0jXcomW758+UiXwHags6cvAwN/vhhIVrSXhX8AAGzTiutvAgAAANVn7733HukS2AAdHR2pVCob3L5SqaSjo2OzjT+usS7jG2uTJGNH12e3SWM3W98AALAlCP8AAADYIZVKpZEugSSnn3567rjjjrU+v+666/LQQw9tcH8PPfRQrrvuus1RWpKkWEgO2XunvPf1k3PkX+yV2ppt68/N+j6/NVm6dGl6e3uH3f/Tn/6Uhx9+eHBVbGdnZ1auXLnWfhYuXLhxxQIAsFUI/wAAABgR9957b5YsWZJ77713RMafOnXqiIzLUPPmzctRRx2VQw89NHPmzFljm9tuuy1f+MIX8uijjyZJvvnNb+af/umf8sADD6zxOknK5XIuvvjifO1rX0ulUsm8efNyzjnn5Oqrr06SXHXVVTnvvPNy4YUXrrfGQpLRDTUpFgqvcLab34Z8fi936aWX5tlnnx28/vznP58kOemkk3Lbbbfl7LPPzre//e08/fTTeeihh3LbbbelpaVlWD+nnXba5pkEAACblfAPAACAre7ee+/Nm9/85ixcuDBvfvObRyQAPOCAA7b6mKxdS0tLZs2atcYQ68ADD8wXv/jFfPWrX82vfvWrlEqlfOlLX8rll18+7PoFl19+efbdd9+MGTMm3//+9/OmN70pJ598cu68884kyc0335wvfOELWb58eRYtWrRV57olrOvzu/7663Puuefm7LPPzlNPPZUkGRgYyFe+8pXcdddduf322zN//vzsvvvuOfPMM/PZz342DzzwwODKv5tuuin/8R//kZ/85Cf5h3/4h5x55pnp6+tLkvT39+eUU07J5z73uZx77rlbfd4AAAxXM9IFAAAAsOO566670t/fn2R1ePD+978/u+6661av49prr93qYzLUy7f0bGlpyRlnnDHknL9ddtklo0aNSl9fX1asWJEpU6akUCikv79/2PULlixZkilTpmSXXXbJ9OnTc8opp2TWrFmD5wHuueeeKRQK2XnnnVMul5Mkt9xyS0499dStMOvNZ0M+vwULFuTYY4/Nvvvum7POOisTJkzIaaedllNPPTWHH354ZsyYkRkzZuTBBx/MySefnGeeeSYnnXRSli1bloULF+awww7L/vvvn5tvvjkHHnhg9ttvv/T09CRZ/f37xBNP5Pbbb89f//Vfp7e3N7W1tVv1MwAAYCjhHwAAAFvd4YcfnmKxmP7+/hSLxdxyyy056KCDtmoNV155ZU455ZStOibDHXLIIZk3b16SZPr06Zk9e3aOP/74IX8e/vM//zM/+MEP8s53vjNve9vb8vnPfz6/+93vsv/++w+7fsGHPvSh/Mu//EumTJmS/fbbL5VKJQ8//HA6OzvXWsv73//+XHDBBVtuslvAhnx+STJx4sSMGjVqMBR85zvfmdtvvz1HHHHEYJvXvva1ueaaa5IkRx55ZD772c8O6eOUU07JAw88kPPPPz9f+cpXBu/vsssuSZLGxsb09fUJ/wAARpjwDwAAgM2ip9KfJ5d1ZlFbd9q6etPbW0mxvz9NtYWMb6zL1CnjMrapPkly0EEH5de//nWOOeaY3HbbbVs9+EuS+++/f6uPyZpNmzZtMLQqFoeeUPLpT386SVKpVFJTs/rHGJdffvk6r1/3utclSa644op0d3envr4+3/72t1OpVHL22WcnWX3mX5KceeaZW36CW9i6Pr8XfPnLX059fX0+8pGP5Mc//nGOPfbYXHPNNbnrrruycuXK/OpXvxpc+dfb25v3vOc9g+9Onjw511xzTQ444IA8++yzaWpqyrhx47bW9AAA2EjCPwAAAF6xp5Z15vElHdl1bEMOnNKcpvpSakrF9PUPpKPcm+dbO3L375/OzmPq88Zpr06xWMhBBx2UiRMnjkjwlySPPvroiIzLUJdcckkOPvjgtYZWL3gh2NvQ6xfU19evt82GamtrS3d3dyZOnLjeto8++mimTp36isbbEBv6+X3hC1/Ibrvtltra2rzlLW9Jkpx33nlJVq8CHBgYyMMPP7zW94888siUSqWsWrUqjY2NKRaL+c///M8kq88UTDK4ahAAgJEl/AMAAOAV6erpy6pyJYfus1NqS0MDiFKxkObGujQ31mXq5HGZ//DCLG/ryk7jGkeo2hf19fWNdAkkmTlz5kiXsMHuvffePPHEE/noRz+aJJk/f36am5szd+7c3H777Zk0aVJWrlyZb33rW3n22Wfz6le/OnfeeWfe+973Dunn5ptvTnd3d0488cRXXNOGfH7HHHNMJk6cuNbtOAuFQgqFwjr7KJVKSZLRo0dvfJEAAGxVwj8AAABekVF1pUyb0jx43T+QtJd709ldSUNtMc2j6lIqFlav9nvtlBGsdKgFCxaMdAls437729/m3//93zN69OhMmjRp8EzBn/3sZ1m6dGl++MMfZsqUKdlrr73ysY99LLNmzcopp5ySVatW5ac//Wkee+yx3HTTTZk0aVK+853vpLa2Nscff3wqlUp6e3tzzTXXpLu7O3/84x9zwgkn5O1vf/sWmcfBBx+8RfoFAGDbJPwDAABgsxgYSJ5Y2pFHl3SkplRMfamQrs5y2tu7ssfEphyw964prWdrwq1p/PjxI10C27j29vbstNNO+dznPpfjjjsu+++/f373u9/loYceygUXXJBnnnkmhx12WObPn5/vfve7ufPOO1Mul1NfX5/HH38873//+7N06dKsWLEihUIhn/jEJzJlypQ888wzSZJFixblrW99az7wgQ/k61//+hYL/wAA2LEI/wAAANgsVnVX0tnTl7fuu3Pqa14M+XoqfXlgwfN5ftmqTJ7YvI4eYNszduzYJBk8U2/JkiWpra1Nf3//kHYf/vCHM2vWrNx+++254YYbhjx717velSlTpuRf//VfM2XKlOyyyy6Dz3bdddfU1dWlUqls4ZkAALCjEP4BAACwWYxpqMn0KcPDvbqaUg7af/IIVASv3Ny5c9Pe3p499tgjSXLEEUfkNa95Tc4///xMmzYt1157bQ466KBcd911+dnPfpZnnnkm5513Xn7+859n0qRJ+elPf5opU6Zk3rx5GT16dJqamkZ4RgAAVDvhHwAAAJvd8o6ePLG0I5NG1+VVOwk72H7NmjUrJ510Uurr64fcf9vb3pYked/73peampqcfPLJQ55ff/31SZJbbrklNTU1+eAHP5j+/v40NDSscZyLL7548xcPAMAOSfgHAADAZlXu7cs9j7WmrbMnD3d05Ig37pEJYxtHuizYaHvuuWfGjRs3LPh7qZqadf9o5YXndXV1m7U2AABYG+EfAAAAm1VnT18GBv58MZCsaC8L/9gu7bnnniNdAgAAbLTi+psAAADAhhvXWJfxjbVJkrGj67PbpLEjXBEAAMCOw8o/AACAKvLcc8/lVa961ZB7ra2tWbx4cerq6rLHHnukVCpl6dKlGTt2bGprawfbLV68OE8++WQOOOCAtZ5LtiGKheSQvXfKAa8em8b6UoqFwib3BQAAwMax8g8AAKBKVCqVfO5znxu8vu2229LS0pJrr7023/jGN3LjjTfmmGOOSblczj333JP29vZ8/vOfT5Jce+21Offcc3Pffffl2GOPzSOPPDKs/xf62xCFJKMbagR/AAAAW5mVfwAAANup/v7+fPKTn8xuu+2WXXfdNSeffHKS5Pe//31aWlrS0tKSCRMmZPLkyTnppJPylre8JQsWLEh7e3uWLl2a++67L7fffnuOO+643Hzzzbn11luTJO9+97sze/bsHH744Tn66KPT09OTO++8M3fddVcmTJiQmTNnjuS02UF0dnbmmWeeSU3N1vnRxcqVK7fKOAAAsKUJ/wAAALZT/f39Wbx4ca655pp88YtfzNNPP52HH3445557bm644YaUSqXsv//+ueeee3LhhRdm/PjxWblyZYrFYhYsWJB3vOMdmTFjRnbZZZdMnjx5sN8999wzS5YsyYIFC1Iul1Mul/PYY4/lsMMOy/777z+khvvuuy8zZszY5Dn84Q9/2OR3qW77779/PvzhD6enp2erjFdfX58JEyZslbEAAGBLEv4BAABsxyZOnJgkGT16dLq7u1NXV5fm5uY8/fTTQ9r94z/+Yw477LDceOONufnmm4c8mzRpUp588skMDAykUCjkwQcfzB577JFisZj+/v6Uy+W1jv/6178+F1100eafGDu86667Lq2trWltbd0q402YMEH4BwBAVRD+AQAAbMd+/vOf59xzz82yZcsyderU7LXXXrngggvyt3/7t/n4xz+ea665Jq973ety4YUX5jvf+U6WLl2aK6+8MldccUWS1Vsdzps3L6eddlpOOOGE7L777nnyySfzjW98I7/+9a9z9tlnZ8KECdl5550zefLkXHPNNTnssMNGeNbsCIRxAACwaYR/AAAA27HDDjss//iP/5iGhoYkyfXXX58k+cEPfpAkmTVrVkqlUs4888wh75133nmD7QYGBlIsFnPkkUemvb09Y8eOTZIcc8wxefe7351Ro0YNvnfkkUdu6SkBAADwCgj/AAAAtlOlUin/9//+38Hgb21t1qVQKKRQKCRJisXiYPD3gpcGfxvSHwAAACOrONIFAAAAsGkKhULe9a53jXQZAAAAbEOEfwAAAAAAAFAlhH8AAAAAAABQJYR/AAAAAAAAUCWEfwAAAAAAAFAlhH8AAAAAAABQJYR/AAAAAAAAUCWEfwAAAAAAAFAlhH8AAAAAAABQJYR/AAAAAAAAUCWEfwAAAAAAAFAlhH8AAAAAAABQJYR/AAAAAAAAUCVqRroAAAAAqkNPpT9PLuvMorbutHX1pre3kmJ/f5pqCxnfWJepU8ZlbFP9SJcJAABQ1YR/AAAAvGJPLevM40s6suvYhhw4pTlN9aXUlIrp6x9IR7k3z7d25O7fP52dx9TnjdNenWKxMNIlAwAAVCXhHwAAAK9IV09fVpUrOXSfnVJbGnq6RKlYSHNjXZob6zJ18v/P3p3HRVWvDxz/zMLMsO+4gDsqmuRSai6Zcr2p18wkNSuX1OqWKVauuaG555JbWV0062qmV82SsLxe6/66pUbikluJ4oqKKMLAMMz6+4OYGAFFBQb0eb9evvSc+Z7vec44c2bmPOf7ffw48FsqGVm5BPp5uChaIYQQQgghhLi3SfJPCCGEEEIIIcRdcdeoaBrq41i22UFvNGPIs6BzU+LjrkGlVKBUKmjVJNSFkQohhBBCCCHEvU+Sf0IIIYQQQgghyoTdDqfTczh5JQe1SolWpSDXYESvz6VOsCeR4dVQKZW37kgIIYQQQgghxB2T5J8QQgghhBBCiDKRnWfBYLLyaKMgtOo/k3wmi5XDyZe5fDWbmsE+N+lBCCGEEEIIIcTdkuSfEEIIIYQQQogy4a1T80Bo0eSeRq2iVURNF0QkhBBCCCGEEPcfSf4JIYSoEmbNmsWlS5cwGo2uDkUUw263M2/ePIKDg10dihBCiEoiI8fE6fQcqntpqBHo6epwhBBCCCGEEOK+Ick/IYQQVcJ7773HP/7xD9Rq+eiqjJ5++mnGjx8vyT8hhBAAGM1W9py6RpbBxG85OTz+UB0CfD1cHZYQQghxX7Hb7eSkppK1ejW2xES4ft2xvjQUCgV2Dw+sDRuiefZZfJs3x8PDA4VCUZ5hCyGEKANyBVUIIUSVUL16dbp37y7Jv0oqPDycq1evujoMIYQQlYTBZMVxXdEO1/XGSpn8y8jIcHUIQgghRLmwWCxkbN6MdeFCfAYNQjtpEqr69UGpvPXGhdguXsSclMT1CRNIbdcOvzFj8A8MlN/mQghRyclZWgghhBBCCCFEmfLz0ODv4YY+14Svl5Za1X1dHVKxwsPDXR2CEEIIUebsdjvXNmxAsWkT1f7zHxQ+RevxlpYyKAh1ZCTuAweSMXMmVydOhHfeISgoSEYACiFEJXZ7t3oIIYQQQgghhHC5ixcvFrveaDRy8OBBrv8xrdftSktLIzEx8a5r7CoV8Eh4ID2b16Rbm3q4qVV31V95UakqZ1xC3I7Ro0fzzTff3NY26enpmM3mIuttNhtHjx7l/Pnztx1HWloaFovltrcTFa+kz5CbKavPB1G2Snr/55w7h23JEoL++c9bJv6y33mHrFGjMH755c13plLhHxuLZ3o6l+LjMRgMdxO6EEKIcibJPyGEEEIIIYSoYsaNG+f498WLF1m+fDm5ubkMGjSIxMREXnvtNfbs2cO2bdvYvXv3TfuaNGkSAKtXr2bGjBkcPHiQ6OhoTpw4UaRtaforoAC8dGqUlXhUQIMGDVwdghB3be/evfTo0YP27dvz7bfflmqbJUuWcOHCBcdywXlg9OjR7Nq1i+XLl7N8+XLH+eVmCradM2cOly5dusOjEBWp8GdIYQX/lzcq688HUXZKev/rP/wQ71deQeHlddPtLcePo1Cp8Fm+HENcHFitN9+hQkHwwoV4rFp1xzcaCSGEqBgy7acQQgghhBAuILXGxO2YNWsWJpMJhULBlClTAMjMzGTx4sXUqVOHL774gq5du6JQKHjyySeJjo4mLS2NDz74gICAAPz9/YmLiyMjI4OYmBj279/Pvn37ePDBB0lISKBv375s3bqVr776CoCuXbsybdo0oqKieOKJJzCZTOzcuZNdu3YREBBAu3btXPl0lJnIyEhXhyBEmdm9ezfdu3enXbt2xMbGOj22Zs0azpw5Q25uLiNGjADypwWcOXMmHTp0ICEhgf79+5OSksJrr71GREQEP/30E99++y1ffPEF0dHRrFixgpycHB555BGaNGnChx9+SIMGDUhISKBNmzaOfc2ZMweTyURqaipLlizBw6Py1fu8Xy1btoy0tDSOHTsGwKJFi7h06RI6nY5+/fo5Xgf/+c9/HOunT59+X34+VDU3vv+b7d2L9tlnb7mdOiICdUQEhg8+QBkUBKUYEa9u1AhtSgoZGRmEhoaWRfhCCCHKgST/hBBCCCGEcAGpNSZux759+9iwYQP//e9/+fzzz8nNzeWZZ57hk08+Qa/Xk5qaSpMmTRg5ciSTJk3i4sWLzJ07l44dOxIREUF2djYvvvgiP/zwA5s3b8ZmszFw4EDatm3Ljz/+SEhICDVr1nTsr27duly5coXk5GSMRiNGo5FTp045+ivs0KFDPPzwwxX9lJSZ1atXuzoEIe7K8ePHnZZ3797NmDFjnKbgTE5OJjo6mkaNGjF+/HgCAgKIiYlh1KhRREVF0aJFC1q0aMHy5ct57733OHLkCIMHD6Zjx46OKUD79OmDyWRizpw5vPnmm9SrV49x48Zx5MgRnnrqKb7//nsAfvrpJ7744gtWr17NTz/9RNeuXSvsuRAlO3fuHBcuXGD+/Pns378fq9VK8+bNiYqKYsSIEcyYMYMWLVoQGRlJenq6Y/1LL710x58PX375JaNGjaroQ72vlPT+f1ehoEaNGqXuR924Mcavv8Z68iSqW42KVyiwe3hgysu7k5CFEEJUEEn+CSGEEEII4QKVvdbY6NGj6dGjB927dy/1Nunp6fj6+uLm5ua0PjU11enCobh9Pj4+aDQavL29OX36NCaTifbt2/PDDz/QokULABITE7HZbMTFxXH16lUmTpxI27ZtAdi+fTtubm7UrFkTm80G4HS3fvXq1Tlz5gx2ux2FQsGxY8eoU6cOSqUSm8120xpPDz74IAsWLCjHoy8/77//vmMUlBBV1SOPPMLevXsBeOCBB5g2bRr9+vWjVatWTu2Cg4Nxd3d3JAW7dOlCQkICjz/+OAAGg4Ht27ezcOFC7HY7/fr1o3Xr1kB+guHzzz/n6aefRqPRAJQ44sfPzw83Nzc8PT2lBmAlkp2dja+vL5D/WsjIyOC9997j2WefxcfHx/HZcOP6kJCQO/586N27N/PmzauQ47tflfT+P//001gOHkQTFXXT7S2HD2PLykLTpQvapCTMR4/eMvlnz8kBkwn1Dd/3hBBCVC6S/BPiNpgsNs5cNXApK4+sXDNmswWlzYanmwJ/Dw0NQv3w9dS6OkwhhHA5OV+KqiQpKYkrV66QlJRU5EJpearstcb27t3LsmXLHNNHdevW7ZbbLFmyhBdffJG6desC+bWD5syZQ0xMDJs2bSrniO9tly5dYvLkyaSmprJgwQL++9//MnXqVKKjo4mMjGTXrl0MGDCAhQsXsmnTJq5cucKrr76KwWAgLi6O0NBQzGYzv/76K3l5efj4+Dj6zszMZO/evcTExNC/f39q167NmTNnWLFiBYmJiUycOJGAgACCgoKoWbMmcXFxdOzY0YXPRtn59ddfXR2CEGWiadOmjov+SqWy2DbTp09Hq9UyZMgQtm/fTnR0NHFxcezatYvMzEz2799PSkoKL774IgAdO3bE39+fXbt2Ua9ePfLy8tizZw8Gg8Gp3+rVq8sI2iqgcePGnD17lhkzZvDzzz9jtVrJzc0lJSWFa9eukZmZSWZmJrt373Zan5OTc19+PlQlxb3/7T17ot+8mcBbJP+UYWHoX3iBvGbNsCYn4/Haa7fcX+7XX3OtTRv8/fzKJH4hhBDlQ2G32+2uDkKIquDsVQMpV3Ko5qujhq8OT60KtUqJ1WYnx2jm8rUcks9dJchby0NNw1AqFa4OWYh7SsuWLUlMTEStlvtWKqPmzZuzcuVK2rdvL+dLUaUkJSXRunVrbDYbSqWSxMTECksAVvYRR4XvJAdo164dAwcO5LXXXmP58uWMHDmySA2pjz76iOHDh7N27Vo6dOjAm2++yZo1a5g1axYbN25k5MiR+Pr6otPpitSjEjc3cOBAVq1ahUajQaEoet60Wq2O0aQGgwF3d3dHu4LHsrKynJJ+Bex2O3a73TGKQ6/XO0aHAOTm5uLu7l5kXwcOHKBly5aMHTu2yo78e/zxx9mxY4erwyhT58+fJzg4GK22+JtsCs534t6xe/du2rZtW+T/tfD35ylTpjBs2DBq1apVZHQ2OJ8HzGYzdrvdMcKv4D2fk5ODu7t7sa+fwucgUbkZjUZ0Oh0AJpMJu93uOF8UvA4sFovTeuC2Ph8g//fBBx98UGINwJMnT97RjVAFIxBFvpLe/1mZmWT060fNWbNwK1STsyR2vR6Ft/ct29kyMjjbuTNp775LxMMPF/u9QgghROUgV1CFKIVck5Vso4X2DQNxUzl/oVIpFfh4aPDx0NCgph8HfkslIyuXQD8pai6EuP/I+VJUNbt27XJMc2Wz2ejduzfVqlWrsP1X5pESxdWQSUtLc1pX2hpSkP/8nj59moSEBJ577jnMZnOxF6BF8YYMGVJiMgecp5H18PAo9rGSLtApFArHhVSlUul0YRdwurB7476qOqvV6uoQylxcXBwvvPCCYwTu5s2befrpp/niiy/4/vvvcXd3Jy0tjdWrVzseK8mBAwfw8fHh0KFD5OXl8cwzz1TQUYjbUVJypbBevXoRHBxc4nm38HngxjYF73lPT88S+7+Xzgv3uoLEH+BI8BYoeB3cuB7K/vMhNjaWtWvXOq3Ly8tj586d9OzZs0j7OXPmcO7cOUd8ixcvLpLwKjhn1a9fv9RxVHUlvf+9vL3RL1jApZdewv/VV/F64QW4SdK0NIk/008/cXHkSC69/DK1IyLw8vK607CFEEJUAEn+CVEK7hoVTUP/vFhis4PeaMaQZ0HnpsTHXYNKqUCpVNCqSfF1D4QQ4n4g50tR1URFRTlGOymVSr788ksZ+feH4mrINGzY8LZrSBUWEhIC5CenrFarJP9uw1//+ldXh3BPSk5OdnUId+2jjz7i+vXrXLhwwSk5t3z5ctq1a8f8+fPRarVs376dsWPH0qhRI86fP8+vv/7K/PnzCQ8PZ/PmzZjNZry8vJg8eTJDhgyhRYsWHDx4kNDQUFq2bInZbCYuLo688PHo7gAAIABJREFUvDyOHj1K//79eeyxx1x45OJ2FNT/FMKVMjIymDRpEo0bNyY7Oxu9Xs/48ePRarV07tyZ69evs3nzZiIjI5k7d65jfe3atcnOzmblypVA/nlvy5YtXLlyxXEDw+bNm9m7dy+hoaHMnj3blYdZKSiVSoKbNOHKhg2kzpyJ5/z5qCIicAsPh9sc/W29cAHTwYNkBweTMWMGtVu1IigoSEaRCyFEJSfJPyFug90Op9NzOHklB7VKiValINdgRK/PpU6wJ5Hh1VDJlx8hhJDzpagyWrVqRWJiIr169WLbtm0VWvOvKtQau7GGzIEDB4q0uVUNqR9//NEFkQtROv7+/q4O4a6lpqbSrVs3WrZsyUsvvUSDBg2Ii4ujefPmPPzwwzRq1IgnnniChx9+mPnz55Oenk6zZs2YMGECjRo1onnz5mRmZpKVlcX8+fOZPHkyaWlpvPHGGyxZsoSOHTty+vRpIL/25KOPPkqfPn1YtmyZJP+EELdl27Zt9OzZk549e7Jjxw5UKhXR0dFkZWWxbt06Jk+eTHp6OkFBQU7re/fu7fQdrXXr1sTHx5OXl4fJZALgwoULtGjRQmoOFqLRaKheuzZZixaRfv482b/8gjU93THrRanVqYNiyBD86tUjIigIHx8fGe0rhBBVgCT/hLgN2XkWDCYrjzYKQqv+86K1yWLlcPJlLl/NpmawzHfucnb7TaezEEKUPzlfivJUmlovt1MPplWrVgQHB1do4g/ya91UZu+++26xNWRuNHnyZEcNqQ4dOgAwa9YsIH8UoN1ud6xfs2YNkD8toRCi7Pj6+qLRaBwjcA0GA7/99ptTm0uXLvHuu+8CMGHCBMcNCGlpaaxYsYLp06c7powNDAwscV/VqlVz2pcQQpSW0WhEq9WiUChwc3Nj586dJCUl8cwzzzglpG5c36BBA7Zt20bfvn0BOHjwII0bN+bw4cPYbDY5H92ESqXC398fPz8/LBERWK1WbDYbdru9VNsrFAqUSiUqlQq1Wi31FoUQogqR5J8Qt8Fbp+aB0KIXqzVqFa0iarogonuf9dQprg8Zgtsf09S4DxhA7vr1eI4ZQ/a0afnz0qtUKAMC8HzjDbJiYlB4eWHLyEDToQMeL71UpM+sMWPwHDMGVU35PxOivMj5UpRWp06daNOmDZB/F7dWqyUvLw+j0UhCQgK1atUC8hNMK1euvGWtl9zcXGJiYvDy8iIjI4MOHTrwUjGfBbeqc1URKnutsbKuISWEKD/r169Hr9fTp08fjh49SkxMDJ9//jm7du0iJCSE9evXc/bsWVauXEloaCiXL18mPDyc7OxsDhw4gF6vJyEhAS8vL3bv3u3ot3bt2qxevZqoqCgXHp0Q4l4RFRXFpEmTOHjwIDabDU9PT1JSUoiPj3ck8L777jtq167ttL5OnTrY7XZGjRqFTqcjNzeXpUuXolarmTdvHnXr1sVutzvOWQ8//LCLj7TyKUi4ypTrQghx/5DknxB3KCPHxOn0HKp7aagRWHLhc3F37DYbmg4d8J43z7HOsGYN2GzYjUZ8VqxA8UfB8pzFi9H164f2jxpD1wcPRterF8rq1Z37zMsDmw39tGmoqlfHtGcPPosWoQwOrrDjEuJ+IudLcTMhISEsXLjQsbxp0ybMZjNms5mhQ4fSvXt3AJKSkoqt9VJwB3iBlStX0q9fP0e9ucGDB/O3v/2Njz/+mClTpjBr1ix69+7tqHPVvHnzCjrSou6FWmNSQ0qIymH48OHUqFEDrVbrWDdx4kQg/2K7xWJBrVY7zq8FI/w2b96MUqmkS5cuKJVKxo4di91udyT/o6OjefLJJ1Gri146KHzuFkKI0ggPD+ezzz5DoVAwduxYADp06IBOp2Ps2LEoFAq+/PJL1Go1Tz75pNP6uXPnYjKZsNls6P64BhAdHc3f/vY3xzLAk08+6ZJjE0IIISobSf6Je4LdbicnNZWs1auxJSbC9euO9aWhUCiwe3hgbdgQzbPP4tu8OR4eHiXeqW40W9lz6hpZBhO/5eTw+EN1CPD1KLPjEc7yvvsO+x8/DDyGD3d6TP/WW6BSoapVC8vRo7gPHux4zK1lSywnTqC5IflXwLx/P17/+hcKPz/M+/ah/eMCsxCi7Mj5UtzK2bNnHRd/Onfu7PRYXFwcO3fuBKBZs2bF1nq50dGjRxlc6LOgZcuWnDhxwlGv6vTp0zRp0sRR58qV7oVaY0II1+vcuTN+fn5Oib8bFSTvbhz1UVCzqfC6G38DFZf4E0KIO3XjOaUgcVdw7il4/Mb1kF/D7kaFE3/F9X+vsBuNZBe6KRpA27UrmlvUOLQcPUruxo0o3NxQhYej69MHRTHPI4DtypVS3xRt1+sxrF6N9fRp3Fq2xH3gQChmqnh7Xh7k5aHwkZIPQghR0e7NT0RxX7FYLGRs3ox14UJ8Bg1CO2kSqvr1i/3ScTO2ixcxJyVxfcIEUtu1w2/MGPwDA4v94mgwWXHkFe1wXW+Ui9nlSNuli9PIv8K85851jPzLnjsXc1KSY+Sf5fBh3AcMKLFfpa8vCp0u/4uv1AgQolzI+VLcSu3atYuM/Cvw4osvOkb+7d69u9haLzdq0KABSUlJjpF/hw8fpl+/fo46MiaTqdyORQghXOHGGyeEEELcexRaLZ6vvIIlOZnc1avxnjMHhZcXlqNHUTdtij0zE5tejyoszGk7y9GjKLRa3AcNwrxvHxm9e+O/dSsKNzdMe/agcHPDrXVrLL/9RnZsbP7sSu7umPfuRVm7Nurw8KLBWCxk9OmD1+TJuD//PMaNG8l89VV8P/wQy++/o27UCNv165CXh3HbNmxXruA5ZkyJSUchhBDlQ5J/okqz2+1c27ABxaZNVPvPf+7qTiJlUBDqyEjcBw4kY+ZMrk6cCO+8Q1BQUJG7X/08NPh7uKHPNeHrpaVWdd+7PRRRBjxHjiTzlVcw7dqFLTMTt1atUNao4eqwhLivyflSlJV27drx1VdfFan1cqORI0fyyiuvsGvXLjIzM2nVqhVhYWFcu3aNZcuWcfbsWex2O9nZ2ezZs4dHHnnEBUcjhBBCCCHEbVAoUFavjvL6dfDwcJQ3McTF4f7CCxiWLMFr8uTiN/X2RhUWhiosDOuJE+Tt2IH1t99Q+PtjO38e0969uDVtit1gALOZzDFjcH/+efRvvYXX1Km4PfigU3+mH3/ErW1bNF26AOAxYgRXO3XCbjSiHz8e/61bMf/vf1hOn8aWlgY2G5RyZi4hhBBlR5J/okrLOXcO25IlVPvuOxReXrdsb/j4YzQPP4w6MrLkRioV/rGxGJ98kkvx8Xj074+np3ONKqUCHgkPJDLMFw+tCmUJ04OKu6cODy8y6s93xQoA/NaudVqv8PbGb9067AYDCq0WVKr82oCFR3kolUW2191QL0q4Vtbo0Wh79LjpNKxHjhxh3759TlP7ibKRkpLCzJkzMRgMBAcHM2vWLHx9iybs0tLSSEtLo1mzZjftT86X4lYKj/QDitTwK6y4Wi9Go9Gpjbe3N+vWrcNgMKDVah1T2m3ZsgWLxUJMTAzwZ50rIYQQQgghqirv2bO51qMH7s8+i6pBg1u2V/j4YLtyBW2vXhg3bsSWlYX90iV0TzyBsnZtlDVq4D54MKYffgCrFcuxY0WSf7b0dJQBAc79+vpiz8kpsj91/foovLzyr9EIIYSoUJL8E1Wa/sMP8XnllVIl/vSxsRj/9S/UH310644VCoIXLsQwfDjXH3+8SPIPQAF46eQtVBkpPP6cUtBy8iR5337rWFb6+eXPRS8qLdPeveQsW4amXTu8YmPRdutWpE1GRga///47165dQ61Wc/r0aSIiIoqtASFKLy8vj6FDh7J27VrCwsL45ptvGDp0KFu2bOH8+fOEhYWRnZ2N1Wply5Yt6PV6mjRp4kiulETOl6IsFX6fGwwGVq9e7fT40KFD8fT0xMPDeXpZpVLptO2tXrdCCCGEEEJUdtbz51GFhWE+dKgUja0Yv/gCn+XLyXrlFfw2bcJ68iSGf/zD0cR29So5ixYREB9PzrvvFjtiz+3hhzGsWoXnmDFAfv0/e2YmysDA/FF+gE2vL5sDFEIIccfkSpyo0mx796J99tlStfUYPBilt3ep+1Y3aoQ2JYWMjAxCQ0PvNEThYuqGDVE3bOjqMMQdMO3ezbXu3R1JwOKsXr2affv20bp1a6ZOncqXX35ZwVHeW37++Wc6duxI2B91Irp3786sWbPQ6/W88sorxMfHs3PnTtLT00lJSeHKlSuYzWZJogiX8fDwYOTIka4OQwghhBBCiIpntaKfPBm/VaswrFqFccsWdNHRRZoZN2zAcvgwtitXcH/+edTh4SirVSNnwQIUPj5Yjh8HwHLgAJajR7Hr9WTPnIndYMC8bx/uAwY49aeqUwfd00+T0bs3qtq1saSk4LN4cf6DOh36qVOxXbqEunlzVOHh5LzzDppOnVCGhJT7UyKEEOJPkvwTVZteX+qabqWZ/sCJQoHdwwP1+vWkFxo5JoQoXwU/PAqYdu8ma8wY6lksxbYfPnw4Xbt25d///ndFhHdPy8jIwOuGkdQBAQFFplUEaN26NUaj0TH1IsDWrVsZMWJEuccpRHk4cuSIq0MQQgghhBDiptQREY5SJqhU+G/cCIDn668X217Xt2+xpU781q3DbjSi0OnwGj8eFAoCv/8e1Or8v202cHMrsVafx/DheAwbhj0nx2k2Lv+NGx39FtC0bZvflxBCiAolyT9RpdlCQ7EcPIgmKqrM+7bn5IDJhOmZZwiaPbvM+xdCFC/9kUcw790LgPqBB/CeNg1dv36ktGpVbPuC5JOMPrt7bdu2ZenSpYwbNw6VSkV6ejqZmZkEBwdj+2P6lmvXrgGgKKZ231NPPcU777xToTELIYQQQgghhADzoUMYt2xxWuf+3HOoGzUqtr0jQVfw2079x2VilSr/D/lTemYXjOr7g6Z9e7SPPw4KRbFleAon/gBJ/AkhhItI8k9UafaePdFv3kxgOST/cr/+mmtt2uDv51fmfQshbk7dtCle06bh3q8fKJWuDue+Ua1aNV599VWeeOIJ6tSpw6lTp1i2bBkAXl5ejBgxgosXL9KzZ0/CwsIYN24cPXr0IDAw0MWRCyGEqCxMFhtnrhq4lJVHVq4Zs9mC0mbD002Bv4eGBqF++HpqXR2mEEIIcc9xe/BB3B58sEz7VPj44D19epn2KYQQomJI8k9UaX59+5KxYQM+P/+MW5s2t2zvOXZsqfq1ZWSQNns2ee++i58k/4SoUD7vvps/LchNkn4dO3akY8eOTuvi4+PLO7T7Qt++fYmOjiYrK8vp/Ldx40YMBgMeHh6Odd99952MuBRCCOFw9qqBlCs5VPPV8WCoD55aFWqVEqvNTo7RzOVrOfx06BxB3loeahqGUll0FLkQQgghhBBCiLsnwylElebl7Y16wQIujRxJ9scflzgX+e0w/fQT5/7yFy69/DJhERFF6l8JIcqXpl07Ge3nYkqlstgbHwon/kCmWhVCCPGnXJOVbKOF9g0Diajhja+HG2pV/ue5SqnAx0NDwzB/urVtgEqlJCMr18URCyGEEEIIIcS9S0b+iSpNqVQS3KQJVzZsIHXmTDznz0cVEYFbePhtJw+sFy5gOniQ7OBgMmbMoHarVgQFBaGUJIQQQgghhBA35a5R0TTUx7Fss4PeaMaQZ0HnpsTHXYNKqUCpVNCqSagLIxVCCCGEEEKIe58k/0SVp9FoqF67NlmLFpF+/jzZv/yCNT0dm812ex3VqYNiyBD86tUjIigIHx8fGdUihBBCCCHEbbDb4XR6Diev5KBWKdGqFOQajOj1udQJ9iQyvBoqublOCCGEEEIIIcqVJP/EPUGlUuHv74+fnx+WiAisVis2mw17KacBVSgUKJVKVCoVarUahULqjwghhBBCCHG7svMsGExWHm0UhFb9Z5LPZLFyOPkyl69mUzPY5yY9CCGEEEIIIYS4W5L8E/cUhUKBm5sbbm5urg5FCCGEEEKI+463Ts0DoUWTexq1ilYRNV0QkRBCCCGEEELcf2S+FSGEEEIIIYQQZS4jx8T+MxlcvJrj6lCEEEIIIYQQ4r4iyT9RaRhWrsR6/jwA1tRU8uLjHY/lrluHPSsL0/ffYz19+s/169djTU0FwJyYiH7iRLLGj8e8b1+x+7AcPYp++nSyZ88md8MG7CZTifHYrlwpdey5a9aUuq0QQgghhBD3OqPZyp5T1/j9kp7/HjzLtUyDq0MSQgghhBBCiPuGJP9EpWA9dYq8b7/F8P77AKhq1iR382YsR45g+r//w3zgAAofH/IKJf/Me/aQ/fbb2FJTsRsM6KdMwWvaNLzGjCFn6VKwWovsx3L0KAqtFvchQ1DodGT07o09Lw9sNkw//YQ5MTG/3W+/kTVqFLb0dOw5OZh27cKSnFxi/IY/kn+WEyewJCdj3ru3bJ8gIYQQQgghqhCDyYqj/LYdruuNLo2nJBkZGa4OQQghhBBCCCHKnCT/RKVg+PBDvGfPxnL0KJjNAPguXYp+0iRyli7Fe/Zsp/b23FwMcXG4Dx2av0KtxpaVhXHbNlCp8Pv0U1Cpit2XwtsbVVgYut690f7lL+Tt2EHO4sVYjh0jLyGBnBUrsF24gN1gALOZzBEjsFss6N96C/OhQzc9jow+fTAnJmJYs8Zp5KIQQgghhBD3Ez8PDf4e+XW4fb201Kru6+KIihceHu7qEIQQQgghhBCizEnyT7icPS8P0w8/YDebUUdEYNy6FchP0ik8PfP/aDRO22TPno3XW2+hUOa/hBUaDYHffIPdYCDrjTfI6N/fkUS8GYWPD7YrV9D26oUtNRVbVhaWI0dQ1a+PsnZtlDVq4D54MKaffgKrFcuxYzftT1W9Ou7PPosuOhrLyZN3+IwIIYQQQghROunp6ZiL+d6bmprK8ePHHX9sNluJfVy8eNHx77S0NBITEzEa726knlIBj4QH0rN5Tbq1qYebuvgb81xNVcINg0IIIYQQQghRlUnyT7iccdMm1C1bYv7lF1QNGpD7z38CkLNwIbp+/XBr3ZrcTz91tLdbLFiOHSNn5UqM8fHkLF+O9fx5LCdO4DF0KH7//CfK4GDMt0jUYbVi/OILNJ06kfXaa3iMGoX7c8/x5/xEYLt6lZxFi/CeNg1Nhw5OjxVLrc7/W6G4dVshhBBCCCHu0pIlS7hw4YJjedKkSQC8+eabfPXVV8THxxMfH19sgrDAuHHjAFi9ejUzZszg4MGDREdHc+LEiSJtt23bxu7du0sVmwLw0qlRKhS3cUQVq0GDBq4OQQghhBBCCCHKnNrVAQiRu24d/hs3ovDyAvJr+Rk3b8Zy8iSe48aB3U5Gv35oOnUCQKFW4795M5CfINR07ozS15esN99EFRqan3TLzcWtadNi92fcsAHL4cPYrlzB/fnnUYeHo6xWjZwFC1D4+GA5fhwAy4EDWI4exa7Xkz1zJnaDAfO+fbgPGFABz4oQQgghhBBFrVmzhjNnzpCbm8uIESMAsNvtzJw5kwEDBpCQkECbNm2A/ASg+o+b02w2GyNGjMDX1xedTkdsbCzLli0jLS2NY8eOYbVa2bp1K1999RUAXbt2Zdq0aURFRfHEE09gMpnYuXMnu3btIiAggHbt2rnmCShjkZGRrg5BCCGEEEIIIcqcJP+EywUkJDgt+65aBYDu6afzVygU+G/aBID39OlObT3HjnX823/jRuxGIyiVRaYJLaDr2xdd375F1vutW4fdaESh0+E1fjwoFAR+/z2o1fl/22zg5lbiaL7A77/PP5ZvvgFA27Ur2q5db3bYQgghhBBC3Lbk5GSio6Np1KgR48ePJyAggJiYGEaNGkXDhg1p0aIFTz31FJ9//jl///vfUSgUhISE8Pbbb3P69GkSEhJ47rnnSElJ4cKFC8yfP5/9+/dz8eJFatas6dhP3bp1uXLlCsnJyRiNRoxGI6dOnaJjx45EREQ4xXTw4EFatGhR0U9Fmfnoo49cHYK4Q0eOHLnpqFYhhBBCCCHuV5L8E/cUhU7n+Lfxq68wJyU5Pe41aVKJiUHHtgXTEhVM4alS5f+B/FGAixc7badp3x7t44+XQfRCCCGEEELcWnBwMO7u7lgsFgC6dOlCQkICj9/wnfTDDz90jPyzWCyEhIQA4OHhQWZmJr6+vo7+qlevzpkzZ7Db7SgUCo4dO0adOnVQKpXYbLab1gBs3rw5CxYsKI9DLXfvv/++YwSlqHqqctJZCCGEEEKI8iTJP3HP0j35JLonnyzTPhU+PkVGHwohhBBCCFGRpk+fjlarZciQIWzfvp3o6Gji4uLYtWsX1atXZ/Xq1QCOkX8A06ZNc+qjUaNGfPDBB8yYMYOff/4ZtVpNTEwM/fv3p3bt2pw5c4YVK1aQmJjIxIkTCQgIICgoiJo1axIXF0fHjh0r/LjLw6+//urqEIQQQgghhBCizEnyTwghhBBCCCGqkMmTJ1OrVi3c3Nzo0KEDALNmzQIgKioKq9XKsGHDimy3Zs0aAOLi4gD44IMPMBqNxMbGAtCjRw+6deuGXq93jArs1asXXbt2xd3d3dFPt27dyu3YKtrJkyddHYIQQgghhBBClDmlqwMQQgghhBBCCFE6vXr1Ijg4GDc3txLbqP6Ysr40dIWmzQdQKpWOxF+Bwom/2+2/srNara4OQQghhBBCCCHKnIz8E0IIIYQQQogqom3btq4O4Z6SnJzs6hCEEEIIIYQQoszJyD8hhBBCCCGEEPclf39/V4cghBBCCCGEEGVOkn9CCCGEEEIIIYS4750/f568vLy76kPqSAohhBBCiMqgyk37uW3bNs6fP49er3d1KHdEq9XSuXNnQkND8fHxQaPRuDokIUqtvN9/3t7e9OvXj6CgoHLpXwghhBBCCCFKEhcXxwsvvEDdunUB2Lx5M08//TSdOnWiTZs2AAQFBTFx4sQS+4iNjWXp0qXExsayYsWKighbCCGEEEKIIqpc8u/555/n9ddfR6msmoMWU1JSWLFiBe3atWPIkCE0bdoUf39/tFotCoXC1eEJcVPPP/88o0ePLrf334QJE4iKipLknxBCCCGEEKLcffTRR1y/fp0LFy7wzDPPONYvX76cevXqMX/+fMLDwwkJCWHhwoWOx/fv38+WLVtwc3PDx8eHIUOGMGnSJBo3bkx2djZ2ux2j0Vik3euvv+6KwxRCCCGEEPehKpf8a9CgAdOmTUOtrnKhO+Tl5bFu3Tpef/11ateuzeDBg2nfvj0BAQF4eHhIElBUWg0aNCA2Nrbc3n9bt27l6tWrjmWTxcaZqwYuZeWRlWvGbLagtNnwdFPg76GhQagfvp7acolFCCHuhpy/hBBCiMovNTWVbt260bJlS1566SUaNGhAXFwczZs354knnuDzzz+nefPmnDt3zjHar3nz5tSqVQu1Ws20adMYPHgwAQEB9OzZk549e7Jjxw5H/zk5OU7thBBCCCGEqChVN4NWhWm1WoYNG8bQoUPZsWMHc+bMYcmSJTz77LP07NmT4OBgPD09UalUrg5VCJc5e9VAypUcqvnqeDDUB0+tCrVKidVmJ8do5vK1HH46dI4gby0PNQ1DqZSkuRCiZLVq1cLb27vcbrA5evQoly9fJiQkRM5fQgghRBXi6+uLRqPBYrEAYDAY+O2335za1KpVi3nz5jmW//e//1GtWjUAlEolRqPRMZuPm5ub07aF2wkhhBBCCFFRJPnnQgqFgm7dutGtWzcOHTrE3Llz+eijj3jqqacYMGAANWvWxNvbu8iPByHudbkmK9lGC+0bBuKmcv6RrFIq8PHQ4OOhoUFNPw78lkpGVi6Bfh4uilYIURWEhISwd+/echu53KpVKzIyMvD2C5TzlxBCCFGFrF+/Hr1eT58+fTh69CgxMTF8/vnn7Nq1i+zsbPbs2cPZs2cZO3asY5unnnrKqY+oqCgmTZrEwYMHsdlsFX0IQgghhBBCFHHPJf+WL1/O0aNHCQ0N5fjx42RlZeHj40OnTp0IDAxk8+bNaDQaunbtysCBA9m8eTMbN27Ezc2NZs2aOabyGDRoEB999BHu7u4APPPMM+h0OlQqFUOHDuXRRx/lrbfeYvr06Wi1Wr766isyMjL48ccf6dSpEwMHDrytuB988EHWr19PamoqixYtok+fPvzlL39h8ODBhIeH4+vri1Yr04OJijF69Gh69OhB9+7dXbJ/d42KpqE+jmWbHfRGM4Y8Czo3JT7uGlRKBUqlglZNQl0SoxCiainvC3FWq5Vr167RuLGcv4QQQoiqZPjw4dSoUcPp93bBdYHHHnsMpVLJzz//XGS7jh07ArBmzRoAPvvsMxQKhSNJGBcXV2y78nAnv9/S09Px9fUtcrNxcnKyYxSkTqejbt26JfZx8eJFqlWrRlpaGtWrV7+j2IUQQgghRPm45+adOHLkCLGxsUyZMoW1a9diMBhYu3YtL7/8MikpKQwbNoxVq1axYcMGzp49S0pKCi+99BJr1651fMH/3//+x7Vr19i0aZOj38zMTD755BMWL17MggUL+OWXX3jooYdYuXIlFouF999/n+eee44RI0aQnJx8x/HXrFmTRYsWsX//fiIiIhg2bBgjRozg3//+NxcuXMBgMGC32+/6eSqQlJTEwoULSUpKKrM+72Umi40Tl7P54cRVvj50ia37zvNV4ln+c+AcSb9fJjMnz9Uhlom9e/fSo0cP2rdvz7fffuuyOOx2SLmSw65jaew/m8npdAP7T6YTv/skB36/iFXuqhVCVFJy/hJCCCEqv86dO+Pn51fijbYqlarUU4ar1WqXle64k99vS5Ys4cKFC47lSZMmAfk3QsfHxxMfH8///d//3bSPcePGkZWVxZQpU+48eCGEEEIIUS7uuZF/pWEymbDb7Xh5eQH5X5SNRiN16tQhMjKSTz75hA/W69yVAAAgAElEQVQ//JA33niDQYMGOW3r5+fHhAkT2LhxI++88w69evXCbDYzbNiwMp2e08vLi9dff51Ro0axZcsWZsyYgb+/P6+++io9evRAp9Pd9T6SkpJo3bo1NpsNpVJJYmIirVq1KoPo7033Yw2n3bt30717d9q1a0dsbGyF7z87z4LBZOXRRkFo1X/eq2CyWDmcfJnLV7OpGexT4vZ2u71M63tduHCBwMDAMnn/CSHubXd7/hJCCCFE+evcubOrQyhTN/v9tmbNGs6cOUNubi4jRowA8n8vzZw5kw4dOpCQkED//v0JDQ11muJ0//79bNiwAaPRSIcOHejduzdTp05Fo9GQm5tbYrt+/fpVzEELIYQQQohi3XfJv8WLFzNu3DhiY2MJCAgA8pOBRqMRi8WCXq9nz549xMfHc+7cOZKTkwkPD3fqw93d3TH67s0332TcuHEkJiaWS7wqlYp+/fpRr149+vTpQ3R0NFOmTGH79u133ffly5cd06DZbDZ69+7tKEYunCk1OrSBtTCmpWC3Wm7SUoFFHYDSlo3SVnVHAR4/ftxpeffu3YwZM8Yx/UtF8dapeeCP6fNOnTrFkCFDaNu2LQADBgxgzIxFrF+/nk6dOtGmTRsAWrduzZNPPklMTAxeXl5kZGTQoUMHXnrppSL9F2xnNBoJDw/n9ddfv2k8H3/8MX379iUiIqKMj1TcCzIzM5k2bRqXL1/Gw8ODOXPmUL16dWJjY5kxY8Zt93en24nKofD5qzCNWkWriJouiEgIIYS49xw5coQWLVq4OgyXO3HihNNycb/fkpOTiY6OplGjRowfP56AgABiYmIYNWoUUVFRtGjRghYtWpCcnMyLL74IwKOPPkpoaCgBAQGMHz+e/v37k5eXx2OPPUbXrl0ZMGCAo/+rV686tZPknxBCCCGEa913yb8333yT8PBwJk6c6CjS/eijj9K1a1cAPvzwQ4YNG0azZs0YOXIkq1evZs6cOU59rF+/ni5dugAQGRlJREREmY4uKmCz2fj666+ZO3cuGo2GWbNm0a1bNwICApg5c+Zd93/jyL8vv/xSRv6VUkk1nO4VjzzyCHv37gXggQceYNq0afTr18+lr4/ruRYi2vdgzPjR1Aj0BHDcaRoSEsLChQsdbRcvXky/fv14/PHHARg8eDC9evUqUoei8HZ9+/Zl1KhRzJ07lylTpjBr1izGjh3LhAkT8PPzo3bt2gBs2rSJS5cu8cwzz/Doo4+W+3GLquPll1/m73//O1FRUezfv58333yTzz77jH379gGg1+s5ceIE9evXx8/Pj8zMTE6dOkWTJk3Q6XRFlvv27Qvk35F9/PhxQkJCCAwMdOUhijuUkWPidHoO1b00jvOXEEIIIe6e2Wx2dQiVQml/vwUHB+Pu7u5ICnbp0oWEhATH7yaA8PBwR71CgJ07dxISEgKARqNBr9dTv359NBoNPj7ONzoVbieEEEIIIVzrvkv+AdStW5dGjRqxbds2AObNm8eaNWto1qwZP/74I1988QVqtZqOHTvSvXt3rFYrycnJDB8+nJycHNq2bcvf/va3cosvNzeXNWvWsGLFCpo0acLUqVNp3bo1Pj4+ZfolulWrViQmJtKrVy+2bdsmib9SsNvhdHoOJ6/koFYp0aoU5BqM6PW51An2JDK8GirlvVFKs2nTpo4fjUoXH5PRbOXXS0YSj59j1JRF1NBmM+LvQx2Pnz171jE1TefOnTl69CiDBw92PN6yZUtOnDhRJPmXmprKvHnzuH79Og8++CB2u53Tp08DcPr0abKzszlz5gzPPfccDRs25P333+fxxx8nLCyMZcuWSfJPOJjNZlJTU4mKigLyX3OfffaZ4/Hz588zcuRIevXq5ZjOeciQIfTu3ZvJkyezefNmnnnmGcdyQkICb731FvHx8fTv359OnToRHx/Pe++9V2Q0uqjcjGYre05dI8tg4recHB5/qA4Bvh6uDksIIcqNyWLjzFUDl7LyyMo1YzZbUNpseLop8PfQ0CDUD1/P4uurCSHuXGl+v02fPh2tVsuQIUPYvn070dHRxMXFsWvXLjIzM/nxxx+dRv55e3vTs2dPpz769OnDuHHj+Prrr8nKyir34xJCCCGEEHfmnkz+ffPNNzz11FP4+fmxc+dOx/rC89a//fbbAPTq1ctpfXF9Qf4UGcUJCgpi7dq1AKSlpfHdd9/dcdxpaWksXbqUTZs20aVLF9asWUPDhg3x8vJCrS6f/6pWrVoRHBwsib9Sqiw1nKznz6MMDsZ2/jyqBg3+XH/ypNPynXr33Xdp27btbSX9hg4dyjvvvENwcDA7duxg7969TJ06latXrxIfH0+NGjXYsmULXl5e1KlTh1GjRpW6b4PJit0OjRs3pk+3brRpXI36YQGOx2vXru008u/XX38lKSnJcQfr4cOHnaakKRASEsKLL76Ip6cn7u7uWK1Wx1S4JpMJPz8/PvroI7Zu3co//vEP6tat60jCV/QUqKJyM5vNqFSqEh+vXr06I0eO5MiRIxiNRtLT08nNzeXcuXPMnTsXtVrttFwgLS0Nf39/Ro0axZAhQ8q0tqyoGAXnLwDscF1vlOSfEOKedT/WyBaiMijt77fJkydTq1Yt3Nzc6NChAwCzZs0C8kcB2u12Dhw4UOL2Bdc+Pv30U0wmE1ptfiK/8EjBwu2EEEIIIYTr3BtDlAp5/fXXCQsLu+lF2PKiUqmIjIx0GnFUGsePH2fIkCFERUWhUqnYtm0bCxYsoFWrVvj5+ZVb4k/cvoIaToUTf/BnDafiEn+Gjz/m+nPPAWA3mbg+aBB2gwFraiqZr7wCwPVnn3W0t+v1ZA4f7ljO3bAB47/+5dxnXBy2ixexXrjgtF5/Q1H3O9WuXbvbSvylpKTg4+Pj+JF37do1fv31VxITEzGbzVy8eJFr167x1FNPsXDhQux2OwkJCaXu389Dg482Px5fLy21qvvetP3IkSP55JNPmDhxIq+++iqtWrWiRo0aRdqp1WqCgoJwd3cH8t/D165dY9myZZw9e5aLFy8yduxYsrOz8fPzK3W84v7j4eGBSqXi4sWLQH79vx49ejgej4+PZ8uWLfTo0YPIyEjy8vJYvnw5vXr1IiYmhpSUFKflC4Xe23l5+fVDz58/z6lTpyr2wMRd8/PQ4O+Rn7QtzflLCCGqqlyTlWyjhfYNA4mo4Y2vhxtqVf73N5VSgY+HhoZh/nRr2wCVSklGVq6LIxbi3lGa32+9evUiODi4xJvJFApFqX8DKhQKR+JPCCGEEEJUTvdcVikiIoKIiAiX7DswMNBRO/BW7HY7//3vf5k9ezbZ2dkMHDiQ2bNnExAQgLu7e7nUEBRlq7Q1nEzff4+6aVMsJ06gbtgQr0mT0E+diu3aNXwWLADAnvvnxQ+FtzdoNNguX0ZZrRrGLVvwHDuWzNdeA7MZz0IjVU3ffYc6MhL9pEmoGzfGnp1dfgd8E59++ikTJkxgxowZjnWjRo1i6dKlTqOYCvz1r39ly5YtpZ4+V6mAPo824/HWEXhoVSj/eH9s3boVyK/DV5i3tzfr1q3DYDCg1WpRqVRYLBan0XpqtbrIdgBbtmzBYrEQExMDwJo1azAYDHh5eTm1KzzSUJSt0aNH06NHD7p3715im3//+9+89957uLm5odFoePnll3nsscdu2ffbb7/NtGnTyjJch/nz5zNo0CAaN27M77//zvTp0x2PBQUF8fvvv7Nq1SpOnjxJZmYm8+fP54EHHiAgIICQkBAGDBjgWA4KCgLyR6cGBwfzxhtvcOLECVatWnXH8b388stcu3bNsfzWW2/x0EMPlXr7tLQ00tLSaNas2R3HUBFK8/qpSEoFPBIeSGSYr9P5Swgh7jXuGhVNQ/+8Ea6kGtlKpYJWTUJdGKkQ96e2bdu6OgQhhBBCCFGBqlzyr6onxcxmMxs3bmTRokXUqFGDV199lQ4dOuDn5yd3zt0Fu91OTmoqWatXY0tMhOvXHetLQ6FQYPfwwNqwIZpnn8W3eXM8PDxKfL2VtoaTed8+3CIj0Q0YgGHFCrznzUPdpAn2zExUtWqh/OMCP4DdaMRy+DDKkBA8hg3DsGYN7v36oa5XD3VYGLpevTDv20deoRFzlpQU8rZtQ9ezJ9qePcnbseN2nrYyYbVa+eWXXzCbzWRmZjoKzbu5uRETE8PixYupVq2a0zaHDh2icePGt7UfBeClu71TlofHn/8n//vf/zh8+LBj+YEHHqBLly5FtlEqlU61NZVKZZHEnyhfe/fuZdmyZbRr147Y2Fi6detWpM2FCxd44oknePHFF8nIyKBr1678+OOP5OTkEBgY6JguU6FQcOjQIerWrUtAQABJSUlkZGRw+fLlMr9R5OGHH2bnzp1cv34dX19fx/kjPj7e8Xfh11fnzp3R6/X4+ORfKN2+fbvTcsF2CxcuJCcn56bnpNL4/fff+f77753WXbx4EZ1OR3p6OuHh4Rw5coR69erh6enJxYsXyc3NRavVEhoaypYtW9Dr9Xh6elKvXj0gfzRiWFjYHcdUHkrz+ilswIABLFq0iNDQUBYvXsybb75JRkYGU6ZMwd3dHZ1Ox/Tp05k7dy6//fYbfn5+tG3blkGDBpU6pjs5fwkhRFV1P9XIFkIIIYQQQojKqspdibp+/TqRkZGuDuOO5ebm0qVLF5YuXcoDDzyAt7e31HC6SxaLhYzNm7EuXIjPoEFoJ01CVb8+3OZFBdvFi5iTkrg+YQKp7drhN2YM/oGBxU67WtoaToZVq1D6+WH44ANMiYnYTSbMe/eibtwY6/nzWH7/HXWjRvmNTSYsx4+jttlwa9OGnMWLMeTk4PHyy2QvXIi2SxdU4eHYzp1z2ofdaAStFhQKFC54LX377bcMGzaMPn36oNfriY2NpU2bNgC0adOGfxWasvTTTz/l+++/R6FQMGfOnAqNs3PnznTu3LlC9ynuzu7du+nevbsjiVOS7OxsdDodBw4cYOfOnUyZMoU5c+YwcuRIpk+fTocOHZg8eTIffvghNpuNGTNmYLfbCQsLY9y4cWUed0lTxOp0OqdlhULhSPQVt1yYp2fJo4tLKy8vz5FQBOjWrRsxMTHUqVOHlJQUdDodjzzyCOPHjychIYFOnTrx2muvkZiYyOjRo0lJSeHKlSu8/fbbTJ48mRo1ajBhwgTWrVt317GVh9K+fry8vJg+fTr/+Mc/OHv2LADTp08nNjaWkJAQduzYwccff8zUqVNZsWIFHTt2pEWLFhV1GEIIUeVUlhrZQgghhBBCCHE/q3LJv2PHjmE0Gh01kKoatVqNTqdzTEUo7o7dbufahg0oNm2i2n/+g6KEC+eloQwKQh0ZifvAgWTMnMnViRPhnXcICgoqMtqmoIaTPtdUYg0ne1YW9uxsvN9/HwDjxo3kfvoppl278Fu7FntODteHD8f/jwvnCh8f3AcOdGyv+ctfyPv3v1HVr4/SxwfTzz+j9PbGtGcP6kIJcE1UFPpJk7AcPIjdZrvj479Thafu9Pb2ZvHixU6PL/hjalPIH2FzK19++aVjyk1xfzp+/LjT8u7duxkzZozTtK0AH3zwAd9++y1BQUGsXLkSg8FQpC8vLy+SkpKIiYmhdu3aAMybNw+bzcYLL7xQbsdQGdlsNtLT052W8/LymDt3Lj/88AM//vgjo0aNYvv27QA0bdqU119/nVOnTrFs2TI6duyI0Wikbt26rFu3jvr169O3b1+nfVSG929pXz8FvL29adu2LRs2bHCsy8rKIiQkBMifIuvLL78s1b6/+OILXn311TuM3NmRI0cwm81l0pcQQlSkghrZNyqokS2EEEIIIYQQovxVueSfVquV6TGFQ865c9iWLKHad9+huMXUjNnz5mFNSUHdsKFT3bwiVCr8Y2MxPvkkl+Lj8ejfv8iom9LUcFL4+OD36aeOZV3//gB4vPhi/uPe3vhv3Pj/7N13eFRl+v/x97T0RkgAE6qUZcNGEMXQdlVEgZUiLCBKXxFQaQIqKFWwoKCILKKbpQiuIkWKi40f8t1dDYgioBhaIAgkQiC9TCbJzO8PzGxCAoaQySTk87ouL5lTnnOfkzknJ+c+z3MDUOvX2nVF+Ywa5VzWb/ZsHFYrBi8vfB0O+HV7QatWXVr/n/8Eg+Hq+3UN0idOxLNHDzzdUDOrT58+LFiwoNK3K1VH+/btncPHtmrVilmzZjFgwADatm1bbLmxY8cy6tdzBGDv3r3OBE9hbbsRI0ZQq1YtFi1aRHp6OkajES8vL6xWK3Y3JMvdydvbu0TC02g0YrFYnP8vnAY4E0+ZmZn4+fk5X4Lo3Lkzr776KidOnODvf/97sfaqwvlb1u9PIYfDwaBBgxg1apRzny0WC1arFS8vL+Li4mjUqFGZtt23b19eeeWVCtkP9S4UqT7y7Q72/HiKTrc0dncoVU5Za2SLiIiIiIhIxap2yT+RojLefpuAsWN/M/Fni4mBvDwC336b9EmTyPvmGyy/Dk1ZKoOB0IULyX7kEVLvu6/UIfcqu4aToXDIwNJqfpUyNOn1sO3ZQ9aSJXh06IDf7Nl4/kbNLJGKFhER4UzaGMs4hO/vfvc7Jk2aRHJyMkePHgVg9erVmEwmzp8/zx/+8AdXhlzCY489RlJSkvPz2rVrmTVrFq+88kqp8xITE5k3bx7Z2dmEhoYyf/58AgNL9iour9TU1GI99YomTktz5MgRJk2aRHx8PEuWLCExMZGnnnqKHj16EBUVxYULF4rVx6xKyvP9mTNnjnPI4ilTpjBmzBiaNGnC+fPnWbhwoSvDFZFqzO6AEW9/Tc9vXiG+34M07vWwu0OqMspaI1tEREREREQqnpJ/Uq3Z9+zB86GHfnM5jw4d8OjQAYCCs2cx1qv3m+uYW7TA8+RJUlJSCA8Pv+5YqyNbTAzJ3bs7k4AileH1118nKirqqkmb0obsDAgI4D//+Q82m81ZX++tt94iIyPD2XNt86+9bL28vNiwYYNL4i8UGxvLrl27ik375ptvSp2Xm5vLyJEjWbt2LfXr1+fTTz9l5MiRbNq0qcLi2b9/f4lp3X/t3Vu0JmZhXcDIyEhefvllzGYzZrOZhg0b8uWXXwKX6tcOHTq0wmKrSGX5/hS1ePFiAOrXr09CQgJwKZG8evVqZ++/QuPGjav4gEWkWntu84/Y476jQ2Mjh1YvodH9gzBcY93pG1VZa2SLiIiIiIhIxVPyT6q3jAyMN91UtmXtdtInT8aze3dMv9b+uiqDAYePD+b33+fCZ59dX5zVTP5lNbNsMTGkT5lCkyvUzBKpSB1+TdSXR+GwnkX5+/tfb0jlkpeXx6effgpAgwYNaNWq1RXnJScn07lzZ+rXrw9cSsrNnz+fjIwMt8XfvXv3EsfSZDLx4YcfEhQUxK233uqWuH7L9Xx/Lnf5/ouIFLXhm5/ZFHOc59L/j5CoP+D34zFObF1L0weGuTu0KqEsNbJFRERERETENZT8k2rNHh5O/oEDeHTp8hsL2kkdNgyvAQPw6tOnTG07srLAZsP24IOEvPBCBURbfVxo3568X2tmmVu1wn/WLLwGDODkFWpmiUhJBQUFxMfHA5fq7V1tXlpaGn6XDV8cHByM1Wp1W/Jv7NixpU4f+Gv9UhGRmuyjfadZvOsw/jkJtC44icPxe8JuDiP2wxWVlvxLTEzkpstegjt9+jQNGjRwfj5z5ozzxRKA7Oxs8vPzsdlsBAYGOuu9Fm3r/PnznDp1isjIyOt6CaIsNbJFRERERETENTQmjVRrjvvvJ2Pjxt9cLmfdOmxffUXOmjWk9O9P3nff/fY6//oXyXfcQVBQUEWEWu2YIyII+uADQg8exGvgwNJrDYrIFXl5eTF27FjGjh3LnXfeedV5UVFRfPHFFxQUFABw4cIF0tLSCA0NdUfoIiJyFZ8c+JkXtu/nZEYmk7L/hcFhx5qSgskA2Rd+JjcjzeUx5OfnM336dOfnbdu2ERMTw+TJk0lLu7T9gwcP8ve//73Yel9//TVbt25l9+7dZGRkOKc/9dRTAKxYsYK5c+dy4MAB+vXrx7Fjx0psu3BbZVFYI7uqJv727dtHUlIS+/btc3coIiIiIiIiFUo9/6RaC+rfn5R16wj45hssd9xxxeW8H3oI7zLUBixkT0nh/AsvkPv66zUy+Rfw+ut4REWBataIVIq6devy2GOP0bNnTxo1asSJEydYsmSJu8MSEZEiTp1L5dXNe/nsuxMQ0Zy2R7dziyUBHHaSYw+Sl5ZKbWM2P234B7eOnFyh27bb7YwePZoGDRpQt25dRo0aBVxK8MXExBATE0NwcDCDBw9m06ZNjBw5kjVr1jBy5EimT59OVlYW7du3p06dOsCll0zy8vJYsmQJ58+fJzY2loKCAjZv3szWrVsB6Nq1K7NmzaJLly707NkTm83Gjh072LlzJ8HBwRU6zLI77Nu3j3bt2mG322nXrh179+6lrUa5EBERERGRG4SSf1Kt+fn7k/Hqq/zy6KPUeuwx/EaMuO4earavvyZx3Dh+GT2ahi1blhiKrybwqOYPc0Sqgl27dl1xWmnz+vfvT79+/UhPT6+RLx2IiFRV51IzGfPGx6SbPTE0bIgh0oxj1//j6cD/gN0OBQVYz/+CI89GbQ84umOzS5J/58+fJzo6mhkzZnD69GmOHDnC3LlzWbduHSaTiZYtW9K+fXtGjBjB0KFDuXDhAoGBgfTt2xebzcaLL77I5MmX4jp+/DgnTpzg7NmzLFiwgO+//57ExETCwsKc22zcuDFJSUkcP34cq9WK1WrlxIkTdO7cmZYtWxaL7+DBg9x+++0Vus+udu7cOex2O3Dp+Pbq1Us97quhQ4cOkZeX5+4wRERERESqHCX/pFozGo2E/v73JK1bR8K8efguWICpZUsszZpdc6+1grNnsR04QGZoKClz59KwbVtCQkIwqvebiFQSo9GoxJ+ISBVTN8iPHnc0Z/nOAyRhJmzfDub4fUsgVrAXQEE+jvx8rLk2cnNysWbHk2fNweLl/duNX4PCxJSfnx+5ubl4eHgQEBDA6dOnncuYzWYaNmzI6tWr6dWrF4cPH+aDDz7gL3/5Cx4eHsXay8rKIjAw0Nl2vXr1OHXqFA6HA4PBQGxsLI0aNcJoNGK327FarVeM7ZZbbuHVV1+t0P11taI9/4xGI9u2bVPPv2qoTZs27g5BRERERKRKUvJPqj0PDw/qNWxI+qJFXDhzhsxvv6XgwgXnm7xl1qgRhuHDCWrShJYhIQQEBGAymVwTdDVlcHG9FqPRWCN7WoqIiEjVNqbHbfTr8Dtefm42nexfUN9k+bXXXx6O/DyOZwHNOlHv96355b23if18I7f0HlKhMfzf//0fc+fO5eLFizRt2pQmTZrw8ssv89hjj/HII48QHR1N586dGTFiBL179+aHH37giy++IDc3l927d5OdnV2svZtvvpkNGzYwd+5cvvnmG8xmMxMmTGDgwIE0bNiQU6dOsXTpUvbu3cu0adMIDg4mJCSEsLAw57aqs7Zt27J3716+/PJL7r77biX+RERERETkhqLkn9wQTCYTtWrVIigoiPyWLSkoKMBut+NwOMq0vsFgwGg0YjKZMJvNLk9yVVepqalERka6rP3Dhw9Tq1Ytl7UvIiIiUl6hQX4s+tsiPptvJW7vJzT1t+DIz+N0ho2Ae4Zw75SXAejw6HTybbkVvv3OnTvzzDPP4OXlBcCqVasA2LRpEwDdu3cHoEWLFhw+fBiAP//5z9x55514e3uXOprF8uXLsVqtzJ49G4AePXrQrVs3MjIynL0Ce/XqRdeuXfH2/l9Pxm7dulX4/rlD27ZtlfQTEREREZEbkpJ/ckMxGAxYLBYsFou7Q7khxcbGkpubS25uxT/QAvD09MTT09MlbYtIzXbmzBk2b96M2eyaW5/Y2Fhdv0RqiG4z/saqR7qQkXKczNx88m7tRs9fE38ARpMZD++KvdaYTCaGDh3qTPxdaZnS+Pr6XrXty9s0Go3OxF+hoom/q21LREREREREqgYl/0SkzJScE5HqavLkyezYsYOMjAyXtD948GBq167tkrZFpOrpPffvvP1we25q3Znh81e4fHsGg4F77rnH5dsRERERERGRG4OSf1IlOHJyyHr9dfymTweDgYKEBPL37cOzZ08Act57D69evbBu2oT3iBHO9XLefx+PO+/EFBZG3t69WDduxGG34/3gg1huu63EdrKjo/EZNcr5OffTTzHfcgumsLD/tbl2Lebf/57cL77Ab9o05/S8b76hID4er4EDS7Sbs2pVsbhERKRqmThxIllZWWRlZbmkfV9f39/sXSMiN47g+k156G/baRzZzt2hiIiIiIiIiJSg5J9UCTkffEDenj3kfvEFnvfdhyksjIznnsPUpAn2ixfJ278f78GDyS6SZMvbvZvM558naM0ajEFBZMyYQa2PPsKRkUH6U08RtHIlXDYkUf6RI9j++188OncGh4PMV16h9mefYfv6awwWC5Z27bD/8guO+vXx6tsXAHtqKvk//IA9NZWC8+dLjb8wrvxjxzDWqkX+jz9i6dgRg4eHS4+biIiUjY+PDz4+PoSGhro7FBG5QSjxJyIiIiIiIlVVyarvIm6Qu3kzgdHR5Kxe7ZwW+MYbZDz7LFlvvIH/Cy8UW96Rk0N2dDTeI0demmA2Y09Px7ptG5hMBL37bonEH4DPmDHkrLg0NJNt1y4877qLrDfeID82ltzt28lautS5bPqUKeBwkDpoEI7sbKybNv3mfmQ88ww5a9eSf+QIGc8+W55DISIiIiJVUH5+Puev8CKYiIiIiIiISFWi5J+4Xd6+fRh8fCg4exb7xYvYExMBMPj7Y/D1vfTfZT3oMl94Ab/p0zEYL32FDR4e1P70UxzZ2aQ/+SQpAwdCXl6JbZmbNcOekoIjPZ3s1avxHjUKz169sCckYE9PJ//QoWLL29whOWQAACAASURBVH/5BWO9enh264ZXv36/vTN2Oz6jRuHz179SEBdXziMiIiIiIlWJ3W7nz3/+M3/729/Iz893dzgiIiIiIiIiV6Xkn7hd9vLlWNq3J+/bb7FERZH9j38AkLVwIV4DBmBp146cd991Lu+w2ciPjSXrrbewfvwxWW++ScGZM+QfO4bPyJGXhgENDSUvNrbU7XkPG0b2O+9AQQGmsDDSn3gCn/Hj8X74YXA4ii9ssYDNdmm7GRll2yGzGQyGkm2JiIiISLX03//+F5PJRN++fTGbzRw4cIBNmzaRmprK4cOHOX/+PFu2bOHMmTPuDlVERERERERENf/EvRzp6RQkJhL4zju/TnBw8Z578Ozalfy4OHyfegocDlIGDMDjT38CLvXyq7VxI3ApQehx110YAwNJnzwZU3j4paRbTg6WiIhSt+nVqxdJEREELFsGgLFuXbJefRVDQAD5hw9jqlvXuawxJAQMBjKee46Cs2extG3rwqMhIiIiIlVReno6FosFi8XC0qVLOXv2LB06dCA3N5fly5djMBi4//77GTRoEP/973/dHa6IiIiIiIjUcEr+iVsZAgII3ratyAQDtXfuBCCwfXvntFobNgBQe9euYuv7Tp3q/HetDz/EYbWC0VhimNBizGZCjx51fgx67z0cVisGLy/8nn76Uq89IPiuu/43PzcXg6fnFZssjKvW5s3/i6fIv0VERESk+mrTpg1hYWG0atWKKVOm8Mknn2D49Z4RYPjw4bRp04aVK1eSlpZGYGCgG6MVERERERGRmk7JP7mhGLy8nP+2bt1K3r59xeb7PftsqYlB53pFHuIUm/9r4s+Rnk7ma68Vm+fRsSOe9913PWGLiIiISDVhsVjIzs7G19fXOc3r13tJg8GAQ0O/i4iIiIiIiJsp+Sc3LK/evfHq3btC2zQEBOA/Z06FtikiIiIi1cezzz7L8OHDCQsLY+zYse4OR0RERERERKQEJf9ERERERESuon79+ixfvhyADh06sGHDBrKysvD19WXx4sXO5dauXeuuEEVERERERESclPwTESmnbdu2cebMGTIyMlzSvr+/PwMGDCAkJMQl7YuIiEj5FR32U0RERERERKQqUfJPRKScBg8ezMSJEzEajS5p/5lnnqFLly5K/omIiIiIiIiIiIhImSn5J1KBevbsSUZGBna73SXtJyYmEhMTQ2hoqEval2vTtGlTZs+ejdnsmkvp5s2buXjxovOzLd/OqYvZ/JKeS3pOHnl5+RjtdnwtBmr5eNA0PIhAX0+XxCIi10bnq4jUVLr+iYiIiIiIuJ+SfyIVKD4+nh07drgsGdSxY0eSk5OV/KuBfr6YzcmkLOoGenFLeAC+nibMJiMFdgdZ1jzOJWfx9cHThPh7cltEfYxGg7tDFqlSGjRogL+/PwaDa86Nn376iXPnzlGnTh2dryJSY+n6JyIiIiIiUjUo+SdSgSwWCyEhIS5L/nl7exfrCSY1Q46tgExrPh2b18ZiKj7EqMloIMDHgwAfD5qGBbH/SAIp6TnUDvJxU7QiVVOdOnXYs2ePy67Pbdu2JSUlBf+g2jpfRaRG0v2KiIiIiIhI1aHkn0g5TJw4kR49etC9e3d3hyKVwN0/b28PExHhAc7PdgdkWPPIzs3Hy2IkwNsDk9GA0Wig7e/D3RKjSFXnquGYCxUUFJCcnMzvflczzleHw0FqaipvvPEGiYmJFBQUuDukq3I4HLz88svqOS/iQrpfERERERERqTqU/BMphz179rBkyRI6dOjA7Nmz6datm7tDEheqKj9vhwPiL2QRl5SF2WTE02QgJ9tKRkYOjUJ9iWxWF5PR+NsNiYjL3cjna0FBAT/88AOjR4+mc+fO9O3b190h/aa//OUvPP3000r+iVSCG/n6JyIiIiIiUl0o+SdyHWJiYujevbszKSQ3Nnf/vDNz88m2FfDHFiF4mv/30MyWX8CPx89x7mImYaEBV2nBNRwOh8vqqIlUV1X1fL1eubm5vPfeeyxatIh33nmHTp06uTukMmnWrJmGzRapJDfq9U9ufHFxcTRt2rRc63l6ehIaGoqnpycAJ0+epFGjRhiV6BYRERERN1HyTzh06BBt2rRxdxjVyrFjx4p9jomJYcqUKeTn51d6LBaLhVatWlX6dmuSqvLz9vcy0yq85MMyD7OJti3DKmQbo0aNwt/fH5PJRHBwMBEREeTm5mK1Wtm+fTsNGjQA4LnnnuOrr75i/fr1BAYGkpKSwqJFi6hTp06x9lavXu1c79y5cyxYsICwsIqJVaQqq4zztTI5HA6Sk5OZOnUq586d49///je1a9d2d1giUgXdaNc/qTnmzZvHqlWrgEsvu+zYsYPvv/+ePn36EBkZCcCAAQNYv359ifUmTJhAUFCQM/m3YMECFi5cyKOPPsr7779fqfshIiIiIgJK/gmQl5fn7hCqnfbt27Nnzx4AWrVqxaxZsxgwYABt27at9FhatWrF/v37K327NUlV+nkXSsmyEX8hi3p+HtxU27fC2rVarSxduhQvLy8ANmzYQF5eHnl5eYwcOdJZ97CgoIDly5fz8ccfA3D06FGef/55li5dWqy9out9+umnfPLJJ3Ts2JHo6GiMRiNDhgxhz549pKamcvbsWR588EE6duxYYfsjUhW46nytLAUFBXz//feMGTOGhx56iBUrVqi3r4iUSXW//smNbcSIEbRo0YKLFy+yaNEiABISEli5ciXh4eFs3LiR+fPns2LFCl5//XX+/e9/06FDB2bNmkVeXh5+fn4899xzAHz77bfcdNNNzJ8/n5CQEA4fPgxATk4OAGPGjKF58+bExcXx1ltvuWeHRURERKRGUfJPpJwiIiKcSSAN53Ljq0o/b2teAbtPJJOebeNIVhb33daI4ECfCmt/+vTpmEwmGjRoQHh4uHN6dHQ0O3bsAOCJJ56gcePGznktWrQgISGh1PY+/PBDvv/+e/bv38+CBQt48cUXWbBgAZ6enjz++OM0btyYbt26ceutt/Loo48q+Sc3FFefr65mtVpZtWoVS5cuZcWKFdxxxx3uDklEqonqfv2TG19iYiKrVq3i2Wef5ejRo6SmpjJz5kyWLFnCsWPHuHDhAq1bt+bChQtYrVb++c9/8uKLL/Ljjz+Snp7OggULnMm/hIQETp48SX5+PlOnTmX37t3FtnXixAnefvttRo8ejdVqdb5oJyIiIiLiKkr+iZTD66+/TlRUlNuTQFI5yvPzHjlyJK+88gqhoaF8/vnn7Nmzh5kzZ3Lx4kU+/vhjbrrpJjZt2oSfnx+NGjVi/PjxZW4721aAw/HrBwekZlgr9GHaSy+9VKznX6FRo0Y5e/7ZbDaOHz/unHfy5Enq1atXanvdu3ena9eu1KpVC4PBQG5uLt7e3pjNZmw2GwCBgYF4eHi4ZehcEVcq7/makpLi2sB+g8PhICkpicmTJ5OZmcl///tfgoKC3BqTiFQvrr5fEblegYGBAHh5eWGz2YiPjycgIICMjIxiyw0cOJBVq1ZhNBrJz89n6dKlzJkzBx+f4t/n3Nxc57Cfhf8vVLduXQDd74qIiIhIpVHmQqQcOnTooMRfDXKtP++TJ08SEBDA2rVrAUhOTuaHH35g79695OXlkZiYSHJyMg888AALFy7E4XCwffv2Mrcf5ONBLR8LAIF+njSoF3htO1QBPDw8GDFiBEOHDmXGjBnMnDmTmTNnlrpsQEAAwcHBzmECR4wYwVNPPcWUKVMYOnQoAO+//z6TJ0+mb9++lbYPIpWhvOdrs2bNXBnWVeXn57N7927uu+8+2rdvz0cffVRtEn8Oh4OMjAzn/0XEfarC/YrI1Zw8eZLFixdz8OBBfv/739OmTRsWLVrE008/TZ06dfjyyy9JSEjg/vvvZ9myZQwbNgyz2UxGRgbbt2/Hz8+PmJgYZ3sNGzYkNjaW1157jRMnTrhxz0RERERE1PNPpFwmTpxIjx49nL2gysKVPcGkann33Xd55plnmDt3rnPa+PHjeeONN3jppZdKLH/vvfeyadMm/vznP5epfaMB2jerTWT9QHw8TRgrsPZWYcKyUP/+/a+47KBBgxg4cCDZ2dn4+fkBl4YILGrUqFEl1rv77rv54x//CIDZbGbPnj088sgj3HTTTXh6epbp/Priiy/429/+hsViwcPDg9GjR3PnnXeWeT+ldOnp6Tz88MPOnp9NmzZlwYIFJZabPXs2Dz30EN9//z0PPfRQZYd5VeW5PrtSec9Xk8nkknh+6/hYrVbefvttoqOjeffdd7n11luv2Nabb77JTz/9xPTp05k6dSoeHh4ATJo0iWXLltGgQQPmzp3LwIEDnfNmzZqFwWDgxRdfJCcnh7CwMJ5//nnnNeRqjh07xjPPPIOPjw8mk4nVq1eXWCYtLY2xY8eyfPlyxo4dy8MPP8z69etLXJtEqqMff/yRJk2a4Ot79dp5VquVI0eO0KhRo3Il7s+fP8+pU6eIjIy8rqEJXXm/IlIR/vCHP/D4448zceJEDAYDq1atAi7dywNs2bIFs/nSI5ODBw8619u6dStGo5GpU6ficDjo0KGDc96mTZuw2WxMnjwZgM2bNwP/u8e+vD52RSnP/c+FCxcIDAzEYrE4p6WmpmI2m52/l5OTk/H29sbb29u5TGJiIoGBgeTl5Tl7T+bl5ZGWloaXlxd2u52AgIAK2jMRERERKS91XRIphz179tCjRw86duzIZ5999pvLu6on2L59+0hKSmLfvn3XvU9SMQoKCvj2229ZtmwZaWlp7NmzBwCLxcKECRN47bXXSqxz8OBBfve7313TdgyAn5fZ5Q/S9u3bx8KFC6/4HTMajc6HA9nZ2URHRxf7Lysrq9T1zGaz82HKXXfdRVBQkHN4pLKcX2fPnqVnz56sX7+epUuXOh+wZGVlsX//fnJycoBLDycuXLhAbGxs+Q9CDWKz2fDy8mLDhg1s2LCBBQsWkJyc7DyeZ86cAeC7774jNTWVuLg4d4Zbqmu9Pg8aNIizZ88COM/PlJQUnnjiCaZOncqMGTPIz89n3rx5DBkyhHHjxrFmzZpriqk852vTpk2vaRtldaXj43A4+OWXXxg2bBhfffUVX3/99VUTfwCHDh1i9uzZNGzYkPT0dNauXcvatWu5/fbbadiwIffeey9AsXlNmzZl2LBhzJ07lw8++IDevXvzxBNPlGj7/PnzJCQksH37dvbv3w9cSuxFRESwdu1aVq9ejc1m49ChQwBkZmZy9OjREu307t2b2267TUOsSbX36aefsmzZst9MZOfk5DB06FD27t3LE088we7du9m2bVux3kmlefbZZwFYsWIFc+fO5cCBA/Tr149jx46VWLYs7RWqrPsVkfLo06cPHh4eztEpLld4r3o5i8XifEmntHULX3ipTNd6/wOwePFi5z0QXLoOxMXF8cILLzinTZo0qcTv0OnTp3P69GkOHz7snHbq1CmWLl3Kjh072Lp163XujYiIiIhUBPX8E7kOMTExdO/enQ4dOjB79uwrLueKnmD79u2jXbt22O122rVrx969e2nbtu317ZBct88++4y//vWv9O3bl4yMDGbPns0dd9wBwB133MH69eudy7777rvs2rXL2Qumqin6HTMajb/5HfPx8WHcuHHXvJ277rqr1OllPb8yMzPx8vLi3LlzjBw5kr59+/LMM8/wwQcfMH78eJo2bYqXlxe1atVi0qRJ1xxfTXPu3Dk+/fRTAFq3bs3q1avp3LkznTt3ZuzYsXz88cdujrBsyvr98fPzY86cOfz973/n559/BmDOnDnMnj2bOnXq8Pnnn7Ny5UpmzpzJ0qVL6dy5M23atHF5/JGRkS5t//LjU6tWLR599FHGjRvHqFGjrvgg9ErsdjuZmZkAJXrxFZ13/PhxWrduTcOGDYFL539h0qGor7/+mr/97W8888wzzJkzx/m7Mi8vj8zMTEwmE2lpabz++utER0cTHx/P2rVrmTZt2jUfC5HqYO3atRiNRrZt28Z3333HH/7wB06cOEF6ejqRkZGcOnWKZs2a8ec//xmDwUDv3r3p168f58+fZ/ny5QQHB1OrVi2io6NJSUlhwoQJfP/993z33XfccsstbN++nf79+7N582bng/uuXbsya9YsunTpQs+ePbHZbOzYsYOdO3cSHBxcrLeTSHX0wAMPuDuECne1+59Vq1Zx6tQpcnJyePzxx4FLL//MmzePTp06sX37dgYOHEhsbCwOh4Pk5GT8/PzYuXMnMTExXLx4kUWLFgGXXvpLS0vj5MmTLFmyBIfDUayn8apVq0hMTOTEiRM8+eSTREREVN5BEBERERFAyT+5gVksFlq1auWSti9/CzomJoYpU6aU2rOgsCdY4VAopfUEKywAX+hqPcG2bNnChAkTOHfuHHa7Hbj0YPXLL79U8q8KKJqw9ff3L9HT79VXX3X+e9CgQb/ZXuHP2x0u/4716dOnxHfVFYq+RQxXPr+WL1/OZ599RkhICG+99RZbtmxh9OjRPPDAA5jNZv71r38B8MILL2A2m+ndu7eSf2WQlZVFfHw8cO29z9z5fS1U1u9PIX9/f6Kioli3bp1zWnp6OnXq1AEgKiqKLVu2lGnbW7ZsqdAhm1esWFFhbRW60vGx2Ww0bNiQ4cOHX3PiDyA+Pt6ZeLt8qNii8/r3719s6DC41IO48CWDou6//366du3KyZMnOXr0KOHh4ezcuZOsrCzCwsL461//es1xilRX3bt3p169euzatYshQ4aQkZFBamoqU6ZMYcKECXzwwQcMGTLEmcR/9tlnSUxM5KWXXqJz5860bNmSzMxMRo0axX/+8x82btyI3W5nyJAhREVF8dVXX1GnTh3CwsKc22zcuDFJSUkcP34cq9WK1WrlxIkTzvaKOnDgQKW8GCE3lkOHDpGXl3fdbei7V7a/T48fP06/fv1o0aIFTz/9NMHBwUyYMIHx48fTpUsX2rRpQ5s2bejatStfffUV+/fvZ/jw4WRlZTFy5EgWL17Mt99+C8DFixdJSEhg06ZNvPLKKxw5csR57124rcKXENasWcP8+fMr50CIiIiIiJOSf3LDatWqlXOosIrWvn17ZxKvVatWzJo1iwEDBpSafKvonmB9+vRhwYIFJXpl3X333S7YUwH31hAr/Hm7w+XfsS1btlRKgrms59fYsWOL1RT87rvvnMNTWq1WfHx8sNvt5OfnYzAYXFZD7UZz8803M3bsWOdnk8nkfHCUnJx81XXd+X0tdC3XZ7j0xvugQYMYNWqU8wGkxWLBarXi5eVFXFwcjRo1KtO2+/Tpw8svv1wh+7Fs2TLnW/kV6UrHJzMzk5deeolOnTqxbt06br755mtq9+abb75iHaOi8zIzM5kxY4bzupKUlISfn1+JxB/grDVmMBhwOBwAdOvWzfkA8cKFC86fWVJS0jXFK1KdhYeHc/jwYerWrYuPj4+zt43ZbGbv3r3Y7Xaio6O5ePEi06ZNIyoqCoBPPvkEi8VCWFiY8+We8PBwZ7v16tXj1KlTOBwODAYDsbGxNGrUyJmgv9qQo61bty72gpNIWVRE0u56k4c3irLe/4SGhuLt7e28t7v77rvZvn079913n3OZwYMHM2/ePNLS0hg3bhyDBw+mS5cu+Pv7O68dhaxWK76+voSGhpaIqU6dOpjNZg29LSIiIuImSv6JlFNERITzj6rSHloWquieYIXatm3L3r176dWrF9u2bVOvPxfas2cPS5YscQ6f061bN3eHVCnc+R0r6/lVVP/+/Rk2bBgHDhwgISGBt99+m/fee48JEyaQlZXF6NGjXRz1jalTp04899xzrFu37oq1b6qa8nx/5syZ43wxY8qUKYwZM4YmTZpw/vx5Fi5c6MpwS/XDDz+4rO3Sjo+/vz8zZszgjjvuoGfPnsyZM4eBAweWq/3U1FR27dpFWloanTt3LjbPz8+PcePG0bNnTxo2bMjPP//sHELsWtWuXZtz587x9NNPk52dXWK4UZGaqGXLlowaNYoNGzaQlJTEY4895qzJGx4eTl5eHj/88AO5ubkEBAQ41yscnWLChAkMHDiQhg0bOmt47d27l2nTphEcHExISAhhYWFER0eXOL9FxL3Kcv8zZ84cPD09GT58OJ988gn9+vUjOjqanTt3kpaWxldffUWnTp2wWq3O5Gx2djZJSUmcPHmStLS0Yu2NGDHCOex/ZYwQIiIiIiJlZ3AUvkotcoNp06aNy3r+xcTEEBUVVeKPqltvvZW9e/e67AF569ateeutt+jYsaNzWnn2s/CNbimbom/SAs4k4LRp0yr95+0OrjyXSnO951d2djY+Pj7ApVouGzduxGazlRhqUMrOZrNhMpmu2nuyqnxfK/L6XNj7ryxat27N8uXLr6kG1tWuxffddx+ff/55mdsCiIuLw9PTk9DQUDw9PUtd5krHp1BeXh4nT57kiSeeoHHjxrz55ptXPAZjx46lffv2PPDAA8Xq/JSFw+EgKyvLmbA7fvw4x48fd86/5557sFgsZWorJyfniuf3Tz/9xKJFi9i1axdr1qxx+/fzcpV9fa0I+/fv59Zbb+XNN98sV51XqRzZ2dl4e3s7rzEFBQWYTCbS09OLJf0KORwOHA6Hs5dfRkYGgYGBzvmXn2eF7RV+H6ZOnaqef3LNquM1sKoqy/3PjBkz+Otf/0qDBg1K/R1b9DpQlN1uJycnB19f31K3bbPZMJvNZX7hSmqO8twfi4iISMWpHq/wi1QxVenm1Waz8cc//tE5pNOgQYN4//33mTJlCrNmzcLf3x+TyURwcDBPPvkkEyZMwM/Pj5SUFDp16sSjjz5aarsrV67kiy++4J///CcAkZGRrFmzhjZt2vDaa6/Rv39/nn/+efz9/TEajXh6ejJv3rxqP7RiabUir6XGo1y/6z2/ChN/cKlGkslkUuLvOnl4eLg7hDKryOtzWRN/AGfOnOGNN95g48aNBAcHM2bMGGbPns3kyZMZPnx4sWv0L7/8wvr16wkMDCQlJYVFixY5awwWKigoKPb5xIkTJdq5/fbbiy0zb948GjduzIgRI2jcuHGpcf7W8bFYLDRv3pwPP/yQxYsX06FDBz744INS69BOmjSJM2fOlOu6bzAYivXU8/DwKPb5Wl5Qudr57eHhwUMPPVTsBQ6RmqDo70LAeZ6WlviDS+dc4XlnNBqLJf6g5HlW3e/3RG40Zbn/6dWrF6GhoVd8uabodaAoo9F4xcQfVK/7RBEREZGaRMk/kXJwZw24yzkcDjp16lSsztSqVauctVmWLl3qfID92muvMWDAAGdNh2HDhtGrVy/q1atXot1du3YRERHBsWPHaN68OXfccQcLFy7k3XffxWazlWh/06ZNrFix4orJxOqitFqR11pDTKqOorXrRFzJbrfz2GOPceeddwKX6tFZrVbsdnuxa3RBQQF9+vTh448/BuDo0aM8//zzJerl/fTTT8ycOROLxUJAQAA9e/Ys0c78+fOZMWMG8+fPZ/r06RW2LwaDgVq1ajlrhfXr14+nn36a4cOHF1uuZcuWtGzZskK22bBhQxo2bFghbRXVrFkzmjVrpkSFiIjUeIUvEImIiIhIzaBxGUTKYc+ePfTo0YOOHTvy2WefuTscvvzyS6ZOncrUqVOJjY0tNm/69OlMnTqVN954g59++qlYwurWW28t0asN4LvvviMyMpIRI0bwj3/8A7jUG+SRRx7hzTffLDWGqKgoDh48WIF7VbVERETwwQcfcPDgQQYOHKhhU0WkhLfeest5vS2q6DX63//+d7FeeS1atCAhIaFEW35+fpjNZmbNmsW+fftKtBMbG0t8fDwA8fHxuGIUd29vb+699162bdvG+vXrGTJkCFlZWRW+HRERERERERERqVjq+SdyHWJiYujevbuzBpy73H333cV6/hX10ksvOXv+vfTSS+zbt8/Z8+/HH39k0KBBJdb5xz/+QVBQEMuXL2fv3r3YbDbndjZu3Fjqdv79738TERFREbtT5bz++utXrZElIgKU6PlXqOg12mazsWDBAue8kydPltr7GqBu3boAzmtP0XYKCgqw2+3ONl3FYrHQpEkT3nvvPZYtW0aHDh147733iIyMdNk2RURERERERETk+ij5J1JEafXeSlNda8CNGzeOsWPHsnPnTtLS0mjbti033XRTsWXS09PJzMxk2bJlAHz44Yds2rTJOX/OnDnccsstTJ06FYCZM2eSlZWFw+Eo0dvlRlGVajyKSPXm4eHBiBEjGDp0KI0aNSI+Pp5XX331mtsxmUwkJyezZMkSfv75Z5f0/CtkMBgIDAzkySefpF27djz88MOMGzeO0aNHqxe0iIiIiIiIiEgVpOSfSBGl1XsrTVWqAefp6Vmi119h7ai1a9cWm+7v7897771HdnY2np6emEwm7HZ7sV4jXl5evPvuu87PAwcOBHD2EAwJCXEOUXd5+yIiNVXDhg3x8PBwfg4JCSE6OhqgxDV60KBBDBw4kOzsbPz8/ACctVQL+fr6OmtWrlq1qtR2Nm3aRH5+PhMmTCi2nKt4eXlx11138a9//YvJkyfz+eefs3LlSgICAly63YpiNuu2V0RERERERERqBj0FESmniIgIZ9Kvug0H6ePj4/x3XFxcsbqFQUFBDBkyxB1hVTuu7vFiNBqdiQERubFcfn6vX7+elJQU5+fc3NwytVE04VgZzGYzDRo0YMWKFURHR9OyZUtatGjh0p6HFeHgwYMEBwe7OwwRERERERERkUqh5J9IOdxINeCaN29O8+bN3R1GtZSamurSuleHDx+mVq1aLmtfRKqOwYMHF/tc2GuwKjIYDAQEBPD444/Tt29fkpKSypSsdKeAgABCQ0PdHYaIiIiIiIiISKVQ8k+kHFQDTgBiY2PJzc112UNvT09PPD09XdK2SE1z5swZNm/e7LKhH2NjY2vc+erl5UWTLBVsmQAAIABJREFUJk1o0qSJu0MREREREREREZEilPwTqUBxcXFMmzbNZcNBHjx4kMDAQJe0LddOyTmR6mPy5Mns2LGDjIwMl7Q/ePBgateu7ZK2RUREREREREREroWSfyIVaN26dfz888+kpqa6pP3ly5cTEhLikrZFRG5kEydOJCsri6ysLJe07+vri6+vr0vaFhERERERERERuRZK/olUoPvuu4/8/HwKCgpc0r7JZHLZkHUiIjcyHx8ffHx8VPdNRERERERERERueMoiiFQgk8mEyWRydxgiIiIiIiIiIiIiIlJDGd0dgIiIiIiIiIiIiIiIiIhUDPX8E6lBevbsSUZGBna7vVK2l5iYSExMjIbZExEREakhbPl2Tl3M5pf0XNJz8sjLy8dot+NrMVDLx4Om4UEE+nq6O0wREREREZEbmpJ/IjVIfHw8O3bsqLS6gR07diQ5ObnMyb/z589js9lcGlN4eDgGg8Gl2xARERGpiX6+mM3JpCzqBnpxS3gAvp4mzCYjBXYHWdY8ziVn8fXB04T4e3JbRH2MRt2TiYiIiIiIuIKSfyI1iMViISQkpNKSf97e3ly8eLHMyzdr1ozOnTu7LDm3fft2zp07R506dVzSvoiIiEhNlWMrINOaT8fmtbGYileXMBkNBPh4EODjQdOwIPYfSSAlPYfaQT5uilZEREREROTGpuSfiFQZzZs3Z+vWrS5LTrZt25aUlBQl/0RcwGAwVNqLBSIiUvV4e5iICA9wfrY7IMOaR3ZuPl4WIwHeHpiMBoxGA21/H+7GSEVERERERG58ekonIlWGq2sRFhQUXFNPRKla4uLiuOeee9wdhlzBgQMHCA4OdncYIiLiZg4HxF/IIi4pC7PJiKfJQE62lYyMHBqF+hLZrC4mo/G3GxIREREREZFyU/JPRESqhUOHDpGcnExGRoa7Q5FS+Pv7l7m+p4iI3Lgyc/PJthXwxxYheJr/l+Sz5Rfw4/FznLuYSVhowFVaEBERERERkeul5J+IiFQLDRo0oEGDBu4OQ0RERK7C38tMq/CSyT0Ps4m2LcPcEJGIiIiIiEjNo/FWROSapaWlMXfuXHeHISIiIi40ceJEPv3002ta58KFC+Tl5RWblpqaSmZmpvNzcnIyOTk5xZZJTEwkOzubtLQ057S8vDwuXLhAZmYm6enp5dgDcbeULBvfn0oh8WKWu0MRERERERGpUZT8E5FrcuTIER5++GH27Nnj7lBERESqrX379pGUlMS+ffvcHcoV7dmzhx49etCxY0c+++yzMq2zePFizp496/z87LPPEhcXxwsvvOCcNmnSJPLz84utN336dE6fPs3hw4ed006dOsXSpUvZsWMHW7duvc69kcpmzStg94lkjv6Swf8d+JnktGx3hyQiIiIiIlJjaNhPEbkmAQEBbNiwgYceesjdoYiIiFRL+/bto127dtjtdtq1a8fevXtp27atu8O6opiYGLp3706HDh0YMmRIsXmrVq3i1KlT5OTk8PjjjwPgcDiYN28enTp1Yvv27QwcOJDY2FgcDgfJycn4+fmxc+dOYmJiuHjxIosWLQJw9vw7efIkS5YsweFwEBQUVGxbiYmJnDhxgieffJKIiIjKOwhyzbJtBTgcv35wQGqGleBAH7fGJCIiIiIiUlMo+Sciv2nLli2cPn2aO++8k8jISHeHIyIiUq3t3LkTu90OgN1up0+fPtStW9fNUZVUtBceXEoCnj9/vti048eP069fP1q0aMHTTz9NcHAwEyZMYPz48XTp0oU2bdrQpk0bunbtyldffcX+/fsZPnw4WVlZjBw5ksWLF/Ptt98CcPHiRRISEti0aROvvPIKR44c4V//+lexbfXu3Zt+/fqxZs0a5s+f7/qDIOUW5ONBLR8LGTk2Av08aVAv0N0hiYiIiIiI1BhK/oncgCZOnEiPHj3o3r37Na976NAhZs+e7fwcGBjIY489hqenJ4GBFfPQ5lrjGzRoEIsWLSI8PJzXXnuNyZMnk5KSwowZM/D29sbLy4s5c+bw0ksvceTIEYKCgoiKimLo0KEVEq+IiEhF6tKlC0ajEbvdjtFoZMuWLVWy51/79u2dw3y3atWKWbNm0bx58xKxhoaG4u3t7RzK8+6772b79u3cd999zmUGDx7MvHnzSEtLY9y4cQwePJguXbrg7+/vTIQWslqt+Pr6EhoaWiKmOnXqYDabSwwbWpP8/PPPWCwWbrrppqsul5CQUKxWYosWLTAaS6/6kJiY6Gzv/PnznDp1isjISLy8vModp9EA7ZvVJrJ+ID6eJowGQ7nbEhERERERkWujmn8iN6Dy1Ogp1KpVKzZs2MCGDRto0aIFt912G7fffjvdu3enYcOGbonPz8+POXPmAJceeAHMmTOH2bNns3DhQv70pz+xcuVKZs6cSfv27Rk1apQSfyIiUmW1bduWvXv3EhYWVuWH/IyIiOCDDz7g4MGDDBw4EEMpCZw5c+Ywfvx4hg8fDkC/fv2cQ3umpaXx1VdfUatWLaxWK23atAEuDfGZlJTEyZMnSUtLK9beiBEjGDduHAsWLHD9DlYzaWlpPProo6Smpv7mspMnT2br1q18/PHHfPzxx+Tl5V1x2aeeegqAFStWMHfuXA4cOEC/fv04duxYiWW3bdtGTExMmeI1AH5eZiX+REREREREKpl6/oncwIrW6Cnam68s1q1bx4ULF3jxxRdLnb958+ZKi8/f35+oqCjWrVvnnJaenk6dOnUAiIqKYsuWLdcdj4iISGVp27YtoaGhVTrx9/rrrxMVFXXF3mKFnnvuORo0aIDFYqFTp04AziE57777bhy/Fn5btmyZc52NGzeSk5ODr68vAH/5y1+KtdmxY0fMZvMVt/3yyy+Xb6equfXr15OTk8OJEyd44403aNWqFZmZmWRmZpKbm0uDBg04cOCAs47i5MmTMZsv/clnt9t5/PHHCQwMxMvLi9mzZ7NkyRLOnz9PbGwsBQUFbN68ma1btwLQtWtXZs2aRZcuXejZsyc2m40dO3awc+dOgoOD6dChg9uOg4iIiIiIiFydkn8i1dyhQ4ecb9EXuvwt7ZiYGKZMmVLmIbIOHjzIihUr2LZt23XHt2XLFiZMmFBsWmk1hK4Wn8PhYNCgQYwaNcr51rrFYsFqteLl5UVcXByNGjUqUzybN2/m8ccfv+L8Q4cOlakdERGRG11Zkju9evUiNDQUi8VS6nyDwVBqb0Gj0ehM/JXGw8Oj7IHWIN27dyc+Ph5PT0+aNGnC+PHjuf/++/noo4+YNGkS3bp1IyQkxDlc65gxYzAYDNSpU4fnn3+e+Ph4tm/fzsMPP8zJkyc5e/YsCxYs4PvvvycxMZGwsDDntho3bkxSUhLHjx/HarVitVo5ceIEnTt3pmXLlsXiOnDgQIn7UXGNQ4cOXbUXp4iIiIiICCj5J1LtlfbHf2k1egYMGFCm3gXJycmMGzeO9evXV8iDtz59+pQYtqu88c2ZM4c77rgDgClTpjBmzBiaNGnC+fPnWbhwYZnieeCBB3jllVfKsSciIiJyuaioKHeHUGOFh4cDUKtWLTw8PPDx8SEoKAhPT0/nC1Vvv/22s+dffn6+c9QEHx8f0tLSnPWcQ0NDqVevHqdOncLhcGAwGIiNjaVRo0bO+pRWq/WKsbRu3ZpXX33Vlbsrv1KSVUREREREykLJP5EbVEREhDOp9lvDdRX10ksvkZ6ezhNPPAGAt7c3a9ascWt8ixcvBqB+/fokJCQA8Lvf/Y7Vq1c7e/8VGjduXIXHKiIiV9ezZ08yMjKw2+0u35bBYCAhIYGYmBhCQ0MBsOXbOXUxm1/Sc0nPySMvLx+j3Y6vxUAtHw+ahgcR6Ovp8thEqprCnn8As2bNKjavRYsWLF++nLlz5/LNN99gNpuZMGECAwcOpGHDhpw6dYqlS5eyd+9epk2bRnBwMCEhIYSFhREdHU3nzp3dsUsiIiIiIiJSBkr+idyAylqjpzSV8db29cR3uaKJPxERcY/4+Hh27Njh7GHkah07diQ5OZnQ0FB+vpjNyaQs6gZ6cUt4AL6eJswmIwV2B1nWPM4lZ/H1wdOE+HtyW0R9jMaSQ1CKVBf169d31lMstHbtWgDnKAj9+/cHLiXlL7dq1SoAoqOjAVi+fDlWq9VZe7lHjx5069aNjIwMZ6/AXr160bVrV7y9vZ3tdOvWrQL3SkRERERERCqakn8iN6Cy1Ohxp6oen4iIXBuLxUJISEilJf+8vb1JTk4mx1ZApjWfjs1rYzEVf6HEZDQQ4ONBgI8HTcOC2H8kgZT0HGoH+VRKjCLVxeUvUhmNRmfir1DRxB+AyWRyeVwiIiIiIiJSfkr+iYiIiEi15O1hIiI8wPnZ7oAMax7Zufl4WYwEeHtgMhowGg20/X24GyMVEREREREREak8Sv6JiIiISLXmcED8hSzikrIwm4x4mgzkZFvJyMihUagvkc3qYqqAoaZFRERERERERKoDJf9EREREpFrLzM0n21bAH1uE4Gn+X5LPll/Aj8fPce5iJmGhAVdpQUREqrujR4/SvHlzDIbrr+1qt9srpD65iIiIiIi76G5WRERERKo1fy8zrcIDiiX+ADzMJtq2DFPiT0TkBvfJJ5/w9ttv43A4rqudvLw8Ro0axbx583j44Yf58ssv2b9/PydOnLjqehs3bgTgoYceuq7ti4iIiIhUFPX8ExERERG3W7lyJbfffjuRkZHX1U5Klo34C1nU8/Pgptq+FRSdiIhUZVu3bsVms/HOO+/wyy+/0KNHD1atWoWnpyd33XUXjRo1YsOGDRQUFFCvXj3S0tLw9/fnscceY9asWfj7+xMREUGHDh2w2WzMnDmT/Px8kpOTmTZtGuHh4QwcOJB33nmHvLw8pk6dyq5du0hISKBNmzYsWLCAZs2akZOTA8CYMWNo3rw5cXFxvPXWW24+OiIiIiJSEyn5JyIiIiJuNXv2bNavX88777xzXe1Y8wrYfSKZ9GwbR7KyuO+2RgQH+lRQlCIiUlXdeeed+Pn5sX//fu69914iIyPp168f6enpvPfee0ycOBE/Pz/Gjx/P2LFjWbt2LcOHD+ejjz7CYrHwpz/9iVdffZX+/ftz//33M2LECMxmM1OmTKFNmzZ07tyZOnXq0KtXL7777ju2b99OZmYm9957L506dWLDhg20bt3aGc+JEyd4++23GT16NFarFS8vLzceHRGR/3E4HGQlJJC+YgX2vXshNdU5vSwMBgMOHx8KmjfH46GHCGzdGh8fnwoZcllERCqWkn8iUmVkZ2dz5swZzGbXXJrS0tJc0q6ISEVLSUlxdwiVatiwYfj7+193O9m2ApzPLRyQmmFV8k9EpIapXbs2O3bsYN++fTz44IPY7XYAQkNDMZvN+Pn5AZceYFutVmrXro3ZbGbmzJkkJSXxxz/+kQcffJC0tDTGjh1LVFQUAAsXLuTuu++mWbNmnD592rmt0tStWxcADw8P8vPzXb3LIiJlkp+fT8rGjRQsXEjA0KF4PvsspptvhmuscWpPTCRv3z5Sn3mGhA4dCJoyhVq/XktFRKTq0FVZRKqMli1bMmzYMGw2m0va9/T0vOIf6CIiVUmzZs3cHYJLJSYmsnHjRry9vXnkkUdo2rRphbQb5ONBLR8LGTk2Av08aVAvsELaFRGR6sXX15eTJ0/y8ccfk5+fz4ULF0pdrmfPnkyZMgW73Y6HhwcNGjRg3LhxREZGkpKSQp8+ffDw8GDFihXUrVuXb775Bn9/f3bv3k2bNm2c7WRmZrJ79+7K2j0RkWvmcDhIXrcOw4YN1P1//w9DQPlrYhtDQjBHRuI9ZAgp8+Zxcdo0eOUVQkJC1ANQRKQKUfJPpAaJi4tj2rRplXYzdvDgQQIDy/7gdeXKlSQnJ3Px4kWXxFO7dm2Cg4Nd0raISEUymUzuDqFUEydOpEePHnTv3v2a1ps9ezaHDh0CwGaz8eijj9KsWTM8PDwqND6jAdo3q01k/UB8PE0Y9fBBRKRGGDRoEHApmQeXXirs1KkTXl5eTJ06tdjfP8uXLwdg1apVAKxZs4bc3Fw8PT0B+Oijj8jIyMDX1xfjr71hevfujdlsdg7h6XA4irW5ceNGjEYjmzdvBmDt2rUALF261IV7/T9l/f38448/8v/Zu/M4m8v+j+Pvs80+Y2bMMNbsScnQXYw2ldBdyDJEEyqkYmS5hcqSUpZSbneptFJx39xJSDc34pZlIpIlWbP+GMYsZ+bs5/eHnIyZYTAzh5nX8/HwMOec63t9P98zM2e+5/s+13XVrFlToaFXtiauzWbTr7/+quuuu06RkZGXtO2RI0dUuXLlK9o/il52drZcLpccDofKlSsni8Ui6cwHtipVqiRJOn78uA4cOKCGDRsyle1VrKDXA+vBg/K89ZYqrlghwx8joAuS9frrcu/bJ3PdugodOrTghiaTokaPlq1dOx1buFAhXbpc8esLAKDoEP4BZcicOXP0+++/6/Qfc7oXt+nTpysmJqbQ7aOjoxUdHV3qR7wAwMUU1Ui4orZ+/XpNnTpVCQkJGj16tFq3bl2o7caOHStJ+v333/XYY4/pzjvvvOSLhYVlkBQWxCkuAJR1Z8OJwnzw8Wzwd9b5U1GfncquoD79/aGdwvx9XrJkiRYsWKBx48Zd0cX5nJwc9ejRQ61bt9bEiRM1YMAAnThxQjExMUpISChwu5EjR2r8+PFKTk7W3LlzL3v/KB4//PCDjh07psjISDVv3tz3odm//e1vmjVrlj766CNt3LhRjRs31ujRo/X222+rbt26ufr45ptvLvpzgOJX0OtB5nvvKaJfv4sGf461ayWnU+Xee08Zzz0n54YNstx2W8EbGAyKnTxZ2U8+qdOtWhH+AcBVhCsjQBnSqlUruVwuud3uEtmfyWRizncAuAwNGzb0dwkXtHbtWrVp08Z3UaEwcnJy1LNnT02fPj3f4G/ohT5VDAAALupCf59nzZolo9Gob775Rhs3blTr1q21Zs0aWa1WNWvWTDfccINmz56tjIwMNWzYUAcOHFCdOnXUq1cvjRkzRk6nU61bt1b9+vVlMBjUrl07dezYUcePH9f06dMVHR2tqKgozZgxQ2lpaUpOTtZPP/2kjRs36uabb9bixYvVpUsXSZLH41H//v1Vrlw5BQUFFfpcApfP4XDorbfe0rBhw/Tpp5+qefPm+uijj3zf/woVKkiSUlNT5XQ6NXXqVB0/flw7duyQ2+3W/PnztWDBAklSy5YtNWrUKN1777166KGH5HA4tGzZMi1fvlzR0dGEf1eJ818Pblq/XoHdul10u4CEBAX88T10Hz4sY1zcRbcx16unwH37lJaWpipVqlxx7QCAosFVeaAMMZlMfv9UKq4927Zty7WmCYCS8f777/u7hDx+++23XLfXrl2rIUOGyOVyXXTbfv36afDgwbrhhhuKpJavvvpKTz/9dJH05S9np0IFgLKIc8yiU5i/z23atFFcXJxWrlyppKQkVa1aVRUqVJDD4dD48eM1ePBgRUdHa8iQIUpOTtbs2bOVlJSk0NBQhYSE6L777tOoUaP0n//8R/3799fIkSN19OhRvfbaa7rjjjtUv359ZWVlqXfv3lq9erXmzZsnj8ejpKQkNW3aVGvWrPF9vz0ej/bv36/Fixere/fucjqdvmkmUTwCAgK0a9cu2e12/fe//1XLli3VoUOHXN9/Sdq9e7f27t2rw4cPa8KECfrpp5909OjRXFO11qhRQydOnNDu3btls9lks9m0d+9e38/Bub7++msNGDCgRI+1rNu5c2eu22dfD6YYDL4pXC/K41HG4MEKbNNGpurVL97eYJA3JEQOu/0yKgYAFBfCPwDABTmdTn+XAJQ577zzjp555hl/l5FHs2bNtH79eknSjTfeqFGjRikxMVFNmjS54HZTpkxRvXr11LZt2yKrpUOHDpo4cWKR9QcAKFmcYxadS/37XKVKFe3cuVOzZ89Wp06dfGvwVqxYUSEhIb4R+mazWadPn5bRaFRqaqo6deqklJQUeTwezZgxQydPntTw4cPVtGlTSdK3334ri8WiypUry+Px+PaVn7MjzUJCQuR2uwn/SkDHjh01fvx43Xrrrfl+/8+yWq0qV66cJCk2NlZxcXE6cOCAb63LHTt26LrrrpPRaJTH45HNZitwn+3bt9frr79erMeF3Ap6PTjUqZNcW7Yo4N57L9yBx6PTPXooKDFRQe3bF2qfXqtVcjhk5vcYAK4qhH8AAABXma1bt/q7hAI1aNDAdxHBaDRetH16erpefPFFPfDAA+rcubMkqWfPnkUaBAK4ejhcHh04ma1jGXZl5DjldLpk9HgUajEoKiRAtatEqlxo4MU7AnBJLvXvs91ul91u17p165SdnV1guw4dOmjAgAGyWq2y2Wzq3r27evfurblz5+rEiRN6+umnlZ2drRkzZqhKlSpyOp3aunWr7Ha7IiIifP2kp6drzZo1RXKsuDytW7fWoEGD9MMPP2j9+vUFfv9r1aqluXPnauzYsdqwYYPMZrOSk5PVpUsXVa9eXQcOHNC0adOUkpKi4cOHKzo6WjExMapcubJmzJihO+64w09HiLPyez3wPvigMufNU/mLhH85c+bIsWaNvDabcmbOVNiIEbLccsuFt1m0SKduu01RxbSmNwDg8hi8Xq/X30UAxSE+Pl6bN28u9m0AAChqrVq10n/+8x9/l5HH2rVr1bRp0zwXFRs3bqyUlJQSW+e1UaNGmj59ut/WlNmzZ49iY2Nlt9sVGxsrSTp58qRMJlO+6xmWJps3b1bjxo3197//Xf379/d3OfCzsz8PQ4cO1aRJk/T7yWztO2FVxXJBqlQuSKGBJplNRrk9XlltTv3fKat2HzypmPBA3dKgqoxGg78P4ZrD+xXk53L/PlutVgUHB180LPR6vcrKylJ4eLjvvuzsbAUHB8tgOPN77Ha7ZTKZlJGRkSv0O7cPr9dbqGASJeNi33+bzaagoCDfbY/Ho8zMTN+oQOnMms7BwcG+22d/DqTLO187dOiQYmNjdejQIdWuXVvSmVHCR48eVfU/pp88OwIR+Svo9SAjPV1piYmq/Morstx2W5Htz5OWpt9btNDxKVNU/y9/yff3HwDgH5x1AQAAXGXcbre/S8hXQkJCqb9o98orr+QaeZmYmJinzbhx42S1WnX69GnffUuXLtX//ve/EqkRuBrlONzKsrnUvG551a8UrnIhFplNZ14vTEaDIkICVLdqlFo3rS2Tyai0jBw/VwyUHpf79zk0NLRQ2xkMhlzBn3Rmus5zA5izgU9BF/4NBkOpP4e41lzs+39u8CdJRqMxV/AnKVfwJ/35c3C5ZsyYoaNHj+rw4cO++06ePKmpU6cqJydHffr00eDBg9WrVy998MEH+fYxb968K6rhWlfQ60FYeLjMkybpWP/+yvr4Y6kIxoI4fvhBB++7T8f69lXV+vUVFhZ2xX0CAIoO034CAABcZXbv3u3vEq45Gzdu1JdffqmwsDDFxcXp0Ucf1bBhwxQYGKgWLVqoWrVqmjlzpu699179+uuvslqtcjgceumllzRq1CiFh4erQYMGeuyxx/TWW29pypQpWrVqlRISEjRq1Cg5nU6FhYXphRdekCQdOXJER48e1erVq3X48GHt379fHTp08POzAPhPcIBJDar8edHf45UybU5l210KshgVERwgk9Ego9GgJjfkvwYYAKB0mzJlipKSkhQVFaWXX35ZnTp10vvvvy+n06mhQ4f62q1YsUIhISGaNWuW4uLiJEnvvvuuEhMT1apVK0lSjx491LZtW7333nsaPXq0vv32WwUFBWnChAkKDAzUQw895JdjvFoZjUbF3nCDTsyZoyPjxil0wgSZ6teXpU4d6RKDeffhw3Js2aKs2FiljR2r6k2aKCYmhoAfAK4yhH8AAABXmaioKH+XcM3JzMxU+fLlNWLECHXu3Fk9evRQx44dlZGRoc8//1wDBw5UbGys2rVrp27duqlHjx6Kj4/XV199JYvForvuukuTJk1S586dlZqaKpvNpi+++ELjx4/XL7/8ooyMDE2YMMEX/mVmZio1NVVLlizRP//5T02bNs3PzwBwdfB6pf2pVu05YZXZZFSgyaCcbJsyM3N0XWyoGtapKBMXBwGgTLr11lv173//W9WqVdP111+vChUqqG3bttq4caMWL17sa7dv3z698847mjp1qvbv369PPvlE27dvV48ePXxtGjdurN9++0379u2TdGaEYFxcnOrVq0fwV4CAgADFVa+ujDfeUOqhQ8r68Ue5U1Pl8XguraPrrpOhZ09F1qyp+jExioiIuOJRnwCAokf4BwAoFNZWAHC1OzsVldFo1LJly7Rp0yZ17drVd0GjfPnykqSPPvpI3333nZ588km1b99e5cuXl9ls1ksvvSRJ6tKliz755BMZjUa5XC5NmzZNY8aMUUhISJ59nl0+OzAwsCQOEbjqZdldyna4dWe9GAWa/wz5HC63ftn9f/q/k1mqHHt1rwdUVtbwBICSdvvtt+vTTz/Vzz//rMmTJ+vFF1/UPffcozp16ujgwYO52trtdgUEBPjOsWrXrq1Nmzb5Rv798ssveuSRR3znYg6Ho2QP5hplMpkUFRWlyMhIuerXl9vtlsfj8T2PF3N2Cl+TySSz2cw1AgC4ihH+AUAZtHfvXvXs2VNNmzaVJD3yyCP68ssvNWTIEN/0dyaTSdHR0Ro0aJCSk5MVFhamtLQ03X777erTp89F99G7d29fP5L00ksv5VkjoiDz5s1Tp06dLv8AAZRJq1evVmZmpq677jqFhoZq3759WrhwoVwul1JTU33tBg4cqPr166tcuXJ66KGHNHz4cHk8HgUEBKhZs2Z68MEHFR8fr/fff19ms1mZmZlavHixwsLCtHbt2lz7vO666/Taa6/pl19+Ubdu3Ur6kIEfa5b6AAAgAElEQVSrTniQWTdWyRvuBZhNalK/conVcdddd+m2226T1+uV1WrVP/7xj0KPSli6dKnCwsIYOQIARcxgMKhatWrKyMhQcHCwIiIitGHDBoWHh2vdunVq2LChr2379u01ZMgQRUdHS5L69++vfv36afny5UpPT1eTJk1UqVIlVahQQRMmTNDu3btVrVo1VahQQV9++SXnZRdhMBhksVhksVj8XQoAoJgQ/gFAGeTxeHT77bfr9ddf9933ySefyOPxyGazadq0ab4F3t98881811Y4u/bCWaNGjVJcXJzWrVunN954I08/ktS3b1/Vrl1bWVlZioqK0s6dO/X++++rV69eqlevnk6ePKknnnhCEyZMUHp6uipXrqw2bdroxRdf1NixY5lKBMAFtWnTRo888ojvE+K33367goKCNHTo0FyfSn7//feVmZmpwYMHS5Jmzpwpu93u285oNOrnn3/2tV+wYIGMRqOGDh0qr9erhISEXPs9d1sAf0qzOrQ/1aq4sABVKh9aqG3OPSd444038qy52bNnT8XHx6tu3bpas2aNsrKyNGbMGH344Ye+kQsjRoxQhQoVNHnyZEnSsGHDtG/fPm3btk2bNm1Sdna2xowZo/nz52vLli3KyMjQ22+/rc8//9y3hmerVq30+uuva/jw4frss89066236oYbbijOpwsAyoRRo0b5vh49erRsNpuCgoJyzTTzySefSDoTAJ57jvX5558rOztbgYGBvveGkyZN8vUhSffff79cLlcJHQ0AAFcvFlsAgDJqxYoVGjp0qIYOHaodO3bkemzEiBEaOnSo3n77bW3fvl1NmjTxPXZ2bYXz/fTTT3riiSfUpk0bbdy4UdKZ0X7Dhw/Xq6++Kkk6fPiwnn/+eW3dulWDBw+W0WiUzWbT0aNHNXLkSAUGBspisahevXp69NFHNXv2bGVmZiojI4PgD8AF1ahRQ40aNcp1gejsRaD8piMKDw/PdftC4Z3FYvG9BuXXF8EfkJfN6da6vae061imvt/yu06lZxdqu3PPCXbt2qWWLVvq9ttv15IlSyRJx48f16BBg7RhwwbVrVtXQ4YMUVZWlr7//ns1a9ZMW7Zs0aFDh3Tw4EENHz5cvXr1ks1mU+3atTVlyhTdc889Kl++vL766ivddNNNatmypdLT07Vjxw4tWbJEL730kho3bqzQ0FDt3LlTdrtdK1asIPgDgGJyofO1/M6xQkJC8rw3PPcDp5JkNpf+sQ6unTuVOWZMrn/uQ4cuul32jBm5btuXLJH7yJFc9+XMmiXnxo3KOufDwpIkt1uZzz+ff8der3K++EIZQ4bI+uab8qanF1iD58SJi9YJALhyhH8AUEbdc889mjx5siZPnpzngtZrr72myZMna+DAgb61Fc765ZdfVKdOnTz9lStXTkFBQQoICPB90nLcuHF6/fXX9cILL0iSYmNjJcm3ho7ZbJbL5fJNBxoUFORbqyEwMFAVK1bUBx98oO7duxfx0QMobWrUqKH4+Hh/lwHgD9kOt3zLB3ml05m2Qm137jnBsWPHNG3aNNWqVcu35ubZtTvHjh2runXrasSIEfr5558VFRUls9ms/v37KyoqStWqVdPrr7+uBx98UDfddJMMBoOCg4NlNpt1xx136N5779WYMWMUHR2tSpUqyeVy5VnDs1OnTnr33XcJ/gAAVx1TzZoK7ddPhpAQmapWVWi/fjIGB8v9x9qJ7oMH5c3IyLOd69df5fjf/87c8HqVNXGiTLGxcvzwg5wpKZIkz7Fj8mZmKqhDhz82csmxerXc//d/cu3Zk2896f37y2u1KmzECJlvvlmn2rWTnE65du0608Djkeu33+T69VdlDBggzzlT8gMAigfhHwDggvr3769PP/1Uw4cP19NPP+1bW6Ewzo4gHDp0qPYU8CZBkvbt26e33npLP//8s2644QZlZWVp3bp1euKJJ/Tll1+qWbNmRXU4AACgBESGBCgq5Mw6QuXCAlUtrnDr/p5/TlDQmpsTJ07U6tWrFRISolq1aik0NFRr167VV199peDgYF+7xMREff/99zp8+LDuv/9+LV++XF9++aWMRqMsFotWrFghr9er5cuX+9bwXLlypSTpr3/9qz744AM99thjRffEAABQBAyBgTLGxckYESFjZKSMcXEyREQoY9AgeY4fV0ZysnTeiEhJCnnqKeV89JEkybFypQJbtJD17bfl2rFD9sWLZZ02zdc2Y8gQSVL6c8/J/fvvss2Zk38xLpdc27YppE8fGWNiFNiypQKaN5d91SplDhsmSfJmZytzxAh5Dh+WNztbcjqL+BkBAJyv9I+DBwDkUadOnVzr/UnStD9O8mfNmpXr/vDw8DxrK3g8Ht8IPenM+lhnt+vcubMk6aGHHsqz37NrN5z9/+w+b7rpJj3zzDMaOHCgDAaD5s2bJ4PBoCVLlqhPnz5XfsAAitWePXs0fPjwfKdrKg4///yzIiIiSmRfQGnkdDqVnp6umJiYPI8dP35cBw4cUMOGDfNMo3YpjAapWZ3yali1nEICTTIW8vXh/HOCgtbcfP7552W1WhUUFCSTyaT33nsv15pPc+fO9fX5+eefS5IGDx6ca43OOXPmyOFwKDAw0LfW1LmPHzhwQPfdd1+hP/QEAIBfWSwKf+UVpSYkKHrBAhkCAvI0MdepI09amrwZGcr+9FOFjx8vb2ambP/8pzwZGfIeOyZz7dq5tnHv2qXgadPkzcyUY82aPH160tNlOG9KfWNMjLynT+dpa6pVS8bq1WXkbysAFDvCPwBAoZydbks6c6H/u+++892OjIxUUlLSZffdvn17BZzzxsRkMungwYM6evQo4R9wDZgzZ45+//13nc7nDX5xmD59er6hBYDCOXDggGbNmqUxY8bkuv+jjz7Sxo0b1bhxY40ePVpvv/226tatm6vNN998o5iYGF8IdyEGSWFBl/aW8/xzAovF8md/5wWIoaGhuW4XJqw8d/0og8Hgu32273MfnzdvnsaNG3cJ1QMA4F/OjRsV0KyZnD/+KPONN+bbJrhHD2W//77kdstUubJOtWypyLlz5d6zR9kffJB3gz+mxfZkZubbn7F8eXlPnpQ3PV2GP6bvtq9cqXLvvKOcWbMkj0feArYFABQfwj8AwCWrW7dunouBV+Lhhx/Oc1+1atX05JNPFtk+ABSfVq1ayeVyye12l8j+TCaTzGZOYwFJ8ng86tOnjwICAjRy5EhNmTJFBoNBycnJysnJ0YwZM5SWlqbk5GRFRERo6tSp8nq9ioyM1Lhx4/TCCy9o165d2rVrl+bPn68FCxZIklq2bKlRo0bp3nvv1UMPPSSHw6Fly5Zp+fLlio6OLlT4dznyOyfwl8GDB/u7BAAACs196JDsy5Yp8vPPdbpHDwXcfbdMNWrkaRfUtq1ONGigiHfekSQZK1aUddIkGSIi5Nq5U6aKFXO1D2zdWunPPCNjbKz+XNA3t4i33lJat24y164t96FDCu7USaZq1RTQvLnSn3lGpmrVJINBxooV5dq8Wc7162Vp2rTInwMAwJ+4agKcY9u2bYqPj/d3GQCAMm7btm3+LuGSmEwmmUwmf5cBlEkej0dHjhzRt99+q6eeekrt27eXwWDQq6++qr59+6p3795avXq15s2bp+PHj2vixIn69ddftWjRIsXGxmrlypVaunSpEhMTVblyZV+/NWrU0IkTJ7R7927ZbDbZbDbt3btXd9xxh+rXr5+rhi1btnAOfY5t27bJyVpGAIASENKvn+9rU9Wqivz4Y0lS5GefFbyR2azYXbt8NyM//1xem02GoCCFDRsm/TEaPrpFC0lS6NCh8trtMpwzOv58lttuU/TixfJmZckQGurrI/Rvf5M3J0eGc9bjLb9ypcQH+QCg2PFKC5yDN+kAAAC41lSpUkWSlJmZKYfDIZPJpDZt2ujbb7+VxWJR5cqV5fF4ZLPZFBoaqtjYWEnSI488ohdeeEFOp1M333yzDhw44Fv7bseOHbruuutkNBp92xakUaNGmjRpUokc67WAIBQAcDWwLVgg56ZNue4LGzky37UADWenzi5gjd6zwZ83I0NZb76Z67GA5s0V2KrVmXZhYXm3PSf4k0TwBwAlhFdbAAAAACgFHn/8cX3xxRcym81q2bKlbDabnE6ntm7dKrvdrl69eql///6SpIoVKyoyMlJWq1UPPvigzGazkpOT1aVLF1WvXl0HDhzQtGnTlJKSouHDhys6OloxMTGqXLmyZsyYoTvuuMPPRwsAAC4kqF07BbVrV6R9GiIiFH7emsEAgKsT4R8AAAAAXKPMZrNmzJghSbr//vvVokULuVwuBQcHq2vXrsrIyFBERISvffPmzWU2m2U0GnXq1ClZLBa1++PC4AMPPKDWrVsrMzNT5cqVkyS1bdtWLVu2VPA5n9pv3bp1CR4hAAAAAOBSEf4BAAAAQClhsVhksVh8t88N/iQp4JypvjZt2qQnnnhCgees4WM0Gn3B31nB503XxRqfAAAAAHB1I/wDAAAAgDKoZcuW/i4BAAAAAFAMjP4uAAAAAAAAAAAAAEDRIPwDAAAAAAAAAAAASgnCPwAAAAAAAAAAAKCUIPwDAAAAAAAAAAAASgmzvwsAAAAAcO1bsGCBQkJCJEnZ2dlq166dnysCAAAAAKBsIvwDAAAAcMVCQkJUr149SdKuXbv8XA0AAAAAAGUX4R8AAACAS2I05r96gNfrLeFKAAAAAADA+Qj/AAAAAFwSi8WS5z6v1yu32+37GgAAAAAA+AfhHwAAAIBL5vF4lJ6enus+l8vl+zotLc33dbly5QocLQigcDZt2qQTJ05o06ZNatKkib/LAQAAAHAVI/wDAAAAcMmMRqN2796tkydPKiQkRCEhIXI6nZLOrP+3detWZWdnKyYmRn/5y1/8XC1wbdu0aZNuvfVWeTwe3XrrrUpJSSEABAAAAFAgwj8AAAAAl+WWW27RqlWrFBwcLIvF4gv/QkND5XQ65fV6CSiAIrB8+XJ5PB5JZ0bdtm3bVrGxsX6uqmzbtm2b7zUPAAAAuNoQ/gEAAAC4JGfX9DMajWrWrJnWrFmjsLAw39SeHo9HWVlZuv3225nuEygC9957r4xGozwej4xGo7755huCdT+Lj4/3dwkAAABAgXgnDgAAAOCSOBwO39dBQUGKj49XVlaWHA6HHA6HsrKy1LhxYwUFBfmxSqD0aNKkiVJSUlS5cmWm/AQAAABwUYR/AAAAAK5I+fLlVatWLdlsNtlsNtWqVUvR0dH+LgsoVZo0aaLY2FiCPwAAAAAXxbSfAAAAAK5YzZo1lZaWJoPBoJo1a/q7HAAAAAAAyizCPwAAAACX5NChQzp06JAkyWAwyGQyyWQyqVq1apKkEydOyO12y+12+9YHROlz9meAdR1RXFwulw4cOKDatWuX2D6dTqeOHj2q6tWrl9g+AQAAgKJG+AcAAADgkkyYMEETJkzw3Q4NDVVYWFiuNllZWbJarSVdGvwgNDTU3yWglHrhhRfUvHnzKw7/Pv30Uy1evNj3AYXu3bsXOH3qyZMnNXXqVN1xxx2y2+3q2rXrFe0bAAAA8AfCPwAAAACFEhcXpxdffFE2m012u93f5eAqEBgYqLvuusvfZaAUOn36tFatWqX69etrzJgxslqt6tq1qz7++GM5nU4NHTpUq1atUk5OjrZu3arbb79dGzZsUOfOnVW5cmXNmDFDBoNBvXr1ktPp1OOPP642bdr4+p8xY4bsdru2b9+uLl26KDQ0VLNmzVJcXJykM6MOnU5nnnZ33323v54SAAAAoNAI/wAAAAAUSlxcnMaNG+fvMgCUAZGRkWrUqJESExP16KOPau7cuUpNTVXbtm21ceNGLV68WFlZWbrvvvtUs2ZNHTt2TC+99JLeeustnTp1Si1btlRYWJimTJmipk2b6uOPP9bKlSslSUOGDNGxY8d05513qkOHDpo6daqOHz+uqVOnav/+/frkk098dZzfjvAPAAAA1wLCPwAAAAAAcNUKDw+XxWLR5MmTdc8996hOnTo6ePCgJCk2Nlbp6ekKCwuT2WyWy+WS3W5X+fLlFRgYqMGDB2vNmjV5Rv5JUsWKFRUQEODbJiAgQIGBgXn2f247AAAA4FpA+AcAAAAAAK56ERER2rBhg8LDw7Vu3TrFx8fn2+7xxx/X3LlzFRkZ6RupN2PGDC1btkyS1KpVqzzbtG/fXkOGDFF0dHTxHQAAAABQQgxer9fr7yKA4hAfH6/Nmzf7uwwAAAD4yeLFi7VhwwYZjUbVqlVLXbt2lcVi8WvfgwYN0pQpUwp83G63y263KyIiokjqRMkrzvchvMeRbDabgoKC5PV6ZTAYCmzndrvl9XplNhf+M892uz3fkX/5uRa+F40bN1ZKSsolPQdAUWnUqJGmT5+uhIQEf5cCAECZZPR3AQAAAABQHBYvXqx77rlHffr0UVZWlsaPHy9J2r59u1asWCG73S5J+u233/TTTz/J7Xbrt99+0/fff6/s7GxJ0qlTp7Ry5UqdOnWqUH0fOXJEy5YtU2pqqqQzQcX333+vI0eO+PYlSYcPH9apU6fkcDi0evVq7du3T5I0c+ZM/eMf/5DD4SjmZwe4NgUFBUnSBYM/STKZTJccehU2+AMAAACudoR/AAAAAEqt8uXLq1KlSrrzzjt15MgRrVmzRh9++KFOnjypJ554QpLUoUMHrV69WuvWrdOrr76q9PR0vfzyyzpx4oR69+4tt9ut3r17Ky0t7YJ9p6ena/DgwXK73UpMTJTL5VKPHj18+zp8+LAkac+ePRo+fLhCQ0PVo0cPpaena8qUKfr+++/1+++/y2q1iglaABTWwIEDtWTJkou2++WXX2S1Wq9oXw6HQzt37vT9O378eIFtnU6nUlNTlZWVpYyMjCvaLwAAAC4Ncz8AAAAAKLXGjx+v6OhoWa1WjRo1SlFRUVq3bp22b9+uvXv3SpJiYmKUnJysffv26dixY9q1a5eee+45LV++XE6nU6tXr5bNZtPq1avVrl27AvsODw9X69attW7dOp0+fVo7d+5USEiIOnbsqI4dO0qSTp48qccee0xLly7V6dOntW3bNv34449yuVz6+uuvdfPNNyssLIwRSAAKbf369Zo6daoSEhI0evRotW7dOk+bJUuWaMGCBRo3bpxCQ0Mve1979+5V//791aZNG0nSLbfcogoVKuTb9sCBA5o1a5bi4+OVlZWlpKSky94vAAAALg3hHwAAAIBSa+TIkbrpppt8twcNGqSOHTuqefPmWrx4saQ/pxGsVq2aFixYoI0bN6pbt24aNGiQWrZsqaeeekoul0shISEX7Pvrr7/W4cOHNXr0aP34448KCAjwTR+6Z88eRUdHy+Fw6JFHHtHMmTPVrVs3XX/99Ro+fLjcbrcsFou++OKL4n5KAJRSa9euVZs2bXwh4LlmzZolo9Gob775Rhs3blTr1q21Zs0aWa1WNWvWTDfccINmz56tjIwMNWzYUAcOHFCdOnXUq1cvjRkzRk6nU61bt1aVKlXUrFkzDR061Nf3J598oqNHj2rv3r0aNGiQgoODNXXqVHm9XkVGRhbYrkGDBiX23AAAAJQ1hH8AAAAAyow6deroww8/1HfffafY2FitX7/e99j//vc/TZs2TQ0aNFDt2rXVqlUr9ezZU2lpadq/f7/eeeedPAHguapVq6Z//OMfGj16tKKjo7V06VJVrVpVw4YN0y+//KIvvvhClSpV0t/+9jf16NFDzZo1U+3atTV27FgdOXJEw4YNU506dTRx4kTdddddBY6mAeB/27ZtU3x8vL/LkPTnWqJnrV27VkOGDJHL5fLd16ZNG8XFxWnlypVKSkpS1apVVaFCBTkcDo0fP16DBw9WdHS0hgwZouTkZM2ePVtJSUkKDQ1VSEiI7rvvPo0aNUpTp07VokWLdOzYMUlS7969tXv3brVr104dO3bUzJkzlZqaqokTJ+rXX3/VokWLfDWc3+6VV14pmScIAACgDCL8AwAAAFAqTZs2Lc99zz77rGw2m2+0nyTfWlktWrTQnXfeKZvN5psWb86cOXnaF9R3kyZN9M033yggIEAGg0Fer1cGg0E5OTkKDg6WJC1cuFCS9Nlnn0mS4uPjZbfbc03z2bRpU1kslis5dADFzOl0+rsEn2bNmvk+yHDjjTdq1KhRSkxMVJMmTfJtX6VKFe3cuVOzZ89Wp06dFBAQIEmqWLGiQkJCfKP1zGazTp8+LaPRqNTUVHXq1EmS9OCDD+YK7hYuXKgKFSrIbDbL5XL5XkNjY2Pz7PvcdgAAACg+hH8AAAAAypTzg7xzmUymPOthXaj9+c4N8QwGgyT5gr/CbCOJ4A/AJWvQoIEv9DMajRdtb7fbZbfbtW7dOt/0xPnp0KGDBgwYIKvVKpvNprvvvjvXyL+//OUvebbp1auX+vfvL+lMoAgAAICSZ/B6vV5/FwEUh/j4eG3evNnfZQAAAAAoQ4rzfQjvcZCftWvXqmnTpnlCv8aNGyslJUVmc/6f+7ZarQoODr5oWOj1epWVlaXw8PBC1+RwOGQ2mwsVRKJ0atSokaZPn66EhAR/lwIAQJnEyD8AAAAAAIBr1OWGK+ePci6IwWC4pOBPkm8qUQAAAPgHH8ECAAAAAAAAAAAASgnCPwAAAAAAAAAAAKCUIPwDAAAAAAAAAAAASgnCPwAAAAAAAAAAAKCUIPwDAAAAAAAAAAAASgnCPwAAAAAAAAAAAKCUIPwDAAAAAAAAAAAASgnCPwAAAAAAAAAAAKCUIPwDAAAAAAAAAAAASgnCPwAAAAAAAAAAAKCUIPwDAAAAAAAAAAAASgnCPwAAAAAAAAAAAKCUMPu7AAAAAAAAgPO53W7l5ORow4YNWrhwobKysuTxePxdVrHxer16/fXXFRsb6+9SAAAAcI0j/AMAAAAAAFeFs4Hfjz/+qLlz52rlypWqXr26OnTooGrVqvm7vGLVqVMnDRs2jPAPAAAAV4zwDwAAAAAA+I3b7ZbNZtNPP/2kf/3rX1q+fLmqVKmipKQkjR8/XhEREf4usUTUqVNHJ0+e9HcZAAAAKAUI/wAAAAAAQInyeDyy2WzasmWL/vnPf+q///2v4uLilJSUpJdfflnlypW7ov5dLpdOnTqlChUqFFHFlycjI6PMhJcAAAC4ehD+AQAAAACAyzZw4EA98MADatOmzQXbnQ38tm7dqrlz52rp0qUqX768kpKSNGrUKEVFRV1RHc8++6yCgoI0adIk/fWvf1VCQoJeeuklmc1Fd+lj9OjR2rNnjyQpMTFR7du3v2D77t27a/78+XruuecUHh6u1157rchqAQAAAApC+AcAAAAAAC7b+vXrNXXqVCUkJGj06NFq3bq177Gzgd+OHTv0z3/+U0uXLlW5cuWUlJSkESNGKDo6usjqOHz4sObPn69Vq1bJZDKpQ4cO2r17typUqKDVq1erffv22rBhgw4dOqQWLVooOjpa27Ztk8lk0v79+3Xffffp+++/V1hYmJo1ayZJ2rVrl3bt2qW7775b4eHh2rhxo+bPn+8LFHfu3Kno6GitXbtWt9xyi6pWrSpJ+v777xUQECCDwSCz2axp06bp4YcfLrJjBQAAAC7E6O8CAAAAAADAtW/t2rVq06aNmjdvru+++06//fabXnnlFd19990aMmSI6tSpo//85z9asWKFnnzyySIN/s6VkZEhi8Uii8Wi6dOna/jw4QoMDJTD4dD27dtlNpvVu3dvSdJTTz2l1atXa8eOHWrRooXsdrv+/ve/KyUlRdu3b9eECRNkNpuVlJTk63/x4sVauHChjhw5ounTp+u1115TaGioHnnkEUnSm2++qdWrV+vgwYNKSUkplmMEAAAALoSRfwAAAAAAXAO2bdum+Ph4f5eRx2+//Zbr9tq1azVgwADl5OTo0KFD6tu3r5KTk3XjjTeWSD3x8fGqXLmyb399+vTRrbfequzsbNlsNv300086duyYJMlisahPnz5KTU3V5s2b9eCDDyozM1O7du3SwYMHZbVatWzZMu3cuVOnTp2SJNlsNhmNRnk8HklSz549FR8fr48//ljp6elatmyZFi1aJIPBoBkzZpTIMQMAAADnIvwDAAAAAOAa4HQ6/V1Cvpo1a6b169dLkm688UaNGjVKiYmJcjqdOnz4sP79738rOTlZJ06c0MMPP6zu3burfv36JVZfeHi4JOnll19WixYt1K9fP61atUqSFBgY6GtnsVh8X3u9XplMJvXo0UN//etfNXnyZN9jHTt2zLWOYFBQkCTJYDDI6/UqICBAdrtdQUFBysnJKdZjAwAAAPJD+AcAAAAAAK5IgwYNfKGf0XhmhZGAgADVrFlTycnJ6t27tw4fPqyvv/5aTz/9tE6dOqWOHTuqe/fuqlu3bonUeP311+vDDz/UihUrFBwcfNH2vXv31lNPPaWlS5fKaDTqjTfekHRmpJ/BYFBiYmK+2z3zzDN69NFHVbduXWVlZRXpMQAAAACFYfB6vV5/FwEUh/j4eG3evNnfZQAAAAAoQ8ri+5C1a9eqadOmvtDvQpxOp6xWqw4dOqT58+dr6dKlSk9PV6dOndS9e3fVrl37suto2bKlnnvuOT300EMFtsnJySlU8Heu7OxsBQUFFer4znK5XDIajb7pQRcsWKAPPvhAixYtKnCbRo0a6d1331Xz5s0vqb6CNG7cWCkpKblGKQIlpVGjRpo+fboSEhL8XQoAAGUSZ4AAAAAAAOCyXcrFfYvFosjISEVGRur6669X//79deDAAc2fP189e/ZUdna2EhMT1a1bN9WoUeOS6hg3bpzsdvsF21xq8CdJISEhl7zN+YFbWFiYXn755UvuBwAAALgchH8AAAAAAKDEnRsENmjQQAMHDtTevXv19ddf69FHH5XdbleXLl30yCOPqHr16hft72odYWQ0GgEfW4IAACAASURBVNWyZctCtWWUHgAAAIoCZ5UotbZt26b4+Hh/lwEAAACgDNm2bZu/S7gmnQ0CmzRpooYNG+q5557T3r17NX/+fHXt2lUZGRmKjY1VaV655Oeff1Z0dLS/ywAAAEApQPiHUsvpdPq7BAAAAADAJbJYLIqKitItt9yim2++WYMHD9bRo0d1+vRpud1uf5dXbCIiIhQbG+vvMgAAAFAKEP4BAAAAAICr0tkgMCoqyt+lAAAAANcMo78LAAAAAAAAAAAAAFA0CP8AAAAAAAAAAACAUoLwDwAAAAAAAAAAACglCP8AAAAAAAAAAACAUoLwDwAAAAAAAAAAACglCP8AAAAAAAAAAACAUoLwDwAAAAAAAAAAACglCP8AAAAAAAAAAACAUoLwDwAAAAAAAAAAACglzP4uAAAAAABQuni9XlmPHFHGRx/Jk5IinT7tu78wDAaDvCEhctetq4Bu3VSuUSOFhITIYDAUZ9kAAAAAUCoQ/gEAAAAAiozL5VLavHlyT56siMceU+DIkTLVqiUZL23iGc/Ro3Ju2qTTzz+vIwkJihwyRFHly8ts5m0sAAAAAFwI75oAAAAAAEXC6/Xq1Jw5Msydq4r//a8MERGX3ZcxJkbmhg0VnJSktHHjdHL4cGniRMXExDACEAAAAAAugDX/AAAAAABFwnrwoDxvvaWYmTMvGvxlTZyojAEDZPv66wt3ajIpavRohaam6tjChcrOzi7CioFrX8bAgbIvWXLBNvv379fOnTt9/7Kzs2Wz2bRlyxad/mNa3os5deqUNm3aJKvVmuu+LVu2yG63X9ExAAAAoGgR/gEAAAAAikTme+8pvF8/GcLCLtjOtXOnDCaTIv7+d2XPmCG53Rfu2GBQ7OTJCvnww0IHFUBZ4Vi/XqceeEAnmzeX/bvv8m2zatUqzZw5U3379tXChQt16NAhPfbYY0pJSdGzzz6rdevWXXAfs2bN0rBhw7Rp0yb17t1bmzdv1qZNm/S3v/1NKSkp6ty5s9LT04vj8AAAAHAZmPYTAAAAAFAkPOvXK7Bbt4u2M9evL3P9+sqePl3GmBjJZLr4NvXqKXDfPqWlpalKlSpFUS5QqjjWrtWpNm0UkJCgsNGjcz3Wo0cP7d+/X1arVUOHDtXhw4dlMBjUrl07dezYUcePH9fevXv19ttvy2AwKDk5WatWrdLGjRvVvn17zZo1S0v+GF3YpUsX7d69W7t27VKdOnXUvXt33XnnnXK5XP44bAAAAOSD8A8AAAAAUDQyM2WsVKnQzc3XXy/bokVy79kjU+3aF25sMMgbEiLzl18qtYDRTUBZ5Nq5M9dtx9q1yhgyRDUvEMZVqVJF/fv318iRI3X06FG99tprmjx5st544w0ZjUYNGjRIcXFxSkpKUr169RQZGSlJWrBggRYvXqyGDRvq2Wef1WeffaYnn3xSkvTuu+8W30ECAADgkhD+AQAAAACKhKdKFbm2bFHAvfdesJ3rl1/kychQwD33KHDTJjm3b79o+Oe1WiWHQ46uXRXz6qtFWTZwTUtt1kzO9eslSeYbb1T4qFEKSkzUviZNCtwmJSVFHo9HM2bM0MmTJzV8+HBlZ2crPDxckpSTkyPpTEgYGRmpY8eOKScnR+3atVO7du3UuXNnBQcH6+GHH1aPHj301VdfaeHChUpKSir+AwYAAMBFEf4BAAAAAIqE98EHlTlvnspfJPwzVq2qzF69ZL/pJrl371bIs89etO+cRYt06rbbFPXHCCQAfzI3aKCwUaMUnJgoGY0XbV+/fn317t1bc+fO1YkTJ/T000/LZrPpqaeeUkBAgB5//HGtXLlSkmQwGDR27Fh17txZNWvW1NGjR/Xoo4/q+uuvV69evVSjRg0dO3ZMb7/9djEfJQAAAArL4PV6vf4uAgAAAABw7ctIT1daYqIqv/KKLLfddtH23sxMGf4YaXQhnrQ0/d6ihY5PmaL6f/mLIiIiiqJcXIzHU6ggSZLk9UoGw5X1gcviWLtWAU2b5nmeGzdurJSUFJnNBX/uOzs7W8HBwTL88b1zOBwyGo35buP1epWZmZnn9y8rK0thYWFFcCQoTRo1aqTp06crISHB36UAAFAmMfIPAAAAAFAkwsLDlTlpko716aOop59WWK9e+QdCfyhM8Of44Qcd7d9fx/r2VfX69QkZiphr61Zlf/qpHCtWKODOO2W+/noF3H+/rOPHy1i1qlzbt6vctGkyxsXlu73XZlPGwIEyhITIc/y4LLfeqtDnnpPtq6/kWLlShuBgeY4fV7mPPirhIys7Aq4gXAkJCcndV0BAgW0NBkO+wTu/kwAAAFcfwj8AAAAAQJEwGo2KveEGnZgzR0fGjVPohAky1a8vS506lzz6y334sBxbtigrNlZpY8eqepMmiomJkZFRZEXK3LChIiZP1ulevRT+yisyhIUp5/PPZWnWTCF9+8pz6pQMAQGy/fvfcm7eLK/VqvDRo5X15pvyWq0yVq6soPbtFfjXv0qSnJs2SZLs336r0KFDZa5XT+5DhxgBCAAAAJQgwj8AAAAAQJEJCAhQXPXqynjjDaUeOqSsH3+UOzVVHo/n0jq67joZevZUZM2aqh8To4iICJlMpuIpGrkEd+mirMmTdbpHDxmjohQ2dqxyvvhCUXPnyr5kiXLmzpXrp58UNXeu0gcMUEi3bpLXq6wJEyRJ5htuUPjLLytrwgR5UlNlvukmhT3/vJ+PCgAAACg7CP8AAAAAAEXKZDIpKipKkZGRctWvL7fbLY/Ho8IuOW8wGGQ0GmUymWQ2m33rkaFkuPbsUejgwTIEBsr+7bfKmTnTN2rPEBQk2Wxnpmy1WGSuW1fOH39U4EMPKaRXL2W9+qq8Vqvcx44pYsoUSVLm88/LtXWrzA0b+vOwAAAAgDKD8A8AAAAAUCwMBoMsFossFou/S8ElcB86pMyXXpLl5pvl2rVLYSNHSg6Hsl55Ra5ff1X4a6/J8cMPkqSQZ55R+jPPyLF6tbwejxQYKGNkpLI//FDZ774rU5Uqcv/f/8lUp46fjwoAAAAoOwzewn70EgAAAAAAlA1er7xZWWdG+J29y2aTITBQymckpjcn58xj567r53TK63TKEBJSEhXjPI0bN1ZKSorMZj73jZLXqFEjTZ8+XQkJCf4uBQCAMokzQAAAAABAobh27lTO7Nm57gvp3VsyGJTz4YfynD6tgDvuUFDHjhfty7FmjeyLFkmSgrp2laVRI0mS7V//kmPdOhnLlVNInz4yVqqUd9uVK2WqUUOmGjWu/KCQP4MhV/An/THlZ0HNg4Pz3mmxyMCoTwAAAKDEGS/eBAAAAAAAyVSzpkL79ZMhJESmqlUV2q+fTBUrKuPppxX85JMKHzdOjjVr5PrtN0mSMyVFzpQUSTqzDtzvv8u5ebNs8+cr5+OPFTpggIKTkpT1yivypKXJsXKlHCkpipg0SYEPPCDr1Kn51mFfuVLu/fvlOXpUnhMn5Fi9Wp7U1BJ7HgAAAADgakb4BwAAAAAoFENgoIxxcTJGRMgYGSljXNyZ0V3h4bL961/yHDumiDfekLluXWW+8IKcP/0k56ZNyhw5Uq5du5TWpYvcBw8q+4MPFPH22zJWqiRzgwaK+te/ZIyKkiEqSq5Nm2RfsULmG29U+GuvXbCenDlzlDlihLwZGTrdvXsJPQsAAAAAcHUj/AMAAAAAXJHIzz6TqVYtWd96SyfvvVfuffvk/PFHhfTtq5CnnpJz40bJYFBAs2YKattW3sxMGUJDJUnp/foprWtX2RctkqVRI5X74AO5Nm9WWpcuyho37qL7Dnr4YQU++KDE9JIAAAAAIInwDwAAAABwJZxO2b/9VkHt2ini739X6NNPy/bNN2ce83rP/DMYJP25ZpylUSM5VqyQJJWbPl3B3brJffSonOvXyxAUpNAhQxS9cKHs33138f2b/1jK/o99AAAAAEBZZ/Z3AQAAAACAa5jFIvuKFbItWCBjdLRcu3admdIzNlbp/ftLkkKefDLXJmFjxyq9Xz/lfPGFZLHIm5Wl8PHj5U1L0+m+fWW56SZ5Tp5UYNu2/jgiAAAAALimGbxer9ffRQAAAAAArnEul7wOhwwhIbnuk/Tn6LzzeG02GSwWyWTKfX9W1pl+jExWA1yuxo0bKyUlReYCfv+A4tSoUSNNnz5dCQkJ/i4FAIAyiTNAAAAAAMCVM5tlOD9kuEjocHYa0Dz3h4X5vrZOnSrPqVO+26bKlRXSt+/l1wkAAAAApRzhHwAAAADgqhWanOzvEgAAAADgmsIcKgAAAAAAAAAAAEApQfgHAAAAAAAAAAAAlBKEfwAAAAAAAAAAAEApQfgHAAAAAAAAAAAAlBKEfwAAAAAAAAAAAEApQfgHAAAAAAAAAAAAlBKEfwAAAAAAAAAAAEApQfgHAAAAAAAAAAAAlBKEfwAAAAAAAAAAAEApQfgHAAAAAAAAAAAAlBKEfwAAAAAAAAAAAEApQfgHAAAAAAAAAAAAlBKEfwAAAAAAAAAAAEApQfgHAAAAAAAAAAAAlBKEfwAAAACA/2fvzuOjqu7/j7/vbEkmk8mKBhAQCTSAGEEEQvtrqaJC3WsBUawUKaJV8SsqiAIi2qJEEOVbsRWKS6sUUbRYpX59aFslhgiIVhbZEZIg2TOTZTIz9/cHmBoCWWCSMcPr+XjMw9x7zz33cydkzOQ95xwAAAAAQISwhbsAAAAAAAAAAJHL5w9qX1GlCsprVF5Vq9pavyzBoGLthhKdDvXonKD42KhwlwkAQMQg/AMAAAAAAADQKvYXVWrPYa/OjI/WeZ3dio2yyma1KBA05a2u1aFir9Z9/rVS4qJ0QZ+zZLEY4S4ZAIB2j/APAAAAAAAAQMhV+QLyVPs1tGey7Nb6qw9ZLYbcTofcTod6dErQZ9vzVFJepeQEZ5iqBQAgchD+AQAAAAAAAAi5GIdVfTq767aDplRRXavKGr+i7Ra5YxyyWgxZLIYG9O4cxkoBAIgshH8AAAAAAAAAWo1pSnsLvdp12Cub1aIoq6GqympVVFSpW4dY9Us7U1aLpemOAABAsxD+AQAAAAAAAGg1nhq/Kn0B/b9eKYqy/Tfk8/kD+s/OQzpU5FGnDu5GegAAAC1B+AcAAAAAAACg1cRF29S3c8Nwz2GzakB6pzBUBABAZGM8PQAAAAAAAIA2UeL1adO+EuUXecNdCgAAEYuRfwAAAACAkDJNU968PJUvW6Zgbq5UWlq3vzkMw5DpdCrQs6ccY8cqPiNDTqdThmG0ZtkAgFZWXRvQJ7uLVV7p03avV5de0E1J8c5wlwUAQMQh/AMAAAAAhIzf71fJqlUKZGXJfdNNipoxQ9ZzzpEsLZt4Jpifr9qNG1U6bZryMjOVMHWqEpOTZbPxNhYA2qtKX0B1nwMxpdKKasI/AABaAe+aAAAAAAAhYZqmileskPHaazrz/fdluBuu79RclpQU2fr1U8y4cSqZO1dF06dLTzyhlJQURgACQDuV4HQo0WlXRZVP8a4odUmND3dJp53rr79e27ZtO+HxzZs3N3ukPgDg+4vwDwAAAAAQEt6vv1bwqad05gcfyHC5mmxfu2mTajdskHPixBM3slqVOHu2qq+6SgVr1sg5erRiY2NDWDXQvpVPmaKokSMVNWLECduUlJTo0KFDslqt6tKli6Kjo1VWVqb8/Py6Nj179lRBQYE6d+7cFmWjHSktLdWhQ4cUHx+v1NTUU+rLYkhD0pLV76x4OaOssvBhjpCaMmWKRo4cqRGNvB68+uqrjfZx/vnnh7osAEAYtGzeFQAAAAAATqDiuecUN3lys4I/s6pKFTNmyN/I6IM6hqEOWVlyLl2q0qPrBwI4wpeTo+KRI1U0dKhq1q49bpsXXnhBixYt0uuvv66xY8dq8+bNWrlypebPn681a9ZozZo18vl8+s1vftPG1aM9mDBhgvbt26eHHnooJP0ZklzRNoK/VpCTk6ORI0dq6NChWnuC1wMAwOmBkX8AAAAAgJAI5uQoauzYZrWtmD1bsXffrZr33mtWe1uvXoras0clJSWMTAKOw5edreIRI+TIzJRr9uwGx8eMGaNhw4apvLxct99+u4YNG6Zrr71WV1xxRRiqRXuxfv167d69W1arVZK0bds2Pf/88yopKdFdd92l+Ph4LV68WE6nU2eddZYmTZoU5oohSdnZ2RoxYoQyMzM1e/ZsXXbZZeEuCQDQxgj/AAAAAAChUVEhS8eOTTarWbNGtrQ0Wc8+WzLNI4+mRoAYhkynU7ZXXlEhoxmAOseOnvVlZ6t86lR19/uP297tdqusrEyS9Mwzz2j16tXKyMjQnXfe2eq1ov0ZNGiQzj//fP3kJz/RK6+8Io/Ho4kTJ+rf//63Vq1apUOHDmnBggXavXu3XnjhhXrnvvnmm/y7amPHruWXnZ2tqVOnKjU1Vb/73e8aXevvW/v27Wut8gAAbYjwDwAAAAAQEsHOneXfvFmOiy5qtF0gL0++detUs3at/Nu3q3bsWNkHDmz0HNPrlXw++caMUcpjj4WybKBdKxwyRLU5OZIkW9++ips1S9GjRmnPgAHHbb9v3z516NBBknTnnXcy8g8t8s4778hut6tTp04KBoPyer2Kjo5WQkJCg7ZXX3215s2bF4YqT19DhgxRztHXg759+2rWrFkaNWqUDMNocq2/b7HmHwBEBsI/AAAAAEBImJdfropVq5TcRPjnnDRJzkmT5N+5U5VLljQZ/ElS1dtvq3jQICUe5w/MwOnO1qePXLNmKWbUKMliOW6b+fPn68UXX1RZWZkWLFig944z5e7WrVs1ceJESdLUqVPVu3fvVq0b7U91dbVqa2v1xRdfqKamRpMmTdKkSZNks9mOGwCi7fXp06cu9LOc4PUAABD5DNM0zXAXAQAAAABo/8rLylQyapQ6Pfqo7IMGhazfYEmJ9g8bpm8WLlT6wIFyu90h6xto73zZ2XIMHtwg9Ovfv79yc3Nls/G5b4RWeXl53evwK6+8ooEDB2rTpk0qLy+vC48zMjK0ZMkSZWZmhrPURvn9/ropLnv06BHmakIjOztbgwcPPqXQ7/zzz9dnn30WwqoAAOHAb4AAAAAAgJBwxcWpYv58Ffz610q87Ta5xo9vei2/JvjWrVP+HXeoYNIkdU1Pl8vlCk2xaFLZxIky4uIki0VGVJTi5s5V1csvq/rvf5e1SxdJUsyNN6p69WrFzZkT5mpPX47vcbiCyPTdD2AMHz5cy5cvV8eOHXXLLbeEsaqWe/DBBzV06FC98cYbWr58ebjLCYnmhK3XX399o2v/7d27N4QVAQDChfAPAAAAABASFotFHXr31uEVK5Q3d65iH39c1vR02dPSTjgV4YkEDh6Ub/NmeTp0UMmcOeo6YIBSUlKYwqwNmdXVci9eLCM6WtWvv67KZcskw5DzV79S1IgRkiT/zp1STU2YKwUQLh06dNB9990X7jJarLS0VP/617+Unp4uSaqoqND999+vqKgoDRs2TMOGDdOMGTN0zjnnqLCwMKLWLmzu2n8AgPaN8A8AAAAAEDIOh0OpXbuq/MknVXjggDyffqpAYaGCwWDLOurWTcbNNyuhe3elp6TI7XbLarW2TtFokn3wYHnnzZMtI0OVzz+vmv/7P0lSTDsb6QMAkpSQkKCMjAyNGjVK//znP2W1WvXzn/9c5eXl+vOf/6zy8nKNGDFCI0aM0M9+9rNwlwsAQIsR/gEAAAAAQspqtSoxMVEJCQnyp6crEAgoGAyquUvOG4Yhi8Uiq9Uqm80m4xSnDsWp8/3rX7L16SNJck6cWH/kHwC0c//3f/+njRs3asyYMQoGg6qpqVFMTIwcDoeioqLCXR4AAC1G+AcAAAAAaBWGYchut8tut4e7FJykipkzZXq9kmnKvWiRql58sUGbmg8+kHnvvZIk97x5ko0/NQBoX2JjY7Vnzx6tWbNGfr9f/fr108KFC/XFF18w6hwA0C4ZZnM/egkAAAAAAIB2oX///srNzZWNMBZhkJGRoSVLligzMzPcpTRbdXW1oqOjZZqmCgsLlZ2drczMTE2fPl1Lly4Nd3kAALQIvwECAAAAAEKi8ve/V/DwYRlJSYq66CLZ+vaVWVkpzxNP1LWxnnGGHMOGyfR4ZB806IR9BfbuVWDvXjmGDWuDygEAp7vo6GhJR0atd+jQQcFgUC+99JJ+97vfhbkyAABajvAPAAAAABASVStWKHHFCgWLiuR96ik5Lr5YUcOHq3bDBiX88Y9HGtnt8n3wgQIFBU2GfzUffij7hRcqWFqqYF6ejIQE2Xr2bKO7AQCczq655ppwlwAAwEmzhLsAAAAAAECEMAxZUlNl69tX8c8+q8qjgZ8RFSVLauqRR3Jyi7r079ih0jFjFPzmG5XdequCRUWtUTkAAAAARAxG/gEAAAAAQs9mk+n1SpJqP/1UpePHS5LsffvK2r17i7qyDxmiqMsvl2/dOgUOHGhxgAgAAAAApxPCPwAAAABAyPn++U/Z0tMlSfaBA5WwfHndserXXmtRX4bt6FtXw5BMM1QlAgAAAEBEIvwDAAAAAISE6fWqbPJkqbZWZnW13E8/fcKwrvovf5H/s88kSa6ZM2Xt1q0tSwUAAACAiGWYJh+bBAAAAAAAiCT9+/dXbm6ubDY+9422l5GRoSVLligzMzPcpQAAcFriN0AAAAAAQFhVv/WWajdurLfPNWOGDIcjTBUBAAAAQPtF+AcAAAAACKvoq65S9FVXhbsMAAAAAIgIlnAXAAAAAAAAAAAAACA0CP8AAAAAAAAAAACACEH4BwAAAAAAAAAAAEQIwj8AAAAAAAAAAAAgQhD+AQAAAAAAAAAAABGC8A8AAAAAAAAAAACIEIR/AAAAAAAAAAAAQIQg/AMAAAAAAAAAAAAiBOEfAAAAAAAAAAAAECEI/wAAAAAAAAAAAIAIQfgHAAAAAAAAAAAARAjCPwAAAAAAAAAAACBCEP4BAAAAAAAAAAAAEYLwDwAAAAAAAAAAAIgQhH8AAAAAAAAAAABAhCD8AwAAAAAAAAAAACIE4R8AAAAAAAAAAAAQIQj/AAAAAAAAAAAAgAhB+AcAAAAAAAAAAABECMI/AAAAAAAAAAAAIEIQ/gEAAAAAAAAAAAARgvAPAAAAAAAAAAAAiBCEfwAAAAAAAAAAAECEsIW7AAAAAABAZDFNU968PJUvW6Zgbq5UWlq3vzkMw5DpdCrQs6ccY8cqPiNDTqdThmG0ZtkAAAAAEBEI/wAAAAAAIeP3+1WyapUCWVly33STombMkPWccyRLyyaeCebnq3bjRpVOm6a8zEwlTJ2qxORk2Wy8jQUAAACAxvCuCQAAAAAQEqZpqnjFChmvvaYz339fhtt90n1ZUlJk69dPMePGqWTuXBVNny498YRSUlIYAQgAAAAAjWDNPwAAAABASHi//lrBp55SyksvNRn8VcycqdLrr1fp9dcrePjwiRtarUqcPVuxhYUqWLNGlZWVIa4aaN/Kp0xRzbvvNtqmtLS07mfHNE3l5+erpKRE27Zt044dO+qOFRcXq6qqqtVrBgAAQOsi/AMAAAAAhETFc88pbvJkGS5Xk239//mP4pcvV/zy5bKkpDTe2DDUIStLzqVLVXp0/UAAR/hyclQ8cqSKhg5Vzdq1x23z8ssva926dZIkr9er++67Ty+88IIWLVqkN998U2PGjFFubq6WLVumDRs2tGX5AAAAaAVM+wkAAAAACIlgTo6ixo5tsl1g3z4Fdu9W2aRJsnbvrrg5c5o8x9arl6L27FFJSYk6d+4cinKBiOLLzlbxiBFyZGbKNXt2s84ZM2aMhg0bpvPOO0///ve/W7lCAAAAtBXCPwAAAABAaFRUyNKxY5PNjLg4xT//vOwXXqjy++5TzXvvKeqSS5o4yZDpdMr2yisqPMHoJuB05N+2rd62Lztb5VOnqrvfX7fv2HUyv92eP3++/vznP6uyslJZWVn685//3PoFAwAAoNUR/gEAAAAAQiLYubP8mzfLcdFFjbfLz5dZUSFJsnbtKtPrbbJv0+uVfD75xoxRymOPhaReIBIUDhmi2pwcSZKtb1/FzZql6FGjtGfAgLo2CQkJKiwslCQVFBQoMTFRknTfffdp2LBhbV4zAAAAWhdr/gEAAAAAQsK8/HJVrFrVZDtLp07yzJ+vigcfVO0nnyjqZz9r8pyqt99W8aBBSkhICEWpQESx9emjhFdfVYfPP1f06NHSMSP9rrzySr3yyiu64447dNddd+mWW245YV+PP/64Jk6cqMcff7y1ywYAAEArMUzTNMNdBAAAAACg/SsvK1PJqFHq9Oijsg8a1GR70+OR4XI12S5YUqL9w4bpm4ULlT5woNxudyjKBSKCLztbjsGDJUv9z3f3799fubm5stn+O+lTSUmJ3G63rFZrW5eJ00xGRoaWLFmizMzMcJcCAMBpiZF/AAAAAICQcMXFyTZ/vgruuEOeP/1JauKzps0J/nzr1unriy9WwaRJOis9Xa5mnIPQKL3pprqvPXPnyr91q8omTlT5//yPyu+5R2W33SYFg/Xaoe05MjMbBH8nkpiYSPAHAABwGmDNPwAAAABASFgsFnXo3VuHV6xQ3ty5in38cVnT02VPS2t2OPGtwMGD8m3eLE+HDiqZM0ddBwxQSkqKLC3sByfPrKr679c1NVIgILO6Wu7Fi2VER6ti+nQF9uyp1w4AAABA+BH+AQAAAABCxuFwKLVrV5U/+aQKDxyQ59NPFSgsVDAYbFlH3brJuPlmJXTvrvSUFKYq/B7xZmVJwaACBw/K2q1buMsBAAAAcAzCPwAAAABASFmtViUmJiohIUH+9HQFAgEFg0E1d8l5wzBksVhktVpls9lkGEYrV4zj+k7YGiwslBEfL0mK+dWvZHG56rYBAAAAfL8Q/gEAAAAAWoVhGLLb7bLb7eEuBSch+oorVH733TKcTllSysIl9wAAIABJREFUU2Xt0kWSZElOlhEdXdcusH+/yu+9V5Lk/PWvZfvBD8JSLwAAAIAjCP8AAAAAAEADMTfdpJgbb5QCAelogJvw8ssN2qWsX9/WpQEAAABoBOEfAAAAAOCUBUtL5fvwQ0Vfc40kyb9li0yPR4bLpaq//lWGYchITlbM2LEyYmJUs2aNokePbrTPquXLFTN+fBtUjxOyWI48AAAAALQb/AYPAAAAADhlZmmpqlevrtv2b9ki3/r18m/ZIiMqSs5bb5W9f3+V3nyzzMpKVf31r032Wbl8uUyvV4GDB1Wbmyv/jh2teQsAAAAAEBEI/wAAAAAArcqIi5MlNVWOwYNlVlS06Fz/jh0qHTNGwW++UdmttypYVNRKVQIAAABAZGDaTwAAAABAqzAMQ5JUvXKl/Nu2yfR45Jo5s8X92IcMUdTll8u3bp0CBw7Ikpwc6lIBAAAAIGIQ/gEAAAAATpklMVHBvLy6bf+uXbKlpUmmqehRoxR7xx11x4KFhS3q27AdfetqGJJphqReAAAAAIhUhH8AAAAAgFNmxMcr6oorVDp+vAyXS6qtleuee1T95pvHbV+7YYPKJk6UJEWPHq2oSy9ty3IBAAAAIGIZpsnHJgEAAAAAIRIMSoGAZLeHuxLgtNa/f3/l5ubKZuNz32h7GRkZWrJkiTIzM8NdCgAApyV+AwQAAAAAhI7FcuTRArWff67q11+vty/mhhtk69UrlJUBAAAAwGmB8A8AAAAAEFb2886T/bzzwl0GAAAAAESEln0cEwAAAAAAAAAAAMD3FuEfAAAAAAAAAAAAECEI/wAAAAAAAAAAAIAIQfgHAAAAAAAAAAAARAjCPwAAAAAAAAAAACBCEP4BAAAAAAAAAAAAEYLwDwAAAAAAAAAAAIgQhH8AAAAAAAAAAABAhCD8AwAAAAAAAAAAACIE4R8AAAAAAAAAAAAQIQj/AAAAAAAAAAAAgAhB+AcAAAAAAAAAAABECMI/AAAAAAAAAAAAIEIQ/gEAAAAAAAAAAAARgvAPAAAAAAAAAAAAiBCEfwAAAAAAAAAAAECEIPwDAAAAAAAAAAAAIgThHwAAAAAAAAAAABAhCP8AAAAAAAAAAACACEH4BwAAAAAAAAAAAEQIwj8AAAAAAAAAAAAgQhD+AQAAAAAAAAAAABGC8A8AAAAAAAAAAACIELZwFwAAAAAAiCymacqbl6fyZcsUzM2VSkvr9jeHYRgynU4FevaUY+xYxWdkyOl0yjCM1iwbAAAAACIC4R8AAAAAIGT8fr9KVq1SICtL7ptuUtSMGbKec45kadnEM8H8fNVu3KjSadOUl5mphKlTlZicLJuNt7EAAAAA0BjeNQEAAAAAQsI0TRWvWCHjtdd05vvvy3C7T7ovS0qKbP36KWbcOJXMnaui6dOlJ55QSkoKIwABAAAAoBGs+QcAAAAACAnv118r+NRTSnnppSaDv+qVK1V2663yZmU13qnVqsTZsxVbWKiCNWtUWVkZwoqB9q98yhTVvPtuk+2Ki4u1efNm1dTUyOfzKS8vr+5YRUWFiouLtX///rp9hw8fVm1trSTJ4/Fow4YNKisrC/0NAAAAIOQI/wAAAAAAIVHx3HOKmzxZhsvVaLvA/v2q/tvfFP/cc5LVqmB+fuMdG4Y6ZGXJuXSpSo+uHwjgCF9OjopHjlTR0KGqWbv2uG02btyo++67T7m5ufrFL36hyspK3Xbbbco/+rM3adIkeTweDRgwQDk5OZKkJ598UgcPHtTHH3+sCRMmaNOmTRo/frw2bdrUZvcGAACAk0P4BwAAAAAIiWBOjqIGD26yne+jj2Tt1EllEyfKiIqSpWPHJs+x9eqlqD17VFJSEopSgYjjy85W8YgRxw0Bv/rqK6WlpemGG25QVlaWAoGAFixYoGnTpumll17Sz372M3Xt2lVDhgzRI488opqamrpz582bp2XLlmnixIlatmwZ624CAAC0A/zGBgAAAAAIjYqKZgV5Znm5giUlin/+eZVNmqTa9etlHzSo8ZMMQ6bTKdsrr6jwBKObgNORf9u2etu+7GyVT52q7n5/3b7rr79eL774om655RZJ0rPPPqsePXpowIABeu+99/Tiiy9Kklwul2699VbNnj277tza2lq5jo7mTUxMVGJiYmvfEgAAAE4R4R8AAAAAICSCnTvLv3mzHBdd1Gg769lny6yokCTZevdW8OjXjTG9Xsnnk2/MGKU89lhI6gUiQeGQIao9OlWnrW9fxc2apehRo7RnwIC6NsuWLdM111yjX/7yl3rjjTe0Zs0ajRs3TkOGDJH/OyGhJP30pz/V6tWr9fnnn2vy5Mlyu90qLi5WUlKS9uzZo7Vr12ry5Mlteo8AAABoGcI/AAAAAEBImJdfropVq5TcRPgXdcklqnrxRVVMn65AQYGcv/lNk31Xvf22igcNUmJCQqjKBSKGrU8fuWbNUsyoUZKl4QovgwcP1vjx43X22WeroKBAixYtarS/3/72t+rXr58k6ZFHHtHNN9+sXr16afv27Vq8eHGr3AMAAABCxzBN0wx3EQAAAACA9q+8rEwlo0ap06OPNj2NpySzqkpGTEyT7YIlJdo/bJi+WbhQ6QMHyu12h6JcnIhpSoYRvvPRIr7sbDkGD24Q+vXv31+5ubn11ujzeDx1U3i2hGmaKisrUwLhO5opIyNDS5YsUWZmZrhLAQDgtMTIPwAAAABASLji4lQxf74Kfv1rJd52m1zjxzcaAjUn+POtW6f8O+5QwaRJ6pqeflLBBZrPM3euTJ9PwZIS2c4+W/YLLlDtxo2KnTpV/q++UuVzz8l+3nmqee89Jbz8siSp/O675X7qKXnmzVNgzx4pEJCRmCj3/PlhvpvTg6MF4crJ/vwYhkHwBwAA0I4Q/gEAAAAAQsJisahD7946vGKF8ubOVezjj8uani57WtpxpyJsTODgQfk2b5anQweVzJmjrgMGKCUlRZYW9oOW8eXkKPHVV2W4XArs3y9r166qWrlSgV275JkzR+7//V9Vv/aaLImJqn7rLUVfdZXM6mrVfv65gkVFin/uuSP9fPyx5PdLNv7sAAAAALQ1fgsHAAAAAISMw+FQateuKn/ySRUeOCDPp58qUFioYDDYso66dZNx881K6N5d6SkpcrvdslqtrVM06sQ9/LDK775bZk2Non/xC1m7dlXcY4+p+JJLFPfww7IcHf0Vc/PN8i5apKif/lSS5N+yRfYLLqjrx/HDH4alfgAAAACEfwAAAACAELNarUpMTFRCQoL86ekKBAIKBoNq7pLzhmHIYrHIarXKZrPJYP24NmH6fDJiYxX//PNSMKjiK69U9NVXy5KYKOvZZyvqiivqtXc99JAq5s6VLBbZevRQ1YoVirn+ekmS79//lv3CC2VER4fjVgAAAIDTGuEfAAAAAKBVGIYhu90uu90e7lLQDIbdLs+8ebKccYYMh0P2/v0bbW/7wQ9kiYtToLhY9gsvVPUbb6js1ltlxMbKsNvl+H//r40qBwAAAPBdhtncj14CAAAAAICIZ1ZVSVarDIej5ef6fJJpyoiKaoXK0BL9+/dXbm6ubKy7iDDIyMjQkiVLlJmZGe5S8D306KOPqqCgQNXV1eEuBSFmGIaCwaDmzZunDh06hLsc4LTGb4AAAAAAgJNiVler8o9/VGD3blm7d5dz8mT5v/hCCgRkHzRIklTzj3/I1quXav7+d0Vdc42snTpJfr+q33pL0T//uUyPR5VLlyqwd6/sAwYoZtw46TjTfFYtX66Y8ePb+A5PT0ZMzMmfexKBIQDg9PK///u/+uMf/8iHEyLUddddp/vvv5/wr50zTVPevDyVL1umYG6uVFpat785DMOQ6XQq0LOnHGPHKj4jQ06nk+n82xCvsAAAAACAk+KZN0+OgQMVe9ttqnzhBdW8+aaiLr9cJVdfrcQ335RZXq7K3/9eiW+8oeo33pAvJ0cJL7wg0+9X9euvK/rqq1Vy7bWKnTZNMWPGyPvss/IuXqzYO+9scK3Ko+Gff8cOWRIT5f/Pf2QfOpSwCQCAdiY1NVUjRowg/ItQaWlpKi4uDncZOAV+v18lq1YpkJUl9003KWrGDFnPOUeyWFrUTzA/X7UbN6p02jTlZWYqYepUJSYn87PfRniWAQAAAAAnxXrmmap+6y1ZOnaUc/x4yWqVJLkeeEAVDz+sYEGB4rKyJMOQkZAg+7nnqvpvf1PUJZdIkmpzc2Xr319Rw4dLkuLmzGnymhXTpsnx4x/LiIlR9Zo1cmdltdr9AQAAAKcT0zRVvGKFjNde05nvvy/D7T7pviwpKbL166eYceNUMneuiqZPl554QikpKYwAbAMti2oBAAAAADjKedttct5yi6rffFNFF1+smrffliQ5LrpIZlGRbH37ypaWdqSxaSr2f/5HlX/4g0yPR5IULCqSJTm5ZRcNBuWcOFHOCRMU2LUrlLcDAAAAnBamTJmid999t8F+79dfK/jUU0p56aVmBX+Vf/rTkWn/G2O1KnH2bMUWFqpgzRpVVlaebNloAcI/AAAAAMBJqV69WvZBgxT3yCNKXLlSlUuX1h2z9e4te9++9U+w2RT30EPyzJ0rGYZs/fur5h//kI6uHRI8fFhVr77a9IVttiPrAjZzzREAAAAA/5WTk6ORI0dq6NChWrt2bd3+iueeU9zkyTJcrib7qJg9W9758xUsK2v6goahDllZci5dqtKj6weidTHtJwAAAADgpJher0rGjJGtZ0/5d+6U89ZbmzzHPniwqv7yF0mStVMnxdx4o4ovv1y2nj0V2LtXcU880dplAwDamW+++UY+ny/cZZw0m82m1NTUcJcBAA1kZ2drxIgRyszM1OzZs3VuTo6ixo5t1rnOX/5Slri4Zl/L1quXovbsUUlJiTp37nyyJaOZCP8AAAAAACcl5sYbFXPDDTI9HhnHvPGPvffeetuJr71W97V70aK6r50TJsj5q1/J9Hob/YRx8ocfHuln9er/9vmdrwEAkSstLU0/+tGP2u0aUd98841iY2M1bdo0DR8+XHa7PdwlATgOu92uvsfOXBGhduzYUW87OztbU6dO1ULDUMeOHZvVh7VHj5Zd1DBkOp3y1dS07DycFMI/AAAAAMDJM4wGwd9J9XE0+DPLy+VZsKDeYcfQoYq69NJTuwYAoN3q2bOn3nrrLdls7fdPmZ9//rlmzpypefPmafr06YSAwPdQ37599dlnn4W7jDYxZMgQ5eTkSDpy37NmzdKoUaN04Lrr5N+8WY6LLgr5NU2vV/L5ZOO1r0203/9jAgAAAAAijuF2K+7hh8NdBgDgeyQYDIa7hFN23nnn6c033yQEBPC90adPn7rQz2KxSJLMyy9XxapVSm6F8K/q7bdVPGiQEhMSQt43GrKEuwAAAAAAAAAAOB18GwI+88wzWrJkiYYPH6533nlHtbW14S4NwGlk4cKF+uKLLzRmzJi64E+SEn7xC3l27FDt+vXN6if23nvl+NGPmmwXLCnRN489pprbblMC4V+bIPwDAAAAAAAAgJNkmqYqKirq/tschIAAwikzM7Ne6PctV1ycbPPnq+COO+T5058k0zzla/nWrdPXF1+sgkmTdFZ6ulyNrPON0GHaTwAAAAAAAADtwjPPPKMtW7bogQce0NKlS7Vr1y5J0siRI/X++++rS5cumjNnjkaPHi2HwyFJmjVrljp16qTZs2fr4MGDio6O1owZM9SrV69mXfPYvo49r6ysTJMnT9aSJUs0efJk3XDDDVq5cqXuu+8+nXfeeY32HcnTgU6ZMkUjR47UiBEjTtimrKxM+fn5dds9evRQUVGRkpOT6763ktS5c2fFxcXJ6/Vq69at6t69u5KTk5usoba29rj9fFd+fr7i4+Pl9/vldrtbcotAxLFYLOrQu7cOr1ihvLlzFfv447Kmp8ueliYdJyxsTODgQfk2b5anQweVzJmjrgMGKCUl5bihI0KP8A8AAAAAAABAu/Dll1/q4YcfVmpqqjZs2KDVq1fLZjvyJ84dO3Zo+PDhkqTy8nK9++67defdfPPNuuGGG3TZZZcpLy9PY8aM0QcffFB3riT5/X7t3r1bhYWF8nq9Gj58uAzDqNeXz+fTl19+qb59+8rj8SgvL09nnHFGvRqvuuoq7d69W8XFxc2+r0gMAXNycvT0008rMzNTs2fP1mWXXdagzcqVK5Wdna3evXtLksaNG6eHHnpI06dP1+TJk3XFFVdIOvKc7tixQ48//rguvfRSLViwQKNGjdK1117baA379u1r0M+x4d8DDzygcePGqaCgQOPGjQvFrQPtmsPhUGrXrip/8kkVHjggz6efKlBY2PL1V7t1k3HzzUro3l3pKSlyu92yWq2tUzQaIPwDAAAAAAAA0C55vV5ZrVbFxMTU2x8MBuXxeCRJLpdL27dvrwufOnXqpAsuuECbNm3ShRdeWHeOx+PRyJEjlZWVpU2bNmnXrl2aPHlyvb48Ho8WLlyo559/Xnv37tXLL7+s6dOnh+x+jhcC3n///br00kvbbQiYnZ2tESNG1IWAx7r22mvrwrnS0tK6/QMHDtS9995btz169GgtW7ZMLpdL48eP1/DhwxuEf5s2bdKKFStUXV2tH/7wh+rfv3+DfubPn6/77rtP77zzjjp16hTq2wUigtVqVWJiohISEuRPT1cgEFAwGJTZzGlADcOQxWKR1WqVzWaTYRitXDGORfgHAAAAAAAAoF2aMWOGDMPQxIkT6+3fu3dvXSj3+OOPN5hmLiYmRlVVVQ3669evn6699lqde+65+v3vf9+gr3vuuac1bqOB8847TwsXLtSoUaN0xRVXaPbs2VqzZk2bXDtUtm3bVm87OztbU6dOld/vr7f/mWee0erVq5WRkaGbbrqpbv8//vEPTZw4UdHR0Vq8eLEqKyvr1gqzWq2Ki4tTbW1tvVC0qKhISUlJuv/++zV69Gj179+/QT9ffvmlJOngwYMNQmMA9RmGIbvd3m4/fHA6I/wDAAAAAAAA0C4tWrSoburO1atX1+0/55xztHjx4rptl8ul/Px8dezYUaZpav369XrggQca9BcdHS3pyB+8vx3h8t2+CgsLVVtbK0k6fPhwq9zT7t27NXPmTG3cuFGjR4/Wq6++qrPOOksPP/xwq1yvtQwZMkQ5OTmSpL59+2rWrFkaNWqUBgwYUK/dnXfeedyRf5deeqmysrLqtt1utw4dOqQzzzxTPp9P1dXVxw0kvp2G9dt1Go/t59vva3V1dShuEwC+lwj/AAAAAAAAALRrpaWl+vDDD1VWVqYf/ehHDY4vWLBA48ePV/fu3XXw4EHdeuutcrvdLb5OcnKyDh06pPvvv7/eSLRQ+Db027Bhgy6//HItWrRIXbp0UXJycr21CduTPn361IV+x46+bKnHHntMt912m8455xzt2rXruFOINkenTp10zz33aOfOnTr33HNPqSYg3MyqKnkXLpTrgQckw5Bv3TpZ3G7Zzj1XCgRUuWyZnL/+taqWL1fM+PF151W98oocP/mJrJ06qXrlSvk++USW+Hg5f/1rWTp2bHCdmr//Xb716yVJlqQkxVx/vSzHrHfalNr16xXYu1fRo0c3fV8VFapctkyBvXtl799fMePGScd5DTFraqSaGhkn8Xoe6QyzuZO0AgAAAAAAoF3o37+/cnNz221ggPYtIyNDS5YsUWZmZkj6++6/58mTJ2vIkCG65pprlJCQ0OK+PB6PYmNjZRiGiouLtf7oH7O/vc6ZZ57ZrH6qqqpOOGXkli1b9OSTT+qmm27SsGHDmuzr2NDvsssuU5cuXXTmmWcqLi6u3U63l52drcGDBzcI/U719am0tFTx8fEyDEM+n0/BYLDumMPhaFbIWFlZKafTeVLXR+NC/fPfls4//3x99tln4S6jRSr/9CfVrF4t529+o6hLL5VZUaGSG25Q4ooV8i5YIFu/foq++moVDRum5A8/lCTVfvKJSn/1KyW89JJMj0fVf/+73PPmqXbDBlW//rrifve7Btcpu+MOxYwaJdsPfqDA/v2qeOghJf3jHzJ9PtXm5Mh61lmydu8uSfJv2aLgoUOyDx0qIypKwdJS+b/4QsHSUgX27VPUxRfL1rv3kbZbt9Z9XcfvV/GIEXI9+KBs/fqp+q9/Ve3mzYp/7jn5v/pKtl69FCwtlWpqVP23vyl4+LBip06VcXS0L444tY9bAAAAAAAAAEAbufvuu3XWWWfJarWe1Pkul0uGYUg6sm6cy+Wqe7QkjGpsrTiHw6GxY8cqIyOj0T52796tG2+8UT/72c+Umpqqp59+WhMnTtTAgQOVlpampKSkdhv8SVJmZuYpj/Y7noSEhLrv4cqVK/X888/XPXbu3NmsPgj+EClqVq9W/PPPq+qFFyRJRlyc4h5+WKVjxypYVKToq6+u196sqlLl888r5le/OtI+MVH+jRtV88EHsvXte9zg71uW5GRZUlNl69NH5tFpc8t++UuZZWXyLlwo3z//Kd/HH6ty6VIFi4pUNmGCZJoqvf56mZWVqn79dUmS59FHFTx8WGZlpSoeeqjBdXwffyz74MFy/PSnsqSkyHn77fJv3SqzuloV998vSar96CNVrVypwP79Mr1eiTFuDfDxLwAAAAAAAADtQnp6utLT00PSV3x8/HGnCD1VaWlpSktLO+HxY0f6Pf300xEx0i8cbrzxxnCXAIRN7caNMpxOBQ4eVLCoSMH8fFk6dpT17LMVyM+X45JLGpzjeewxuR54QNVvvCFJsmdkKP6Pf1T166/Lu3ChHIMHyzVz5nGvVzF3rixut3yffKKE5csVPHRItV9+Keunn8r0+1X95ptyzZol6yefyL9li/y7dytYUCBLaqqiLrtMps+nwL59ihk/XlUvvyxLp06KGTOmwXWChYWyJCXV22fExx8J+Y5hO+ccGS6XjKiok3kKIxoj/wAAAAAAAACglUX6SD8AbatyyRLZhwxR7aefyj54sCqXLpUkld91lxL/+lfVrl8v//btde1Nn0/+rVvlffZZVa9ZI+8zz6g2J0dGdLRip05V0po1qlm79oTXi5s5U/F//KMcF14oGYaM6GjZfvADuaZPl3v+fMXNmyfPnDmyDxok14MPHhmNZ7dLPt+R61dUSJKihg+Xb906+d57T1HHjEyUJPvAgap5//3/1l1RIbOsTJbkZOnoNL/Bo33hxBj5BwAAAAAAAOB7q7KyUgcOHGi3a1gePnxYWVlZjPQDEDJmebkC+fmK/8Mfju4wVXTxxTJiYhQ1YoSsZ58t94IFKh0/XklHR/kZDocSV62SJHmzsuQYNkxGVJRKJ02S/dxzFSwqUtSVVzZ57bgnnlDJmDFKfvdd2Xr0kGfOHAXy8uS6/37Z0tJUuXSpataulaVDBwV27ZIMQxUPPqjAwYOyDxggGYbsF1ygYGHhcUfsWbt1U/R116nk6qtl7dpV/j175F6w4MjB6GhVzJypYEGBbBkZsqalyfvEE3L8+MeynHFGaJ7cCGGYJpOhAgAAAAAARJL+/fsrNze33YYlaN8yMjK0ZMkSZWZmhqS/q6++WiUlJfIdHT3SHv34xz/W8OHDCf3E61OkC/XPf1s6//zz9dlnn4W7jLAwPR4ZTqd0Eut0mjU19UI8s7paRnR0o23K7rhDsXfcIVtj0zibpkyvV4bLVX/3sf3X1h4ZYYh6eIUFAAAAAAAA8L31pz/9ScXFxSoqKgp3KSfFbrfL7XYrKSnptA79QikYDKqysrJuOzo6mjAROAXfDdiq33pLtRs31jvumjFDhsNx/HOPGb13bPB3bJvK556T40c/ki09XWZ5uTzfjuo7yjF0qKIuvfTI1KLHBH/H7Z/X1OPiFREAAAAAAABAq/H5g9pXVKmC8hqVV9WqttYvSzCoWLuhRKdDPTonKD624dRv30pKSlJSUpLS0tLasGq0FtM06x4n4+DBg6qqqpLT6azb980338hqtapr166hKhM4bUVfdZWir7qq1fp33npr3deG2624hx9utWudzgj/AAAAAAAAALSK/UWV2nPYqzPjo3VeZ7dio6yyWS0KBE15q2t1qNirdZ9/rZS4KF3Q5yxZLEa4S0YbOJXwr7y8XL17926wf9OmTaqoqDjV0r4XfD6funTpouTk5HCXAqCdIvwDAAAAAAAAEHJVvoA81X4N7Zksu7X+OlJWiyG30yG306EenRL02fY8lZRXKTnBeYLeEElOJfxzuVzasWNHvZF/VVVVSkpKUpcuXUJVYlh5PB4VFxcrKSlJkpSXl3fc5ys2NlYJCQltXR6AdoDwDwAAAAAAAEDIxTis6tPZXbcdNKWK6lpV1vgVbbfIHeOQ1WLIYjE0oHfnMFaK9qRz587y+/3yer11+1JSUiJyLcWamhpFRUXp4MGDSk9Pb3B87969hH8AjovwDwAAAAAAAECrMU1pb6FXuw57ZbNaFGU1VFVZrYqKKnXrEKt+aWfKarE03REixqmM/JMkq9Uqt9tdb9+p9Pd9Y7FYdODAAb399tsqKyvTlVdeqfj4+AbtHA5HRN03gNAh/AMAAAAAAADQajw1flX6Avp/vVIUZftvyOfzB/SfnYd0qMijTh3cjfSASHOq4d/30ebNm+tNRXo8FotFPXr0aLKv6OhoDRkyRKmpqTrjjDP09ddfn7DtqT6PpmnKMAwVFhaqtLS03jHDMJSUlKTExMQW9Qcg/Aj/AAAAAAAAALSauGib+nZuGO45bFYNSO8UhoqA0IuOjlbv3r0bbbN169YW9Xn22Wc3ery4uFjbt29vUZ/H2rJli/7zn//oqquu0gUXXNDg+LZt21oU/gH4fiD8AwAAAAAAANAmSrw+7S30KtXlUMfk2HCXgzCJxJF/UvNGvZ2ozf79+1VdXV1v37p16+Tz+fTjH//4uOclJSUpLS3t5Io9KioqSgMGDFB1dbUqKirkcrnqjlVUVMgL75lbAAAgAElEQVQwjIj8XgGRjvAPAAAAABBSpmnKm5en8mXLFMzNlY5OIdXcPxwZhiHT6VSgZ085xo5VfEaGnE6nDMNozbIBAK2sujagT3YXq7zSp+1ery69oJuS4hufJhGR6VTCP4/Ho4KCgnq/F5imqZSUFCUkJISqxFZzovv2eDwNRg5WV1crOTlZHo/nhH2dajDXtWvXuq8PHjyo/fv3123HxcWpe/fuhH9AO0T4BwAAAAAIGb/fr5JVqxTIypL7ppsUNWOGrOecI1ksTZ/8HcH8fNVu3KjSadOUl5mphKlTlZicLJuNt7EA0F5V+gKqyxBMqbSimvAPLZafn68+ffo02L9582YdOnSozetZv369XC6X+vbt22Tb8vJyffXVV8c9VlZW1mBfv379JEkbNmw47pShoQ7lOnfuHNL+AIQP75oAAAAAACFhmqaKV6yQ8dprOvP992W4G67v1FyWlBTZ+vVTzLhxKpk7V0XTp0tPPKGUlBRGAAJAO5XgdCjRaVdFlU/xrih1SY0Pd0kIk1MZsWaapgKBgKxWa719drv9lKfAPBlFRUVKSkpqVtu4uDj16NHjhMdP9JwMGDCgxecAOL0R/gEAAAAAQsL79dcKPvWUzvzgAxnfWS/mWL6PPlLl4sV1284775Tjhz88fmOrVYmzZ6v6qqtUsGaNnKNHKzaWNaKAb5VPmaKokSMVNWJEs88pLi6Wz+dTamqqpCN/uDYMQ0lJSfL7/dqyZUvdVG+StGPHDgWDQcXFxalTp051/Xg8Hm3fvl1paWmKjz8S4ni9Xm3dulXdu3dXcnJyo+cjvGpra7Vr16667c6dOysuLq5Vr2kxpCFpyep3VrycUVZZ+DBHRJsyZYpGjhypEcd5ffo2/Nu3b1+9de66dOkip7Px0aA9evTQzp075ff76/ZZLBZ169bthEHY7t27VVtbK0lKTEzUGWeccTK3dFxDhgyRJO3cubNZ7SMhrCsoKKj7fwiA76eWzbsCAAAAAMAJVDz3nOImT240+JMkx9Chil++XO7FixX0emXPyGi8Y8NQh6wsOZcuVenR9QMBHOHLyVHxyJEqGjpUNWvXNuucZcuW6Re/+EXd9u23364//OEPKi8v15gxY/TRRx/pD3/4g6ZNmyZJuv766/W3v/1NTz31lO68805J0scff6wJEyZo06ZNGj9+vDZt2qSNGzdqwoQJ2rx5s+6880698cYbJzwf4ZOfn69nnnlG+/bt0+TJk7VmzRqtWbNG+fn5bXJ9Q5Ir2kbwdxrIycnRyJEjNXToUK095vXp2/Dvo48+0l/+8hfdcccdeuedd1RYWFh37EQPSerWrZt69OhR9+jevbusVmuDtrNmzZJpmpowYYLeeecdvfPOO/ryyy+bvMbJPL57X5H+eOCBBxp9HtqjjRs36vDhw9q4cWO4SwFCgpF/AAAAAICQCObkKGrs2KYbWiwyoqPlmTtXrnvuaTIslCRbr16K2rNHJSUlrEcDHIcvO1vFI0bIkZkp1+zZ9Y4tX75c+/btU1VVlW6//XZJUnJysvbs2aPk5GT5fD5J0rPPPqu77rpLP/nJTyRJ48eP165du9SlSxfde++9kqQHHnhAX375pebNm6dXXnlFLpdL1113nQ4cOKC5c+dq2bJlcrlcGj9+vIYPH65rr732uOc3Z20sNN9vf/tb+Xw+5eXl6amnntL69eu1Zs0aRUVFadasWZo5c6YeeeQRPfroo+rWrZveeOMN/fCHP9TAgQPrvjff9rN161ZNmjRJb775pkpKSnTXXXdp06ZNOnjwoHbv3q2hQ4cqNzdXEyZMUMeOHbVw4UIZhqG77rpL3bp1C+OzgO+r7OxsjRgxQpmZmZp9zOvTDTfcoH379qmyslJTpkzRunXrtH79ep111lnKy8vTtddeW6/9yy+/rIKCAu3Zs0d33nmnXC6XFi9eLMMwdNttt+mdd97RRRddpH/9619KTU3V2rVrdd111+mMM87QlClT6vqZP3++tm3bpgcffFDLly9XZWWlBg0apB/84AdauXKlKioq1LdvX+3fv189evTQuHHj9Nhjj6m2tlaXXHKJhg0b1hZPXZt4+eWXtWnTJl155ZXauXOnDhw4oE6dOmnSpEl6+umnVVBQoOjoaM2aNUu///3vdfjwYW3fvl1btmzRV199pWuuuUaLFi2q9/y2Nxs3btSFF16oYDCoCy+8ULm5uY1OtQq0B4R/AAAAAIDQqKiQpWPHZjU1fT75PvlEcY891ry+DUOm0ynbK6+osJmjm4DTgX/btnrbvuxslU+dqu7fmQ5v586d+vnP/z979x4nc93/f/z5mcPOzp7srt2shEi4nBapta5Q2sjFJhXquuS4RV2SkkNXOUWluFIookv6dkBXLsmhA+mgcthVqEhLOjgf9mh3Z2dm5/P7Q+Zns1gsa8fjfrvN7WY+836/P6/PZ3cH+5z3+3276tatq+HDh6t27drq3r273n33XVWpUkVdu3bVnj17lJ6ert69e/v7NWnSRDt37iw2fs2aNfXrr7/K4/Eo7I/gPioqSlFRUcrPz/cfs1qtCg8P9y+z9+f+hH9l6+uvv9aiRYs0Z84cff3115o0aZLGjRunVatW6d1331WXLl10ww03aOTIkWrUqJH279+viIgIffzxx0pJSVFwcLCmT5+ur776SosWLdLmzZuVkpKi1atXa+HChfL5fEpOTtavv/6qjIwMjRo1StOmTVNmZqa6dOkiwzD01FNPadasWf6aFi9ezEzPS9yPf3p/WrNmjYYOHSqPx3PS2XKJiYnq16+ffD6fZs+efcJMsh07duhvf/ubbr31Vs2bN0+HDh1Sp06dZBiGnnvuOT355JPq27evmjRpon79+mnx4sVq3LixfvvtN/+HH0aMGKE1a9b4+ycnJ8vj8WjSpEl68MEHFRUVpcGDB+vRRx/V66+/rv79+yskJEROp1MdO3bUhAkT/B+SOBsX2+y4HTt2qEePHqpWrZpmz56twYMHa+rUqerQoYMaNWqkNm3a6OGHH1bv3r21Z88ejR8/Xps2bVLdunX17LPPqm3bttq7d2+xr2dF+/nfv3+/fD6fJMnn8+nTTz8l/EOFR/gHAAAAACgTvmrV5N20SUHt2p22beEHHyi4U6dSj23m5Ulut9w9eiimtIEhcAk41LKlPOvWSZJsDRsqfPRoBXfrpp1/+qVlbGysnE6nf4+sevXq6bPPPtPBgwf197//XXv27FGTJk20bt06denSRZKUlpamHj16FBsnLS1NHTp0UEREhDIyMhQdHa2dO3fqo48+UkREhPbv368qVarI7XbL5XLJbreX2B9lKzIyUna7XaGhofJ6vfJ4PDp06JBq1aqlunXrKjg4WAUFBYqIiCjWr3379po8ebL/eWxsrIKCgvTBBx/Ibrfr8ssv9/9CvEqVKjp48KB8Pp8cDoe8Xq9yc3PldrtltVpP2NetS5cumjhx4vm/eFy0WrZsqXV/vD81bNhQo0ePVrdu3dSsWbMSl4g89jw8PFy5ubmyWCwltomNjZXVapXH4yn2PZiUlKSgoCBZLBY5nc5iYVT16tU1/bj9hmNiYmS327Vt2zZ/QG6322Wapi677DI5nU5VqlRJpmnKZrMpKytLFotFhw8fVpcuXc46wDuTpTGLior0+eef+/dflaScnBzFn2659LOoqWrVqsrOzpbdbtfhw4d18803q6CgQK+88oq6devm/5pERETINE3FxMT491l84YUXdMcddxS7ror283/8zD+LxaIbb7yxvEsCzhnhHwAAAACgTJidOil34UJVLkX459mwQY4z+MVKwbJlyrjuOkVFRp5LiUBAsjVooLDRo+Xs1k2yWEpsM3bsWDkcDvXu3Vtr1qyRJNWpU6dYmwEDBmjgwIFatWqVMjIydP3116tatWratm2bUlJSlJ+fr6ZNm6pWrVp68skn1bt3b9WtW1fbtm3T9OnT1aFDB91///2qXbu2duzY4V/er6T+OL/at2+v1atXKz09XePHj9fjjz+uL774QikpKZo4caJWrVqlm2666aT9XS6XPB6PvvvuOxUWFp4QGh7Tt29fvf3227LZbEpKSjpfl4MKrEGDBv7Qz3KS96fjLVq0SA0aNFDNmjU1bdq00y4l2bNnT73zzjuy2Wy68cYbNXbsWI0ePVqLFi3S+vXrlZ2drbVr1560f2Fhodxut1JTU1VQUHDSdsnJyXr00UeVl5enwsLCYq9t2rRJcXFxp722M7FhwwZdccUVqlOnjurVq1fsXOdLvXr1ZLfb9e233+r777/XTTfdJJfLpV9//VWZmZm67LLL9Pvvv+uZZ55RWlqapKP3v0+fPics51rRNG/eXKmpqUpOTtaSJUuY9YeAYJgX2zxjAAAAAECFlJOdrcxu3XT5hAmyX3ddmY3ry8zUbzfcoANTpqh+ixYn/SU0yphpSoZx9m3PpD/OmnvNGgUlJJwQ+jVr1kypqamy2Wx64okn1K9fP1WvXv2EmXglOXLkiBwOx2nbmqap7OxsRf4plM/KylKlSpVk8PUvV/n5+QoKCpLNduJn/4uKimS1Wk/ZPycnp1Tvtx6PR16vV06n038sPj5eM2fOVGJi4pkXjoCxZs0aJSQknBD6NW3aVJ9++mmJ35t/5nK5ij0PDg4+oU1J34PHHJtpd6rgMT8/X8HBwVq3bp2ioqJO2s40TRUUFCgkJKTY8dWrVysoKEitW7dWo0aNTnk9a9euLfEa/mzVqlUKDw9X69atVb9+ff/xTZs26eqrrz5t/3ORm5ursLAwGYYht9st0zTlcDj8r7tcLgUHB6uoqEhr1qzRxo0bNWjQIP/rrVq10qxZsyrkz3/Tpk21cePG8i4DKBPM/AMAAAAAlImw8HDlTpqkfffeq6j771dYnz7nHP64v/5aewcN0r777lON+vX9+4nh3BW8/rrcX3yhSv/5jyQpZ/Bg2Ro1kvOee5QzeLCMsDD5MjMV9Ne/KuTee5WdkiIjPFyyWGQ4HAofP16mx6OcBx+UERoq3759ciQnK/j220vdX6cJH3B6QaX45WpycrJiY2NLFfxJKvXPmWEYJwR/kko8hgvvzwHF8U4X/Ekq9Qct7HZ7qb+3AtHGjRsVERGh1atXa/ny5apevbok6fHHHz9lkHQpOFX4U5rlLwsKCvTGG28UO9azZ88TvrdtNptsNttJxzMM45TnOhYaRkZGFptlV1rH+vzyyy+nvabw8HBdeeWVpx3z6quvVlFRkfbs2VNszDNZNvRsHfs7wDRN/8/28ed0OBwyTVNer1cbN27Uvffee9HtYwiA8A8AAAAAUEYsFoti//IXHVywQHvGj1fos8/KWr++7HXqnHQpwpMp2r1b7k2bdCQ2VpnjxqlG8+b+/WVwdvJnzZIvK0u+3bsV3KOHTI9HRXv2yJeZKcPhkHfHDlnr1lX+jBkK7tZNjvbtJUlZvXopODlZpsuliOnTZQQHy/W//yl/zhyZBQUK7tJFjs6dJdOU+4svzqh/yL33luctuWQkJCSUdwlAhfHtt9/qf//7n+x2uyIiIjRgwACNHj1a4eHhatCggapUqaLc3Fxddtll+vnnn7V8+XJVq1ZNtWrVUt++ff17H27YsEFvvPGG2rVrp9zcXG3atEk5OTl68cUX9dRTTykmJkY//fSTrrnmGq1cuVLPP/+81q5dq2+++Ub5+fkaO3asQkNDy/lunB/HAqzTBUbBwcG6t4S/J85X0HQhgrUzOYdhGDp8+HCxmWhhYWEXTdBmt9v1wAMPSDp/XxMAZ4/wDwAAAABQZoKCghRXo4Zy/v1vHdq1S0fS0lR06JB8Pt+ZDVSzpozevRVZq5bqx8QoIiKiVDNVcHJFe/bI0aGD7M2aKfveexXUtq2Cu3eX6+23ZYSHK7hLF5lut7xbtsjZq5e/n71ZM3nT04uNZU9IUN7EiTI9Hjm7dz960DAU1LatCt54o9T9AeBik5eXJ5vNptGjR6tXr15atGiR7Ha72rRpo0mTJmnZsmUaMmSI8vPzNWPGDO3Zs0fXX3+9Nm7cqFdffVUrV66UJHXq1EmxsbG69dZbtWnTJsXGxuq1117T1q1btXnzZv33v//VY489ptatW8vpdOrbb7/VlClTNHbsWK1du1aLFi1Sz549y/luoDwZhqH4+PjyLgNABUX4BwAAAAAoU1arVVFRUYqMjJS3fn0VFRXJ5/Od0SfdLRaLrFarbDYb+4aVIUulSjKCgiSvV5Jkb9xY+XPmyLDZ5OzXT+4vv5T1qqvk+eYb/8w97/ffy3nXXcXGcX/xhWwNGsg8ckSetLSjM/8kFX788Rn1B4CLUZUqVSQdndHucrlUuXJl2Ww2jRo1StLRZQ9zc3NPmI2ekpLin/n35ZdfqnLlypKksWPH6vHHH1fVqlXl9XoVGRkpu90um82msLAw2Ww2/551NptN119/vWrXrn0Br/jCO9dZdj6fTwUFBf7nDoejVHsIlqaus5WRkaFNmzadss2Z/HsIAM4F4R8AAAAA4LwwDOOS3wvqYlMwb57M3FwFd+0qX06OpKMz88y8PH+b0EGDlD1woNyrVsmXnS178+ayVK0qScodNepoW9NUxIsvSm63su+7T4WffiozJ0dBbdueWX8AuMh17txZQ4cOlc/nU1BQkPbv36/4+HhVrVpVL7zwgmrWrKk5c+aoefPmJx3Dbrfr008/lWmaWrVq1Unb3XzzzVq1apX279/vDxoD1bmEf/v371dRUVGx/UmPHDmioqIiVf3j75sLXZOkUs/SI/wDcCEYJu82AAAAAAAEvNyxYxXSp48sVavKcDhO297Mzz/arhTLrZbU9kz6o+w1a9ZMqampZTITBjhT8fHxmjlzphITE8u7lDJTWFgox0neO71e7yl/1kzTlNvtlsPhkGmap5zRfqrzBIr4+HitXLnyrN+fdu7cqSZNmpxwPDU19ZxWCzAMQ3Xr1j3r/jiqTZs2mjVrVoX8+W/atGmxPRaBiox/AQIAAAAATqpw+XIZISEKuuEGSZJ3+3a5P/tMISkpkmmqYN48eTZskLVaNYX07y+jUiXlv/yyfAcPyoiOlqNdO9kaNjw62J/bp6TIiIiQmZur/DlzVPTLL7I3ayZnz56SxXLycf6kYO5cOfv0uTA3pAJz3HCDjMjIUgV/kmSEhJR67JLankl/ALjYnSqQO12IZRiGv//pwqlAD/6OOZdZdk6nU9u2bSs28y8/P18RERHnNPPvWF0AEAgsp28CAAAAALhUuZYvV97Uqf7n+a+8Itd770mSsgcNkpmXp7DHHpOtSRNl3Hqr5PGoYMEChQwYIEe7dsp74QUVzJ8vScoZMkRmVpbCRo6UtWZNZQ8cKHm9yuzaVfYmTRT2+OMyjxxR9v33S9JJx/mz/LlzJUne9HT5Dh2S+7PPZLrd5/GuVExBN9wgS2RkeZcBAIA//Dubx2WXXaaYmBj5fD7/IyoqSnFxcec0Lo+yeQC4OBD+AQAAAABOyRIXJ++WLZLHI/PwYRlOp+T1yvvDDwq5915ZYmLkSEpSUKtWKvziC8kwZImLk61hQ1WaMUP5s2dLpinPpk0KeeABWWJjFXzHHYp8+225v/pK9oQEBd14oywxMQp54AF5t26V6XKVPM4p5I4YoYI335R32zbl/utfF+juAACAC81msykiIsL/YH/hiwcBIHBxYNlPAAAAAMAphfTpo4LXX5c9IUGO5GQVvPWWfNnZMsLDi7WzxMTIzMoq3tlmk5mXd3T/N6fzhLF9hw7JEh1d7JhRqZLMvLwSxzkln+/oUqIOhzK7dy/19QEAgAuLWWIAcH4x8w8AAAAAcErWGjVUtG+fCj/4QMGdO0uSLJUryzx8WGZ2tr9d4WefyX7ddcX6uj//XLb69WWEhsrMzpbv0KGjL/h8yn/pJdlbtFDhJ5/425u5uTKzs2WpXLnEcU7LZpMMQ+IXigAAXLTKe2lKHiz7CQQ6Zv4BAAAAAE4ruFMnudPSpOOW1Yp44QVl3n23bFddpaJdu+S84w5Zq1eXmZd3dD8/j0emy6WIP/YMjHjxRWX9/e+y1aunot275ezdW9aaNRV8xx3K7NJF1ho15N25UxHPPy9JJx0HAHBpOXDggNwVeC9Xm82muLi48i7jokJQBADnl2HyLgsAAAAAOAfmkSMyQkOPzrg72/amKTMvT0ZY2HmqEri0NGvWTKmpqbLZ+Nw3Lrz4+HjNnDlTiYmJZTJeRESErr/+ehml/HvmYnPgwAGFhoZqxIgRSkpKuuT3p4uPj9cHH3zA+1OAateunWbPnl1mP/8XUtOmTbVx48byLgMoE7zDAgAAAADOyZkGdiW2N4xSjZM3dap8GRn+59bLL1fIffed0fkBABXL1Vdfrffff79Ch0WbN2/WqFGjNHHiRI0cOfKSDwGZ+QcA51fF/RsTAAAAAHDJCR08uLxLAABcYD6fr7xLOGdNmjTR4sWLCQH/QPgHAOeXpbwLAAAAAAAAAIBLwbEQcNq0aZo5c6aSkpL0wQcfyOPxlHdpAIAAQvgHAAAAAAAAoMLKyMiQy+Uq1xq8Xq/y8/NL3f5SDwGPzfzjEXgPABcHwj8AAAAAAAAAFcbnn3+uPn366JNPPtG8efM0ZMgQffHFF2V6jvT0dN1+++3q2bOnevfufdr2Gzdu1HPPPaf3339f99xzjzZv3lyq8wRyCPjQQw/pww8/LPG1kwVHhw8flsfjOW3AlJ2dre3bt59zULVv3z6lp6f7H0VFRSdtm5OTo/z8/HIP1yrCA0D5I/wDAAAAAAAAUGHs3btXt9xyixISEjR//nx16NBB1113nX766Sd9/fXXSk9PV0ZGhhYvXqw1a9ZIkg4cOKBdu3Zp+fLl+vnnn7V792699957ysrKkiR5PB4tW7ZMmzZtkiRlZ2erQYMGevPNN/X666/L6/X6x1+xYoU/4Ni/f7+WLFmijIwMSdKtt96qa665xv+8tAIxBFy3bp06duyoVq1a6aOPPir22slCo9mzZ2vPnj3+588880yJ7R5++OFi7c72MXbsWH300UdasWKFVqxYccrgccmSJfr222/LPVi72B8ALg628i4AAAAAAAAAAM5UXl6evF6vnE6n8vPz1aVLFz3wwAO67bbbtHnzZjmdTs2YMUOmaerAgQOaNWuWHnnkEfXt21c33HCDWrRoof79+2vhwoV6+OGH1a5dO82ZM0cdO3ZUTEyMtm/frqVLlyosLExNmzZVx44dNXnyZH377bfasWOHevbsqb///e8aMWKE5s+frxo1apzzNR0LATdv3qxRo0Zp4sSJGj58uNq3by+73V4Gd+3CW7NmjW655RYlJiZqzJgxxV575513tGvXLrlcLv8MS9M09cILL+i6667TqlWrlJycrIYNG/r7bNy4Ub/99pssFoseffRR2e129e/fX/PmzVN2drb69eun77//Xvv27dNvv/2ma665Rps2bdJdd92lgoICrVy5UkFBQXrkkUckSffdd59stv//a/Jp06bJ4/Fo3759GjdunNatW6evv/5aO3bsUEpKygW4YwBw7gj/AAAAAAAAAFQ4VapUUdWqVdWqVSsFBwerdu3aevDBByUdnR24evVqFRYWaufOnQoNDVWHDh2UlJSk9957T3369FGtWrX0yiuvyOfzaeXKlQoODlZWVpY+/PBD9ezZU16vVy6XS0FBQZKkxo0bq2vXrmrUqJFefvllpaWlqX379mrfvr3CwsL08ccfl9m1NWnSRFOmTFG3bt3UuXNnjRkzRkuXLi2z8S+EH3/8sdjzNWvWaOjQoXK73f5ZYjt37lTHjh1Vu3ZtPfXUU4qMjNTo0aPVt29fJSYmqmHDhmrQoEGxGWXx8fFq2LChrr32Wr388st64403tHnzZt11111av369li1bJp/Pp5tvvlm7du1SVlaWHnroIb322mv6/vvvNXToUH311VdasmSJTNPUiBEjZBiGYmJiNGLECKWlpenVV1/V/PnzlZqaqv/+97+aPn26Zs6cyew2ABUG4R8AAAAAAACACi88PFySlJOToyeeeEJLlizR22+/7Q9rHA6Hv+3xs+gMw1C1atU0efJk/7G0tDTVr19fd955pyQpKytLwcHB/vamaSokJERHjhyRJBUUFJTZdfz8888aNWqUvvnmG3Xv3l3z58/XFVdcobFjx5bZOS6Eli1bat26dZKkhg0bavTo0erWrZvi4+OLhWjR0dFyOBwqKiqSJCUmJuqTTz5R69atTxq2HTseFxcn0zS1atUq2e12ValSRT6fT5IUExOjw4cPy+fzyW63y+v1yuv1KiMjQ9WrV1ft2rW1YsUKPfPMM/6Zf6ZpKiIiQlarVU6nU16vV1arVaZpKjo6mvAPAauoqEi7du3SzJkz/T83FwPTNDVx4kTFxsaWdykVDuEfAAAAAAAAgIARHBwsl8ulcePGae/evbrppptO2d4wDP3jH/9Qr169FBkZqa5duyo8PFyLFy/WL7/8IqvVqhdffPGEftdee62ef/55DRs2TPn5+ef8y+ljod+GDRvUqVMnvfjii6pevboqV65cbFnKiqRBgwb+0M9isZTYZsqUKQoKCtKdd96pTz/9VB07dtS8efP09ddfKzc3V2lpaWrRosUpz1NYWCiv16sff/xRbrdbYWFhJbZr06aN1q9fr507d2rkyJGSpMcee0yGYUiShg4dWuI1TJ48WRs3btQ///nPM7l84KJXVFSkQ4cOaerUqVq0aJH69Omjtm3blndZfnfccYeGDx9O+HcWDJOPKgAAAAAAAASUZs2aKTU1tcIGBqjY4uPjNXPmTCUmJpbJeH/+fp4/f77S0tI0cOBA1alTp8Q+pmnK7XYXm+13OkVFRXK73XI6nWdUX2Fhof88W7Zs0b///W/dc889uuGGG0rV/8+hX4cOHVS9enVVqVJF4eHhFXqvv4SEhBNCv+QKd+oAACAASURBVCZNmui9996TzWbT5MmT1b17d11++eUlvl+ZpimPx1Nstp3Vai2x7ZEjR04a+h2voKBAdrv9jN4fj/8a49Q6duyoV199tcx+/i+kpk2bauPGjeVdxgXh8/mUk5Oj2bNn67XXXlOvXr300EMPnfH73/kWHx+vGTNmqFWrVuVdSoXDvwABAAAAAAAAVBg33nijYmJi/HvxlcQwjDMOa44t9Ximjj9PUFCQ7r77bsXHx5+2359Dv6lTpwZE6HfMqcKfY8tn3nTTTYqOjvYvrVmSDRs2aNu2bf7ndevWLXHs0NDQUi3JeWz51jOZExMUFMRynwgIpmkqLy9P8+bN07Rp09ShQwd99dVXioqKKu/SUMYI/wAAAAAAAABUGFWqVFGVKlXKu4wS1alT56SzEY8J9NCvNI6Ff8dC0lMFawkJCUpISDihP4D/76GHHlLHjh11yy23lPi6aZpyuVz64IMP9Mwzz6hJkyb68MMPdfnll5fYftq0adqyZYuqVaumH3/8UTk5OYqIiFCbNm1UuXJlLVy4UEFBQUpKSlLPnj21cOFCvfPOO7Lb7WrUqJF/Wd177rlHs2bN8n+wokePHgoODpbValXfvn3VunVrPfbYYxo7dqwcDofef/99ZWZm6quvvlKbNm3Oz826RBD+AQAAAAAAAMB5RugH4HxZt26dpk6dqsTERI0ZM0YdOnTwv1ZYWKgvv/xS48ePV1RUlN566y3VrVv3lOP98MMPGjt2rOLi4iRJSUlJev/99yVJkydPVr9+/XTjjTfqtttuU5s2bbRz507de++9SkpK8o/x5ZdfKiMjQ++++67uueceSVJ2drYWLFigrKws9erVS06nU9dcc41mzJihQYMG6eWXX9aSJUsUHx+v9957r6xv0yWF8A8AAAAAAADARSs/P1+7du2qsHtYHjx4UJMnTyb0+xNm7wFlb82aNbrlllv8IWC1atU0evRoZWVlafLkyWrRokWZncvtdss0Tf9em+vWrZPL5VLNmjXVuHFjvf7663rllVf08MMP+8O/YyIjIzVixAi98847eu6555ScnCyPx6N+/fpdsu+JZa1i/o0JAAAAAAAA4JJQv3599erVS263u7xLOWtt2rRR7969Cf3+cGzZTwSeivx1/eGHH9S0adPyLuOspKenF3u+Zs0aPfLII8rPz9fBgwe1bt06NWzYsMzO9/zzz2vYsGEaM2aMoqOjJR0NA10ul7xer3Jzc7V27VotXbpUv//+u7Zv337CkshOp9P//fLII49o2LBhSk1NLbMaL3WEfwAAAAAAAAAuWq+99poyMjJ0+PDh8i7lrNjtdkVERCg6OvqSD/2Ai5nH4ynvEs5ay5YttW7dOklSw4YNNXr0aHXr1k0ul0sffvih+vXrp6uuukrPPPOMatasec7ne+SRR1SnTh2NHDlSt912mySpdevW/mU/X3nlFfXr10+NGjXSoEGDNGfOHD399NPFxpg3b55uvPFGSVLjxo1Vv359GYZxzrXhKMI/AAAAAAAAABet6OhoRUdHnzBrBBUXM/+AstegQQN/6GexWCQdnV2XnJystm3bauHChbr11lvVunVrjRkzRrGxsed0viuvvFJ169bVkiVLJEkTJ07U3Llz1ahRI3311VdatGiRbDabrr/+et1yyy0qKirS9u3b1b9/f+Xl5SkhIUF/+9vfzvm6UTLCPwAAAAAAAADABUP4B5StKVOmKCEhwR/6Hc9msyk6Olp9+vTRbbfdptdff11t27bVHXfcoeHDhys8PLzEMT/88EPddtttioyM1MqVK/3HH330Uf+fn3zySUlScnJyseMljSVJ27dvL/H1mJgYvfnmm5KkAwcO6NNPPz3NFeN0TvxOAAAAAAAAAAAAQIWQmJhYYvB3PLvdrtjYWA0ePFgrVqyQaZq69tprNWXKFBUWFhZrO2TIEF1xxRWyWq3ns+wSWa1WNW7cWL169brg5w4khH8AAAAAAAAAgAvm2Mw/HoH3MAyjXAIjlF5QUJCqVaumUaNGadmyZfr555/VrFkzvf766yoqKpIk1a9fX0lJSSedFXg+Va5cWUlJSapdu7akozMXcea4awAAAAAAAACAC2Lnzp3q06dPeZeB82TLli2Kjo4u7zJQCg6HQ7Vr19Zzzz2nHTt2aPLkyRo7dqxq1qx50SzLu3nzZr6fzhLhHwAAAAAAAADggtiyZYsyMjKUm5tb3qXgPAgPD1dsbGx5l4FSMgxDTqdTDRs21EsvvaS9e/fq0KFD8ng85V2aJCkiIoLvp7NE+AcAAAAAAAAAuCCqV6+u6tWrl3cZAI5jGIZCQ0NVp04d1alTp7zLQRlgzz8AAAAAAAAAAAAgQDDzDwAAAABQpkzTVN6ePcqZM0e+1FQpK8t/vDQMw5AZEqKiq69W0N13q1J8vEJCQmQYxvksGwAAAAACAuEfAAAAAKDMeL1eZS5cqKLJkxVxzz1y/OtfstauLVnObOEZ39698nzzjbJGjNCexERFDh2qqMqVZbPx31gAAFA6W7Zs0TvvvCNJCgkJUceOHdW4ceMzGqOoqEj/+te/9Oyzz562rWmaeuedd7R+/XpVrlxZ/fv3V5UqVc6q9tM5ePCgcnNzlZaWpu7du5+XcwCouFj2EwAAAABQJkzTVMaCBdL8+aryyScKGzxY9pYtZbnsMlliYs7oYWvcWM7evVX1s88UExKi7JEjlZmZWerZgwAAAFu2bJHD4dDAgQPVtWtXDRkyRIcOHZIkbdiwQd98842/7Z49e7Ry5Ur/616vV6tXr9b+/fu1Y8cObd261d/2+D8fb+jQocrMzNRjjz2mv/71rxo2bJj/tePPl5eXp927dys1NVXp6emSJLfbrdWrV2vnzp2SpL1792r37t1KT0+Xz+fT119/rdTUVEnStm3b9OCDD8pms6lVq1aSpB07duiLL76Qy+WSJKWnp2v79u1at27dud9IABUO4R8AAAAAoEzk/f67fC+8oJg33pAREXHqtlOnKvv++5X/2munHtRqVdSYMQo9dEj7li5Vfn5+GVYMVHw5Dz2kwg8/PKM+2dnZ+vHHH/2PgoKCYs8PHDgg6ehsl40bN2r37t2SJI/HU6xdbm5umV8PAJS18PBwxcXFqU6dOoqIiFBBQYHGjRunDRs2KDU1VU8//bSys7P1yCOPqKioSN26dZPX69WQIUP022+/acGCBZKkCRMm6ODBg8rPz9cTTzxxwnlM09S3336rgQMHKiYmRm3bttX//d//SdIJ50tPT1ePHj104MABDRgwQIcPH1avXr2UnZ2tKVOm6PPPP9f8+fM1cuRI5ebm6vnnn9fWrVu1fPlyTZ8+Xbt371Z+fr62bNmiV199VR9++KFefPFF5eTkqEePHpKkrl27KjU1VXPnztXSpUsv3A0HcFEg/AMAAAAAlIncV15R+MCBMsLCTtmu6Lff5F69WpVmzFDh4sUys7NPPbBhKHbyZIX85z/K+mP/QABHudetU0bHjjrcqpUKP/qoVH3++9//atKkSVq6dKmWLl2qbdu2adCgQf7nP/zwgw4dOqSuXbtq/fr1mjBhgmbPnq1ff/1VAwcO9Lfbu3fveb46ADh3CxYs0MCBA/WXv/xFPXr0UPXq1bVs2TLt2bNHe/fu1fLlyxUeHq4OHTpo7dq1ysrK0uHDh/XTTz/pH//4h1JSUiRJffr00ZtvvqklS5b4A7bj5efnKzg4WJL0yy+/qE+fPurSpYt27959wvkkqWXLlurUqZMSExO1adMm/fDDD0pLS5PX69XixYtlGIbuuOMONW/eXMnJydqzZ49ycnL0ww8/qHbt2qpRo4ZiYmIkSYsXL9bDDz+szp07KywsTIcPH1ZcXJzuvvtu3X777dqxY8cFutsALhZslgAAAAAAKBO+devkuPvu07azVq0qmaaOPPusjJCQ084SlCRb3bpy7NypzMxMVatWrSzKBQKKe80aZdxyi4ISExU2Zkyx1+bOnatff/1VBQUFeuCBByQdnRHSuXNnSdKPP/6oli1b6tFHH/X3GT9+vIYMGaJ27dpJkj7//HNJUosWLYq1e/rpp7V161bdd999Wrx4sTIzMzV48GB9++232r17t37++We1atVKqamp6tevn6pWraopU6bIMAwNHjxYNWvWPK/3BQB69OihQYMGac6cOdq/f78kKTo6WiNGjJBhGBo2bJiWLFmi3bt3a8yYMUpLS5Npmv6lxo/Nck5KStKsWbNUqVIlvfTSSyecJzQ0VHl5ecrIyNCVV16puXPnasiQISooKDjhfOnp6f59jA3DUFBQkOrVq6eRI0eqqKhIdrtdL7/8sj9M/Oc//6l3331XO3bs0OzZs084d3BwsH91BJfLJYfDUWx8lk0HLj2EfwAAAACAspGbK0vVqqdt5t2+XUZoqIJatpT3u+9UtGuXrNWrn7qTYcgMCZFt3jwdKuXsJuBS4P3xx2LP3WvWKGfoUNXyev3Htm/frttvv11169bV8OHD1bx5c02bNk3vvfee4uPjdfPNN2vZsmXat2+fJCklJUW7du1SnTp1/GO0bdtW27dv18cff6yUlBQFBwdr+vTp+uqrr7Ro0SJt3rxZKSkpWr16tRYuXCifz6fk5GT9+uuvysjI0KhRozRt2jRlZmaqS5cuMgxDTz31lGbNmnVhbhSAS16/fv3UuXNnJScnq0+fPnrooYcUHh6u+Ph4NWrUSC+99JLGjBmj6OhoLVy4UB06dNADDzyg2NhYmaYpwzB0zTXX6NChQ3I4HCWe48UXX9Q999yjWrVqqaCgQFFRUapevfoJ52vSpEmxfmFhYbrqqqs0btw47dmzR8OHDy/2epUqVTRp0iRFREToxz/e9zdu3Kjvv/9eknTvvfdqwoQJqlOnjurVq6ew06zCACDwEf4BAAAAAMqEr1o1eTdtUtAfM4VOxvPNN3K0a6egtm3l/eEHeb755rThn5mXJ7ndcvfooZinnirLsoEK7VDLlvKsWydJsjVsqPDRoxXcrZt2Nm9erF1sbKycTqe8f4SCDz74YLGZf506ddKECRP87devX6+NGzeqRo0aKioq0qhRo9SvXz+1b99ekydPLjZuUFCQPvjgA9ntdl1++eXy+XySjv6y+uDBg/L5fHI4HPJ6vcrNzZXb7ZbVatUtt9xyXu8NANx5553Fnh/b+6527dr+147NkFuyZImCgoL8M+UMw1BhYWGxoG/Xrl0aNGjQSc/XrFkzLVu2THl5eQoNDfUfv+uuu044X9OmTSXJ/97btGnTYudr2LChv/9bb70ll8ul4OBgDR8+XIZh6LPPPvOPdaxNYWGhf7bgh3/sB5uUlKSkpKTS3TAAAYPwDwAAAABQJsxOnZS7cKEqnyb8c3TqpOxeveTdtk3en35S5Ny5px27YNkyZVx3naIiI8uoWiBw2Bo0UNjo0XJ26yZZLCW2GTt2rBwOh3r37q2tW7ee8PrxM/9atGihlJQUpaSkaMWKFdqzZ4/69+9/yhpcLpc8Ho++++47FRYWKuIky/n27dtXb7/9tmw2G7+MBlCujg/OJBUL+QzDOOHYK6+8ouuvv17169dXTk6Onn/++WL9W7Vqpfbt20tSseDvZOcryclmFEryh3rHavvzeIZh+NsAgGGy4C8AAAAAoAzkZGcrs1s3XT5hguzXXXfa9mZurozw8NO282Vm6rcbbtCBKVNUv0WLk4YKKGOmKf3xC0ZcvNxr1igoIeGE0K9Zs2ZKTU2VzWbTE088oX79+ql69eqy2+1nNH5ubq5CQkJktVpP2zYnJ6dUP58ej0der1dOp/OMakHFER8fr5kzZyoxMbG8SwEA4JLEzD8AAAAAQJkICw9X7qRJ2nfvvYq6/36F9elzyvCoNMGf++uvtXfQIO277z7VqF+fPWzOUXZKytH7brXKEh0ta7Vqci1f7l921fn3v8vWoIFyHnxQRmiofPv2yZGcLHm9xdqFPf64Mrt0ORrymqbMvDxVeuklyWpV/muvyb1ihSLffluSdLBRI0W9+65s9eur6LfflHHTTYpNT9fhNm38IbElJkZhI0eWz02p4IJKEa4kJycrNjb2jIM/SQovxc/pMaUN5u12+1nVAgAAgNIh/AMAAAAAlAmLxaLYv/xFBxcs0J7x4xX67LOy1q8ve506J12K8GSKdu+We9MmHYmNVea4carRvLliYmJkOcNxLnW5jz8uS2SkvOnpCn/6aZkulyKmT5fxx7Jg+a++qpC+feU4bu+1vKlTFdylixydO0umKfcXX8ibnn5CO8tllynij73fcoYPl3fnTtnq1JH7s89ka9BA3vR02a6+WvZGjVTw5psKnzBBBW++Kdtf/nJCf5xfCQkJ5V0CAAAALiDCPwAAAABAmQkKClJcjRrK+fe/dWjXLh1JS1PRoUPy+XxnNlDNmjJ691ZkrVqqHxOjiIiIUi07iOI8mzYpetEiFX76qVz/+58kKfexxySrVdbq1WWEhh6dqffZZ5Kk0KFD5d2yRc7u3Y8OYBgKattW3vR05b/6qgpXrpQkhT/9tIp+/125I0eqaN8+WSIiZLvqKnk2bJC9cWMF33WX8qdPV/jEiTIiI+XLzJQ8Hvn27pXlssskyd9fkmzx8XLeffeFvTkAAABAgCL8AwAAAACUKavVqqioKEVGRspbv76Kiork8/lU2i3nDcOQxWKR1WqVzWaTwb5zZ80ICZHsdhnBwTLdbklS+DPPnHLmn+2qq+RJSzs6809S4ccfS5JCUlKKtbNWr67wiRPl+u9/j4Z7hqH8//xHlshI5c+cKXdqqv+cwZ06KfeJJxTUpo0KP/qoWH8AAAAAZYvwDwAAAABwXhiGwd5e5a2oSHkvvCDP2rUKmzBBnrVrT2hy/Iw+R/v2Crn/fmXfd58KP/1UZk6Ogtq2PeUpgrt1U9Y//qGgNm1kHjmi8JdfliS53nnHP9vQccstyh0zRmFPPukP/4p++005jz7qH4clQAEAAICyYZil/eglAAAAAACoULL69lXkf/4j+XyS7cw+/2vm58twOCSWW62QmjVrptTUVNnO8OsOlIX4+HjNnDlTiYmJ5V0KAACXJP4FCAAAAADw827ZooJ33vE/D7ruOkmSe/16/zF78+YKvvVWmUeOKP8//1HRL7/I3ry5nD17yrt16yn7W6Kj5bzrLv++b96tW+XZsEHOnj395/esXy9nnz5HB/B4dOSZZxT2r38pf9YsFR044B87+PbbZW/S5IRrKJg79//3v8QFd+kiWSxHH2fICAk5DxUBAAAAON8I/wAAAAAAft4tW2Q4HArp21eSZISGKuexx+Ts1k22evWOHgsJkYqKlNm1q0JHjJCzRw/lzZihvOnTZa1a9ZT9i377TVk9eyr6j33k8qZMke/gQTk6d5YlMlLeLVuUO368HF26yBIVJdfSpcqbOVOhw4erYMECRS1Y4K/ViIws8Rry/wj/vOnpkmHIPHxY9oSE83nbLlrBt91W3iUAAAAAuMDO/KN/AAAAAICAZoSHyxIXJ0tcnIzwcEmSWVgo0+WS6XJJVqs8qamyNWsmR1KSLHFxCh83TqEPPnjS/pbKlWWJi5OtQYOjY0jyZWTILCxUyIABKvi///Of39Ghg1zz5kmSCpcsUVDr1kdfME1/DabLJeM0ewlmdu0qT2qq8ufOVeHSpWV6jwAAAADgYsXMPwAAAABAMQVvvilPWpokKfiOOyRJhR98IM833xw9lpws3+HDslSuXOr+uePHyxIRIffatYqcO/dou7lzZW/SRJbLLpPrqacUOniwJCmoTRsVLl6s4DvvlBEdLcPtlnQ0gCyYP99/ntB//tMfLpbEGhcn5913yxITI++WLXKc7Q0BAAAAgAqE8A8AAAAAUIyzZ0+FDhrkf1740UcK6d9ftkaN/MeMqCgdef55hQ0fLhmGfAcPqvCTT2TYbCX2Dx81SrZGjZTdr59kGJJpqnD5cgXfdZc833wja7Vqcn/5pb+PrUkT5Y4apZAHHlDepElHz+l0KmzkyNJfiO2P//L+cT4A0vvvv6+QP/ZzzM/P16233lrOFQEAAKCsEf4BAAAAAE4rd8wYWaKiJEm2evUUOmyYnP/4hzI6dZLt6qtV9MsvCn/uOXm/++6U44Q/95wye/RQ2LBhCmrTRiEpKZIkR1KSckePVvAfQURInz7KvOMO2ePj/X3NI0eU/Ud7SXLcequ/PYDSCQkJUd26dSVJP/30UzlXAwAAgPPBME0+/ggAAAAAOEumKTMvT0ZYWHlXAuA4zZo1U2pqqmy24p/7Xrlypa6++mpJUnp6upKSksqjPAS4+Ph4zZw5U4mJieVdCgAAlyRm/gEAAAAAzp5hlFvwZ+bk6Mjzzxc7FtSqlRzt25dLPUBFYJqmioqK/H8GAABA4CH8AwAAAABUSEZEhMLHji3vMoCLms/nU3Z2drFjXq/X/+fMzEz/nytVqiSLxXLBagMAAMD5QfgHAAAAAAAQoCwWi7Zv367Dhw8rJCREISEh8ng8ko7u//fdd98pPz9fMTExatGiRTlXCwAAgLLAx7kAAAAAAAAC2DXXXKPg4GA5nU6FhobK4/HI4/EoNDRUTqdTTqdTzZs3L+8yAQAAUEYI/wAAAAAAAAKYxWJRy5YtlZOTo8LCQn/4V1hYqJycHCUkJLDcJwAAQADhX3YAAAAAAAABLjg4WE2bNtWRI0fkdrvldrt15MgRNWvWTMHBweVdHgAAAMoQ4R8AAAAAAMAloHLlyqpdu7ZcLpdcLpdq166t6Ojo8i4LAAAAZcxW3gUAAAAAAADgwqhVq5YyMzNlGIZq1apV3uUAAADgPCD8AwAAAAAAuIQ0a9asvEtAgDMMQ1artbzLAADgkkX4BwAAAAAAEGB27Nihm266qdgxp9N5wv5+LpdLBQUFF7I0XAI2bdrEkrIAAJQjwj8AAAAAAIAA88MPPygjI0O5ubnlXQouQeHh4YqNjS3vMgAAuGQZpmma5V0EAAAAAAAAAAAAgHNnKe8CAAAAAAAAAAAAAJQNwj8AAAAAAAAAAAAgQLDnHwAAAAAAACq8l19+WQcPHlR0dLTatWunhg0basmSJbr22msVFxcnSfrxxx+VkZGhrKwsrV+/Xna7XU2aNFFycnKxsVwul2bPnq2ff/5ZtWrV0sCBA2W1WjVz5kzt3LlTPXv2VNOmTf1jzp8/v1j/lJQUXXHFFRfmwgEAAP6EmX8AAAAAAACo8BYsWKABAwaoXbt2euGFFzR//nxZLBa9+uqr/jaTJ09W5cqVtXz5ct14443q3bu3Fi9erE8++aTYWBMnTlStWrU0adIkhYaGavHixVqwYIFM09SwYcM0ePBgf9tj4WBISIiuuOIKDRw4UE6nU7///rsk6ffff1dOTs6FuQkAAABi5h8AAAAAAAACgGEYiouLU1xcnGbMmKEOHTpoxYoV+ve//63HH39ceXl5OnjwoOrVqydJysnJUVZWloKCglStWrViY1WpUkXvv/++qlatqj59+shqtfpfy8vLU0REhP+5w+FQXFycIiIiFBkZqbi4OHk8Hg0YMEAvv/yyBg8erAULFlyYmwAAACDCPwAAAAAAAAQYm82mvLw8WSwWJSUl6ZNPPvEv13lMamqqfv/9dzkcDh04cEC//vqrtm7dqs6dO+v+++/XunXrtHjxYg0dOlTDhg1Tp06dlJGRoQcffFDPPffcKc9vt9s1YcIEJSYm6v3331dQUND5vmQAAAA/wj8AAAAAAAAElM8//1z169eXJPXv318jR45UTk5Osb35unfvrkaNGunnn3/W+PHjNW7cOFWpUkWxsbF677331KVLFyUkJOjgwYMaMGCA/vrXv2rgwIGaMmXKCTMFS7Jhwwa1bNlSaWlpatiw4Xm7VgAAgD8j/AMAAAAAAECFl5eXp4EDB8rj8cjlcmnq1KmSji7hKUkNGzaU3W73tx8/fryioqJ06NAhPfLII6pRo4Zq1KjhH6tHjx66+uqrtX37dg0YMEBTpkxRdna2xo8fL0maMmWKnE5nibXs2rVLK1eu1FtvvaVevXqpbdu2uvLKK8/j1QMAAPx/hmmaZnkXAQAAAAAAAFxMTNPUkSNHFB4eXt6lAAAAnBHCPwAAAAAAAAAAACBAWMq7AAAAAAAAAAAAAABlg/APAAAAAAAAAAAACBCEfwAAAAAAAAAAAECAIPwDAAAAAAAAAAAAAgThHwAAAAAAAAAAABAgCP8AAAAAAAAAAACAAEH4BwAAAAAAAAAAAAQIwj8AAAAAAAAAAAAgQBD+AQAAAAAAAAAAAAGC8A8AAAAAAAAAAAAIEIR/AAAAAAAAAAAAQIAg/AMAAAAAAAAAAAACBOEfAAAAAAAAAAAAECAI/wAAAAAAAAAAAIAAQfgHAAAAAAAAAAAABAjCPwAAAAAAAAAAACBAEP4BAAAAAAAAAAAAAYLwDwAAAAAAAAAAAAgQhH8AAAAAAAAAAABAgCD8AwAAAAAAAAAAAAIE4R8AAAAAAAAAAAAQIAj/AAAAAAAAAAAAgABB+AcAAAAAAAAAAAAECMI/AAAAAAAAAAAAIEAQ/gEAAAAAAAAAAAABgvAPAAAAAAAAAAAACBCEfwAAAAAAAAAAAECAIPwDAAAAAAAAAAAAAgThHwAAAAAAAAAAABAgCP8AAAAAAAAAAACAAEH4BwAAAAAAAAAAAAQIwj8AAAAAAAAAAAAgQBD+AQAAAAAAAAAAAAGC8A8AAAAAAAAAAAAIEIR/AAAAAAAAAAAAQIAg/AMAAAAAAAAAAAACBOEfAAAAAAAAAAAAECAI/wAAAAAAAAAAAIAAQfgHAAAAAAAAAAAABAjCPwAAAAAAAAAAACBAEP4BAAAAAAAAAAAAAYLwDwAAAAAAAAAAAAgQhH8AAAAAAAAAAABAgCD8AwAAAAAAAAAAAAIE4R8AAAAAAAAAAAAQIAj/AAAAAAAAAAAAF7xr0gAABatJREFUgABB+AcAAAAAAAAAAAAECMI/AAAAAAAAAAAAIEAQ/gEAAAAAAAAAAAABgvAPAAAAAAAAAAAACBCEfwAAAAAAAAAAAECAIPwDAAAAAAAAAAAAAgThHwAAAAAAAAAAABAgCP8AAAAAAAAAAACAAEH4BwAAAAAAAAAAAAQIwj8AAAAAAAAAAAAgQBD+AQAAAAAAAAAAAAGC8A8AAAAAAAAAAAAIEIR/AAAAAAAAAAAAQIAg/AMAAAAAAAAAAAACBOEfAAAAAAAAAAAAECAI/wAAAAAAAAAAAIAA8f/aswMZAAAAgEH+1vf4SiP5BwAAAAAAABPyDwAAAAAAACbkHwAAAAAAAEzIPwAAAAAAAJiQfwAAAAAAADAh/wAAAAAAAGBC/gEAAAAAAMCE/AMAAAAAAIAJ+QcAAAAAAAAT8g8AAAAAAAAm5B8AAAAAAABMyD8AAAAAAACYkH8AAAAAAAAwIf8AAAAAAABgQv4BAAAAAADAhPwDAAAAAACACfkHAAAAAAAAE/IPAAAAAAAAJuQfAAAAAAAATMg/AAAAAAAAmJB/AAAAAAAAMCH/AAAAAAAAYEL+AQAAAAAAwIT8AwAAAAAAgAn5BwAAAAAAABPyDwAAAAAAACbkHwAAAAAAAEzIPwAAAAAAAJiQfwAAAAAAADAh/wAAAAAAAGBC/gEAAAAAAMCE/AMAAAAAAIAJ+QcAAAAAAAAT8g8AAAAAAAAm5B8AAAAAAABMyD8AAAAAAACYkH8AAAAAAAAwIf8AAAAAAABgQv4BAAAAAADAhPwDAAAAAACACfkHAAAAAAAAE/IPAAAAAAAAJuQfAAAAAAAATMg/AAAAAAAAmJB/AAAAAAAAMCH/AAAAAAAAYEL+AQAAAAAAwIT8AwAAAAAAgAn5BwAAAAAAABPyDwAAAAAAACbkHwAAAAAAAEzIPwAAAAAAAJiQfwAAAAAAADAh/wAAAAAAAGBC/gEAAAAAAMCE/AMAAAAAAIAJ+QcAAAAAAAAT8g8AAAAAAAAm5B8AAAAAAABMyD8AAAAAAACYkH8AAAAAAAAwIf8AAAAAAABgQv4BAAAAAADAhPwDAAAAAACACfkHAAAAAAAAE/IPAAAAAAAAJuQfAAAAAAAATMg/AAAAAAAAmJB/AAAAAAAAMCH/AAAAAAAAYEL+AQAAAAAAwIT8AwAAAAAAgAn5BwAAAAAAABPyDwAAAAAAACbkHwAAAAAAAEzIPwAAAAAAAJiQfwAAAAAAADAh/wAAAAAAAGBC/gEAAAAAAMCE/AMAAAAAAIAJ+QcAAAAAAAAT8g8AAAAAAAAm5B8AAAAAAABMyD8AAAAAAACYkH8AAAAAAAAwIf8AAAAAAABgQv4BAAAAAADAhPwDAAAAAACACfkHAAAAAAAAE/IPAAAAAAAAJuQfAAAAAAAATMg/AAAAAAAAmJB/AAAAAAAAMCH/AAAAAAAAYEL+AQAAAAAAwIT8AwAAAAAAgAn5BwAAAAAAABPyDwAAAAAAACbkHwAAAAAAAEzIPwAAAAAAAJiQfwAAAAAAADAh/wAAAAAAAGBC/gEAAAAAAMCE/AMAAAAAAIAJ+QcAAAAAAAAT8g8AAAAAAAAm5B8AAAAAAABMyD8AAAAAAACYkH8AAAAAAAAwIf8AAAAAAABgQv4BAAAAAADAhPwDAAAAAACACfkHAAAAAAAAE/IPAAAAAAAAJuQfAAAAAAAATMg/AAAAAAAAmJB/AAAAAAAAMCH/AAAAAAAAYEL+AQAAAAAAwIT8AwAAAAAAgAn5BwAAAAAAABPyDwAAAAAAACbkHwAAAAAAAEzIPwAAAAAAAJiQfwAAAAAAADAh/wAAAAAAAGBC/gEAAAAAAMCE/AMAAAAAAIAJ+QcAAAAAAAAT8g8AAAAAAAAm5B8AAAAAAABMyD8AAAAAAACYkH8AAAAAAAAwEUjggzjLqaFHAAAAAElFTkSuQmCC;" vertex="1" parent="1">
          <mxGeometry x="3970" y="4000" width="1791" height="995" as="geometry" />
        </mxCell>
        <mxCell id="l-bfp-85eKoJ4v_uVIgV-3" value="" style="rounded=0;whiteSpace=wrap;html=1;fillColor=none;strokeWidth=15;strokeColor=#00FFFF;fontColor=#ffffff;" vertex="1" parent="1">
          <mxGeometry x="5100" y="4190" width="190" height="630" as="geometry" />
        </mxCell>
        <mxCell id="l-bfp-85eKoJ4v_uVIgV-4" value="&lt;h1 style=&quot;margin-top: 0px;&quot;&gt;&lt;font style=&quot;color: rgb(0, 0, 0); font-size: 40px;&quot;&gt;Reference DVB-S2 Transmitter Block&lt;/font&gt;&lt;/h1&gt;" style="text;html=1;whiteSpace=wrap;overflow=hidden;rounded=0;fillColor=#00FFFF;fontColor=#FFFFFF;align=center;spacingTop=0;" vertex="1" parent="1">
          <mxGeometry x="5005" y="4850" width="380" height="110" as="geometry" />
        </mxCell>
        <mxCell id="l-bfp-85eKoJ4v_uVIgV-14" value="" style="rounded=0;whiteSpace=wrap;html=1;fillColor=none;strokeWidth=15;strokeColor=#80FF00;fontColor=#ffffff;" vertex="1" parent="1">
          <mxGeometry x="5400" y="4640" width="145" height="140" as="geometry" />
        </mxCell>
        <mxCell id="l-bfp-85eKoJ4v_uVIgV-15" value="&lt;h1 style=&quot;margin-top: 0px;&quot;&gt;&lt;font style=&quot;color: rgb(0, 0, 0); font-size: 40px;&quot;&gt;AXI-Stream Interfacing&lt;/font&gt;&lt;/h1&gt;" style="text;html=1;whiteSpace=wrap;overflow=hidden;rounded=0;fillColor=#80FF00;fontColor=#FFFFFF;align=center;spacingTop=0;" vertex="1" parent="1">
          <mxGeometry x="4325" y="4580" width="270" height="110" as="geometry" />
        </mxCell>
        <mxCell id="l-bfp-85eKoJ4v_uVIgV-16" value="" style="rounded=0;whiteSpace=wrap;html=1;fillColor=none;strokeWidth=15;strokeColor=#80FF00;fontColor=#ffffff;" vertex="1" parent="1">
          <mxGeometry x="3990" y="4200" width="940" height="350" as="geometry" />
        </mxCell>
        <mxCell id="l-bfp-85eKoJ4v_uVIgV-17" value="&lt;h1 style=&quot;margin-top: 0px;&quot;&gt;&lt;font color=&quot;#000000&quot;&gt;&lt;span style=&quot;font-size: 40px;&quot;&gt;AXI-Stream TReady Generation&lt;/span&gt;&lt;/font&gt;&lt;/h1&gt;" style="text;html=1;whiteSpace=wrap;overflow=hidden;rounded=0;fillColor=#80FF00;fontColor=#FFFFFF;align=center;spacingTop=0;" vertex="1" parent="1">
          <mxGeometry x="5400" y="4790" width="370" height="110" as="geometry" />
        </mxCell>
      </root>
    </mxGraphModel>
  </diagram>
</mxfile>
